<ttFont>
    <TTGlyph name=".notdef" xMin="102" yMin="0" xMax="922" yMax="1462">
      <contour>
        <pt x="102" y="0" on="1"/>
        <pt x="102" y="1462" on="1"/>
        <pt x="922" y="1462" on="1"/>
        <pt x="922" y="0" on="1"/>
      </contour>
      <contour>
        <pt x="201" y="98" on="1"/>
        <pt x="823" y="98" on="1"/>
        <pt x="823" y="1364" on="1"/>
        <pt x="201" y="1364" on="1"/>
      </contour>
    </TTGlyph>
    <TTGlyph name="uni0E01" xMin="133" yMin="0" xMax="1145" yMax="1147">
      <contour>
        <pt x="166" y="0" on="1"/>
        <pt x="166" y="393" on="1"/>
        <pt x="166" y="505" on="0"/>
        <pt x="297" y="616" on="0"/>
        <pt x="442" y="637" on="1"/>
        <pt x="395" y="673" on="0"/>
        <pt x="202" y="737" on="0"/>
        <pt x="133" y="737" on="1"/>
        <pt x="142" y="939" on="0"/>
        <pt x="397" y="1147" on="0"/>
        <pt x="637" y="1147" on="1"/>
        <pt x="893" y="1147" on="0"/>
        <pt x="1145" y="928" on="0"/>
        <pt x="1145" y="696" on="1"/>
        <pt x="1145" y="205" on="1"/>
        <pt x="952" y="0" on="1"/>
        <pt x="860" y="0" on="1"/>
        <pt x="860" y="700" on="1"/>
        <pt x="860" y="872" on="0"/>
        <pt x="753" y="1036" on="0"/>
        <pt x="641" y="1036" on="1"/>
        <pt x="440" y="1036" on="0"/>
        <pt x="422" y="788" on="1"/>
        <pt x="482" y="768" on="0"/>
        <pt x="634" y="670" on="0"/>
        <pt x="657" y="635" on="1"/>
        <pt x="657" y="610" on="1"/>
        <pt x="536" y="600" on="0"/>
        <pt x="451" y="507" on="0"/>
        <pt x="451" y="389" on="1"/>
        <pt x="451" y="0" on="1"/>
      </contour>
    </TTGlyph>
    <TTGlyph name="uni0E02" xMin="59" yMin="0" xMax="1339" yMax="1147">
      <contour>
        <pt x="766" y="106" on="1"/>
        <pt x="842" y="106" on="1"/>
        <pt x="955" y="106" on="0"/>
        <pt x="1055" y="223" on="0"/>
        <pt x="1055" y="362" on="1"/>
        <pt x="1055" y="922" on="1"/>
        <pt x="1247" y="1126" on="1"/>
        <pt x="1339" y="1126" on="1"/>
        <pt x="1339" y="365" on="1"/>
        <pt x="1339" y="189" on="0"/>
        <pt x="1140" y="0" on="0"/>
        <pt x="954" y="0" on="1"/>
        <pt x="342" y="0" on="1"/>
        <pt x="342" y="106" on="1"/>
        <pt x="481" y="106" on="1"/>
        <pt x="481" y="449" on="1"/>
        <pt x="481" y="744" on="0"/>
        <pt x="684" y="819" on="1"/>
        <pt x="682" y="928" on="0"/>
        <pt x="559" y="1036" on="0"/>
        <pt x="451" y="1036" on="1"/>
        <pt x="338" y="1036" on="0"/>
        <pt x="193" y="924" on="0"/>
        <pt x="182" y="834" on="1"/>
        <pt x="225" y="889" on="0"/>
        <pt x="305" y="889" on="1"/>
        <pt x="382" y="889" on="0"/>
        <pt x="473" y="792" on="0"/>
        <pt x="473" y="711" on="1"/>
        <pt x="473" y="627" on="0"/>
        <pt x="367" y="526" on="0"/>
        <pt x="281" y="526" on="1"/>
        <pt x="175" y="526" on="0"/>
        <pt x="59" y="652" on="0"/>
        <pt x="59" y="770" on="1"/>
        <pt x="59" y="944" on="0"/>
        <pt x="291" y="1147" on="0"/>
        <pt x="498" y="1147" on="1"/>
        <pt x="704" y="1147" on="0"/>
        <pt x="952" y="960" on="0"/>
        <pt x="971" y="791" on="1"/>
        <pt x="857" y="754" on="0"/>
        <pt x="766" y="611" on="0"/>
        <pt x="766" y="459" on="1"/>
      </contour>
      <contour>
        <pt x="362" y="709" on="1"/>
        <pt x="362" y="747" on="0"/>
        <pt x="316" y="793" on="0"/>
        <pt x="279" y="793" on="1"/>
        <pt x="238" y="793" on="0"/>
        <pt x="197" y="747" on="0"/>
        <pt x="197" y="709" on="1"/>
        <pt x="197" y="668" on="0"/>
        <pt x="240" y="623" on="0"/>
        <pt x="279" y="623" on="1"/>
        <pt x="317" y="623" on="0"/>
        <pt x="362" y="668" on="0"/>
      </contour>
    </TTGlyph>
    <TTGlyph name="uni0E03" xMin="59" yMin="0" xMax="1339" yMax="1147">
      <contour>
        <pt x="684" y="819" on="1"/>
        <pt x="682" y="898" on="0"/>
        <pt x="651" y="999" on="0"/>
        <pt x="612" y="1016" on="1"/>
        <pt x="487" y="915" on="1"/>
        <pt x="350" y="1030" on="1"/>
        <pt x="285" y="1013" on="0"/>
        <pt x="193" y="907" on="0"/>
        <pt x="182" y="834" on="1"/>
        <pt x="225" y="889" on="0"/>
        <pt x="305" y="889" on="1"/>
        <pt x="382" y="889" on="0"/>
        <pt x="473" y="792" on="0"/>
        <pt x="473" y="711" on="1"/>
        <pt x="473" y="627" on="0"/>
        <pt x="367" y="526" on="0"/>
        <pt x="281" y="526" on="1"/>
        <pt x="180" y="526" on="0"/>
        <pt x="59" y="660" on="0"/>
        <pt x="59" y="770" on="1"/>
        <pt x="59" y="923" on="0"/>
        <pt x="235" y="1135" on="0"/>
        <pt x="373" y="1147" on="1"/>
        <pt x="487" y="1047" on="1"/>
        <pt x="602" y="1147" on="1"/>
        <pt x="763" y="1141" on="0"/>
        <pt x="951" y="961" on="0"/>
        <pt x="971" y="791" on="1"/>
        <pt x="857" y="754" on="0"/>
        <pt x="766" y="611" on="0"/>
        <pt x="766" y="459" on="1"/>
        <pt x="766" y="106" on="1"/>
        <pt x="842" y="106" on="1"/>
        <pt x="955" y="106" on="0"/>
        <pt x="1055" y="223" on="0"/>
        <pt x="1055" y="362" on="1"/>
        <pt x="1055" y="922" on="1"/>
        <pt x="1247" y="1126" on="1"/>
        <pt x="1339" y="1126" on="1"/>
        <pt x="1339" y="365" on="1"/>
        <pt x="1339" y="189" on="0"/>
        <pt x="1140" y="0" on="0"/>
        <pt x="954" y="0" on="1"/>
        <pt x="342" y="0" on="1"/>
        <pt x="342" y="106" on="1"/>
        <pt x="481" y="106" on="1"/>
        <pt x="481" y="449" on="1"/>
        <pt x="481" y="606" on="0"/>
        <pt x="580" y="784" on="0"/>
      </contour>
      <contour>
        <pt x="362" y="709" on="1"/>
        <pt x="362" y="747" on="0"/>
        <pt x="316" y="793" on="0"/>
        <pt x="279" y="793" on="1"/>
        <pt x="238" y="793" on="0"/>
        <pt x="197" y="747" on="0"/>
        <pt x="197" y="709" on="1"/>
        <pt x="197" y="668" on="0"/>
        <pt x="240" y="623" on="0"/>
        <pt x="279" y="623" on="1"/>
        <pt x="317" y="623" on="0"/>
        <pt x="362" y="668" on="0"/>
      </contour>
    </TTGlyph>
    <TTGlyph name="uni0E04" xMin="123" yMin="0" xMax="1212" yMax="1147">
      <contour>
        <pt x="762" y="610" on="1"/>
        <pt x="762" y="651" on="0"/>
        <pt x="716" y="694" on="0"/>
        <pt x="678" y="694" on="1"/>
        <pt x="643" y="694" on="0"/>
        <pt x="594" y="651" on="0"/>
        <pt x="594" y="610" on="1"/>
        <pt x="594" y="572" on="0"/>
        <pt x="643" y="526" on="0"/>
        <pt x="678" y="526" on="1"/>
        <pt x="716" y="526" on="0"/>
        <pt x="762" y="572" on="0"/>
      </contour>
      <contour>
        <pt x="440" y="469" on="1"/>
        <pt x="461" y="634" on="0"/>
        <pt x="577" y="791" on="0"/>
        <pt x="680" y="791" on="1"/>
        <pt x="773" y="791" on="0"/>
        <pt x="872" y="695" on="0"/>
        <pt x="872" y="610" on="1"/>
        <pt x="872" y="524" on="0"/>
        <pt x="774" y="430" on="0"/>
        <pt x="680" y="430" on="1"/>
        <pt x="635" y="430" on="0"/>
        <pt x="567" y="461" on="0"/>
        <pt x="549" y="485" on="1"/>
        <pt x="492" y="376" on="0"/>
        <pt x="492" y="57" on="1"/>
        <pt x="492" y="0" on="1"/>
        <pt x="207" y="0" on="1"/>
        <pt x="207" y="119" on="1"/>
        <pt x="207" y="309" on="0"/>
        <pt x="165" y="469" on="1"/>
        <pt x="141" y="562" on="0"/>
        <pt x="123" y="670" on="0"/>
        <pt x="123" y="729" on="1"/>
        <pt x="123" y="918" on="0"/>
        <pt x="422" y="1147" on="0"/>
        <pt x="678" y="1147" on="1"/>
        <pt x="867" y="1147" on="0"/>
        <pt x="1101" y="1052" on="0"/>
        <pt x="1212" y="864" on="0"/>
        <pt x="1212" y="696" on="1"/>
        <pt x="1212" y="205" on="1"/>
        <pt x="1020" y="0" on="1"/>
        <pt x="928" y="0" on="1"/>
        <pt x="928" y="696" on="1"/>
        <pt x="928" y="869" on="0"/>
        <pt x="801" y="1036" on="0"/>
        <pt x="670" y="1036" on="1"/>
        <pt x="541" y="1036" on="0"/>
        <pt x="408" y="880" on="0"/>
        <pt x="408" y="735" on="1"/>
        <pt x="408" y="628" on="0"/>
        <pt x="429" y="526" on="1"/>
      </contour>
    </TTGlyph>
    <TTGlyph name="uni0E05" xMin="123" yMin="0" xMax="1212" yMax="1147">
      <contour>
        <pt x="928" y="707" on="1"/>
        <pt x="928" y="816" on="0"/>
        <pt x="873" y="953" on="0"/>
        <pt x="811" y="991" on="1"/>
        <pt x="666" y="866" on="1"/>
        <pt x="518" y="993" on="1"/>
        <pt x="461" y="956" on="0"/>
        <pt x="406" y="838" on="0"/>
        <pt x="406" y="745" on="1"/>
        <pt x="406" y="658" on="0"/>
        <pt x="429" y="526" on="0"/>
        <pt x="440" y="469" on="1"/>
        <pt x="477" y="791" on="0"/>
        <pt x="680" y="791" on="1"/>
        <pt x="773" y="791" on="0"/>
        <pt x="872" y="695" on="0"/>
        <pt x="872" y="610" on="1"/>
        <pt x="872" y="524" on="0"/>
        <pt x="774" y="430" on="0"/>
        <pt x="680" y="430" on="1"/>
        <pt x="635" y="430" on="0"/>
        <pt x="567" y="461" on="0"/>
        <pt x="549" y="485" on="1"/>
        <pt x="528" y="446" on="0"/>
        <pt x="492" y="182" on="0"/>
        <pt x="492" y="57" on="1"/>
        <pt x="492" y="0" on="1"/>
        <pt x="207" y="0" on="1"/>
        <pt x="207" y="119" on="1"/>
        <pt x="207" y="308" on="0"/>
        <pt x="165" y="475" on="1"/>
        <pt x="140" y="573" on="0"/>
        <pt x="123" y="684" on="0"/>
        <pt x="123" y="739" on="1"/>
        <pt x="123" y="896" on="0"/>
        <pt x="332" y="1113" on="0"/>
        <pt x="518" y="1147" on="1"/>
        <pt x="666" y="1020" on="1"/>
        <pt x="813" y="1147" on="1"/>
        <pt x="1013" y="1121" on="0"/>
        <pt x="1212" y="906" on="0"/>
        <pt x="1212" y="707" on="1"/>
        <pt x="1212" y="205" on="1"/>
        <pt x="1020" y="0" on="1"/>
        <pt x="928" y="0" on="1"/>
      </contour>
      <contour>
        <pt x="762" y="610" on="1"/>
        <pt x="762" y="651" on="0"/>
        <pt x="716" y="694" on="0"/>
        <pt x="678" y="694" on="1"/>
        <pt x="643" y="694" on="0"/>
        <pt x="594" y="651" on="0"/>
        <pt x="594" y="610" on="1"/>
        <pt x="594" y="572" on="0"/>
        <pt x="643" y="526" on="0"/>
        <pt x="678" y="526" on="1"/>
        <pt x="716" y="526" on="0"/>
        <pt x="762" y="572" on="0"/>
      </contour>
    </TTGlyph>
    <TTGlyph name="uni0E06" xMin="59" yMin="-20" xMax="1360" yMax="1147">
      <contour>
        <pt x="487" y="915" on="1"/>
        <pt x="350" y="1030" on="1"/>
        <pt x="285" y="1013" on="0"/>
        <pt x="193" y="907" on="0"/>
        <pt x="182" y="834" on="1"/>
        <pt x="225" y="889" on="0"/>
        <pt x="305" y="889" on="1"/>
        <pt x="382" y="889" on="0"/>
        <pt x="473" y="792" on="0"/>
        <pt x="473" y="711" on="1"/>
        <pt x="473" y="627" on="0"/>
        <pt x="367" y="526" on="0"/>
        <pt x="281" y="526" on="1"/>
        <pt x="180" y="526" on="0"/>
        <pt x="59" y="660" on="0"/>
        <pt x="59" y="770" on="1"/>
        <pt x="59" y="923" on="0"/>
        <pt x="235" y="1135" on="0"/>
        <pt x="373" y="1147" on="1"/>
        <pt x="487" y="1047" on="1"/>
        <pt x="602" y="1147" on="1"/>
        <pt x="763" y="1141" on="0"/>
        <pt x="951" y="961" on="0"/>
        <pt x="971" y="791" on="1"/>
        <pt x="871" y="761" on="0"/>
        <pt x="786" y="635" on="0"/>
        <pt x="786" y="500" on="1"/>
        <pt x="786" y="438" on="1"/>
        <pt x="863" y="421" on="0"/>
        <pt x="1018" y="325" on="0"/>
        <pt x="1075" y="256" on="1"/>
        <pt x="1075" y="922" on="1"/>
        <pt x="1268" y="1126" on="1"/>
        <pt x="1360" y="1126" on="1"/>
        <pt x="1360" y="0" on="1"/>
        <pt x="1096" y="0" on="1"/>
        <pt x="1037" y="124" on="0"/>
        <pt x="870" y="293" on="0"/>
        <pt x="786" y="315" on="1"/>
        <pt x="786" y="279" on="1"/>
        <pt x="786" y="128" on="0"/>
        <pt x="641" y="-20" on="0"/>
        <pt x="487" y="-20" on="1"/>
        <pt x="366" y="-20" on="0"/>
        <pt x="233" y="88" on="0"/>
        <pt x="233" y="190" on="1"/>
        <pt x="233" y="288" on="0"/>
        <pt x="376" y="422" on="0"/>
        <pt x="502" y="440" on="1"/>
        <pt x="502" y="489" on="1"/>
        <pt x="502" y="631" on="0"/>
        <pt x="590" y="788" on="0"/>
        <pt x="684" y="819" on="1"/>
        <pt x="682" y="898" on="0"/>
        <pt x="651" y="999" on="0"/>
        <pt x="612" y="1016" on="1"/>
      </contour>
      <contour>
        <pt x="348" y="186" on="1"/>
        <pt x="348" y="143" on="0"/>
        <pt x="394" y="96" on="0"/>
        <pt x="426" y="96" on="1"/>
        <pt x="461" y="96" on="0"/>
        <pt x="502" y="145" on="0"/>
        <pt x="502" y="193" on="1"/>
        <pt x="502" y="322" on="1"/>
        <pt x="348" y="296" on="0"/>
      </contour>
      <contour>
        <pt x="354" y="709" on="1"/>
        <pt x="354" y="743" on="0"/>
        <pt x="313" y="784" on="0"/>
        <pt x="279" y="784" on="1"/>
        <pt x="243" y="784" on="0"/>
        <pt x="205" y="743" on="0"/>
        <pt x="205" y="709" on="1"/>
        <pt x="205" y="674" on="0"/>
        <pt x="244" y="631" on="0"/>
        <pt x="279" y="631" on="1"/>
        <pt x="314" y="631" on="0"/>
        <pt x="354" y="674" on="0"/>
      </contour>
    </TTGlyph>
    <TTGlyph name="uni0E07" xMin="49" yMin="-20" xMax="946" yMax="1145">
      <contour>
        <pt x="946" y="334" on="1"/>
        <pt x="946" y="151" on="0"/>
        <pt x="777" y="-20" on="0"/>
        <pt x="596" y="-20" on="1"/>
        <pt x="432" y="-20" on="0"/>
        <pt x="263" y="100" on="0"/>
        <pt x="223" y="252" on="1"/>
        <pt x="176" y="428" on="1"/>
        <pt x="155" y="510" on="0"/>
        <pt x="103" y="573" on="0"/>
        <pt x="49" y="573" on="1"/>
        <pt x="49" y="684" on="1"/>
        <pt x="182" y="684" on="0"/>
        <pt x="334" y="637" on="0"/>
        <pt x="423" y="528" on="0"/>
        <pt x="455" y="412" on="1"/>
        <pt x="502" y="236" on="1"/>
        <pt x="516" y="181" on="0"/>
        <pt x="544" y="118" on="0"/>
        <pt x="573" y="90" on="0"/>
        <pt x="600" y="90" on="1"/>
        <pt x="662" y="90" on="0"/>
        <pt x="662" y="201" on="1"/>
        <pt x="662" y="764" on="1"/>
        <pt x="577" y="766" on="0"/>
        <pt x="475" y="864" on="0"/>
        <pt x="475" y="948" on="1"/>
        <pt x="475" y="1037" on="0"/>
        <pt x="591" y="1145" on="0"/>
        <pt x="688" y="1145" on="1"/>
        <pt x="946" y="1145" on="0"/>
        <pt x="946" y="866" on="1"/>
      </contour>
      <contour>
        <pt x="594" y="954" on="1"/>
        <pt x="594" y="917" on="0"/>
        <pt x="642" y="872" on="0"/>
        <pt x="680" y="872" on="1"/>
        <pt x="715" y="872" on="0"/>
        <pt x="764" y="917" on="0"/>
        <pt x="764" y="954" on="1"/>
        <pt x="764" y="993" on="0"/>
        <pt x="715" y="1038" on="0"/>
        <pt x="680" y="1038" on="1"/>
        <pt x="642" y="1038" on="0"/>
        <pt x="594" y="993" on="0"/>
      </contour>
    </TTGlyph>
    <TTGlyph name="uni0E08" xMin="104" yMin="-20" xMax="1110" yMax="1147">
      <contour>
        <pt x="352" y="346" on="1"/>
        <pt x="256" y="346" on="0"/>
        <pt x="143" y="442" on="0"/>
        <pt x="143" y="530" on="1"/>
        <pt x="143" y="619" on="0"/>
        <pt x="259" y="727" on="0"/>
        <pt x="356" y="727" on="1"/>
        <pt x="458" y="727" on="0"/>
        <pt x="572" y="612" on="0"/>
        <pt x="604" y="481" on="1"/>
        <pt x="666" y="236" on="1"/>
        <pt x="679" y="181" on="0"/>
        <pt x="705" y="119" on="0"/>
        <pt x="735" y="90" on="0"/>
        <pt x="764" y="90" on="1"/>
        <pt x="825" y="90" on="0"/>
        <pt x="825" y="201" on="1"/>
        <pt x="825" y="647" on="1"/>
        <pt x="825" y="787" on="0"/>
        <pt x="770" y="954" on="0"/>
        <pt x="657" y="1028" on="0"/>
        <pt x="553" y="1028" on="1"/>
        <pt x="464" y="1028" on="0"/>
        <pt x="277" y="974" on="0"/>
        <pt x="164" y="905" on="1"/>
        <pt x="104" y="1008" on="1"/>
        <pt x="332" y="1147" on="0"/>
        <pt x="616" y="1147" on="1"/>
        <pt x="853" y="1147" on="0"/>
        <pt x="1110" y="914" on="0"/>
        <pt x="1110" y="684" on="1"/>
        <pt x="1110" y="334" on="1"/>
        <pt x="1110" y="151" on="0"/>
        <pt x="941" y="-20" on="0"/>
        <pt x="760" y="-20" on="1"/>
        <pt x="596" y="-20" on="0"/>
        <pt x="427" y="100" on="0"/>
        <pt x="387" y="252" on="1"/>
        <pt x="360" y="346" on="1"/>
      </contour>
      <contour>
        <pt x="262" y="537" on="1"/>
        <pt x="262" y="499" on="0"/>
        <pt x="310" y="455" on="0"/>
        <pt x="348" y="455" on="1"/>
        <pt x="383" y="455" on="0"/>
        <pt x="432" y="499" on="0"/>
        <pt x="432" y="537" on="1"/>
        <pt x="432" y="575" on="0"/>
        <pt x="383" y="621" on="0"/>
        <pt x="348" y="621" on="1"/>
        <pt x="310" y="621" on="0"/>
        <pt x="262" y="575" on="0"/>
      </contour>
    </TTGlyph>
    <TTGlyph name="uni0E09" xMin="94" yMin="-20" xMax="1380" yMax="1147">
      <contour>
        <pt x="1266" y="186" on="1"/>
        <pt x="1266" y="295" on="0"/>
        <pt x="1112" y="322" on="1"/>
        <pt x="1112" y="193" on="1"/>
        <pt x="1112" y="145" on="0"/>
        <pt x="1153" y="96" on="0"/>
        <pt x="1188" y="96" on="1"/>
        <pt x="1220" y="96" on="0"/>
        <pt x="1266" y="143" on="0"/>
      </contour>
      <contour>
        <pt x="565" y="260" on="1"/>
        <pt x="621" y="326" on="0"/>
        <pt x="761" y="421" on="0"/>
        <pt x="827" y="438" on="1"/>
        <pt x="827" y="684" on="1"/>
        <pt x="827" y="867" on="0"/>
        <pt x="706" y="1028" on="0"/>
        <pt x="561" y="1028" on="1"/>
        <pt x="473" y="1028" on="0"/>
        <pt x="296" y="975" on="0"/>
        <pt x="180" y="905" on="1"/>
        <pt x="121" y="1008" on="1"/>
        <pt x="344" y="1147" on="0"/>
        <pt x="625" y="1147" on="1"/>
        <pt x="860" y="1147" on="0"/>
        <pt x="1112" y="917" on="0"/>
        <pt x="1112" y="705" on="1"/>
        <pt x="1112" y="440" on="1"/>
        <pt x="1239" y="422" on="0"/>
        <pt x="1380" y="288" on="0"/>
        <pt x="1380" y="190" on="1"/>
        <pt x="1380" y="88" on="0"/>
        <pt x="1248" y="-20" on="0"/>
        <pt x="1126" y="-20" on="1"/>
        <pt x="972" y="-20" on="0"/>
        <pt x="827" y="127" on="0"/>
        <pt x="827" y="279" on="1"/>
        <pt x="827" y="315" on="1"/>
        <pt x="670" y="274" on="0"/>
        <pt x="545" y="0" on="1"/>
        <pt x="281" y="0" on="1"/>
        <pt x="281" y="414" on="1"/>
        <pt x="196" y="416" on="0"/>
        <pt x="94" y="514" on="0"/>
        <pt x="94" y="598" on="1"/>
        <pt x="94" y="687" on="0"/>
        <pt x="210" y="795" on="0"/>
        <pt x="307" y="795" on="1"/>
        <pt x="565" y="795" on="0"/>
        <pt x="565" y="516" on="1"/>
      </contour>
      <contour>
        <pt x="213" y="604" on="1"/>
        <pt x="213" y="567" on="0"/>
        <pt x="261" y="522" on="0"/>
        <pt x="299" y="522" on="1"/>
        <pt x="334" y="522" on="0"/>
        <pt x="383" y="567" on="0"/>
        <pt x="383" y="604" on="1"/>
        <pt x="383" y="642" on="0"/>
        <pt x="334" y="688" on="0"/>
        <pt x="299" y="688" on="1"/>
        <pt x="261" y="688" on="0"/>
        <pt x="213" y="642" on="0"/>
      </contour>
    </TTGlyph>
    <TTGlyph name="uni0E0A" xMin="59" yMin="0" xMax="1540" yMax="1206">
      <contour>
        <pt x="362" y="709" on="1"/>
        <pt x="362" y="747" on="0"/>
        <pt x="316" y="795" on="0"/>
        <pt x="279" y="795" on="1"/>
        <pt x="238" y="795" on="0"/>
        <pt x="197" y="747" on="0"/>
        <pt x="197" y="709" on="1"/>
        <pt x="197" y="668" on="0"/>
        <pt x="240" y="623" on="0"/>
        <pt x="279" y="623" on="1"/>
        <pt x="317" y="623" on="0"/>
        <pt x="362" y="668" on="0"/>
      </contour>
      <contour>
        <pt x="1065" y="625" on="1"/>
        <pt x="1065" y="787" on="0"/>
        <pt x="971" y="811" on="1"/>
        <pt x="971" y="874" on="1"/>
        <pt x="1042" y="886" on="0"/>
        <pt x="1135" y="973" on="0"/>
        <pt x="1180" y="1065" on="1"/>
        <pt x="1249" y="1206" on="1"/>
        <pt x="1540" y="1206" on="1"/>
        <pt x="1462" y="1055" on="1"/>
        <pt x="1410" y="954" on="0"/>
        <pt x="1313" y="865" on="0"/>
        <pt x="1229" y="842" on="1"/>
        <pt x="1289" y="822" on="0"/>
        <pt x="1350" y="730" on="0"/>
        <pt x="1350" y="670" on="1"/>
        <pt x="1350" y="365" on="1"/>
        <pt x="1350" y="189" on="0"/>
        <pt x="1151" y="0" on="0"/>
        <pt x="965" y="0" on="1"/>
        <pt x="342" y="0" on="1"/>
        <pt x="342" y="106" on="1"/>
        <pt x="502" y="106" on="1"/>
        <pt x="502" y="469" on="1"/>
        <pt x="502" y="627" on="0"/>
        <pt x="557" y="793" on="0"/>
        <pt x="627" y="829" on="1"/>
        <pt x="623" y="1036" on="0"/>
        <pt x="420" y="1036" on="1"/>
        <pt x="322" y="1036" on="0"/>
        <pt x="194" y="927" on="0"/>
        <pt x="182" y="834" on="1"/>
        <pt x="225" y="889" on="0"/>
        <pt x="305" y="889" on="1"/>
        <pt x="382" y="889" on="0"/>
        <pt x="473" y="792" on="0"/>
        <pt x="473" y="711" on="1"/>
        <pt x="473" y="627" on="0"/>
        <pt x="367" y="526" on="0"/>
        <pt x="281" y="526" on="1"/>
        <pt x="175" y="526" on="0"/>
        <pt x="59" y="652" on="0"/>
        <pt x="59" y="770" on="1"/>
        <pt x="59" y="946" on="0"/>
        <pt x="279" y="1147" on="0"/>
        <pt x="471" y="1147" on="1"/>
        <pt x="670" y="1147" on="0"/>
        <pt x="898" y="975" on="0"/>
        <pt x="913" y="811" on="1"/>
        <pt x="857" y="794" on="0"/>
        <pt x="807" y="730" on="0"/>
        <pt x="786" y="613" on="0"/>
        <pt x="786" y="479" on="1"/>
        <pt x="786" y="106" on="1"/>
        <pt x="852" y="106" on="1"/>
        <pt x="967" y="106" on="0"/>
        <pt x="1065" y="224" on="0"/>
        <pt x="1065" y="362" on="1"/>
      </contour>
    </TTGlyph>
    <TTGlyph name="uni0E0B" xMin="59" yMin="0" xMax="1540" yMax="1206">
      <contour>
        <pt x="786" y="106" on="1"/>
        <pt x="852" y="106" on="1"/>
        <pt x="967" y="106" on="0"/>
        <pt x="1065" y="224" on="0"/>
        <pt x="1065" y="362" on="1"/>
        <pt x="1065" y="625" on="1"/>
        <pt x="1065" y="787" on="0"/>
        <pt x="971" y="811" on="1"/>
        <pt x="971" y="874" on="1"/>
        <pt x="1042" y="886" on="0"/>
        <pt x="1135" y="973" on="0"/>
        <pt x="1180" y="1065" on="1"/>
        <pt x="1249" y="1206" on="1"/>
        <pt x="1540" y="1206" on="1"/>
        <pt x="1462" y="1055" on="1"/>
        <pt x="1410" y="954" on="0"/>
        <pt x="1313" y="865" on="0"/>
        <pt x="1229" y="842" on="1"/>
        <pt x="1289" y="822" on="0"/>
        <pt x="1350" y="730" on="0"/>
        <pt x="1350" y="670" on="1"/>
        <pt x="1350" y="365" on="1"/>
        <pt x="1350" y="189" on="0"/>
        <pt x="1151" y="0" on="0"/>
        <pt x="965" y="0" on="1"/>
        <pt x="342" y="0" on="1"/>
        <pt x="342" y="106" on="1"/>
        <pt x="502" y="106" on="1"/>
        <pt x="502" y="506" on="1"/>
        <pt x="502" y="761" on="0"/>
        <pt x="625" y="829" on="1"/>
        <pt x="623" y="908" on="0"/>
        <pt x="575" y="999" on="0"/>
        <pt x="541" y="1016" on="1"/>
        <pt x="438" y="920" on="1"/>
        <pt x="309" y="1030" on="1"/>
        <pt x="201" y="998" on="0"/>
        <pt x="182" y="834" on="1"/>
        <pt x="225" y="889" on="0"/>
        <pt x="305" y="889" on="1"/>
        <pt x="382" y="889" on="0"/>
        <pt x="473" y="792" on="0"/>
        <pt x="473" y="711" on="1"/>
        <pt x="473" y="627" on="0"/>
        <pt x="367" y="526" on="0"/>
        <pt x="281" y="526" on="1"/>
        <pt x="180" y="526" on="0"/>
        <pt x="59" y="660" on="0"/>
        <pt x="59" y="770" on="1"/>
        <pt x="59" y="927" on="0"/>
        <pt x="208" y="1135" on="0"/>
        <pt x="332" y="1147" on="1"/>
        <pt x="438" y="1053" on="1"/>
        <pt x="547" y="1147" on="1"/>
        <pt x="709" y="1141" on="0"/>
        <pt x="896" y="967" on="0"/>
        <pt x="911" y="811" on="1"/>
        <pt x="843" y="777" on="0"/>
        <pt x="786" y="630" on="0"/>
        <pt x="786" y="479" on="1"/>
      </contour>
      <contour>
        <pt x="354" y="709" on="1"/>
        <pt x="354" y="743" on="0"/>
        <pt x="313" y="784" on="0"/>
        <pt x="279" y="784" on="1"/>
        <pt x="243" y="784" on="0"/>
        <pt x="205" y="743" on="0"/>
        <pt x="205" y="709" on="1"/>
        <pt x="205" y="674" on="0"/>
        <pt x="244" y="631" on="0"/>
        <pt x="279" y="631" on="1"/>
        <pt x="314" y="631" on="0"/>
        <pt x="354" y="674" on="0"/>
      </contour>
    </TTGlyph>
    <TTGlyph name="uni0E0C" xMin="133" yMin="-20" xMax="1819" yMax="1147">
      <contour>
        <pt x="496" y="172" on="1"/>
        <pt x="496" y="209" on="0"/>
        <pt x="448" y="254" on="0"/>
        <pt x="410" y="254" on="1"/>
        <pt x="374" y="254" on="0"/>
        <pt x="326" y="209" on="0"/>
        <pt x="326" y="172" on="1"/>
        <pt x="326" y="134" on="0"/>
        <pt x="374" y="88" on="0"/>
        <pt x="410" y="88" on="1"/>
        <pt x="448" y="88" on="0"/>
        <pt x="496" y="134" on="0"/>
      </contour>
      <contour>
        <pt x="807" y="186" on="1"/>
        <pt x="807" y="143" on="0"/>
        <pt x="853" y="96" on="0"/>
        <pt x="885" y="96" on="1"/>
        <pt x="920" y="96" on="0"/>
        <pt x="961" y="145" on="0"/>
        <pt x="961" y="193" on="1"/>
        <pt x="961" y="322" on="1"/>
        <pt x="807" y="296" on="0"/>
      </contour>
      <contour>
        <pt x="1554" y="0" on="1"/>
        <pt x="1499" y="120" on="0"/>
        <pt x="1330" y="293" on="0"/>
        <pt x="1245" y="315" on="1"/>
        <pt x="1245" y="279" on="1"/>
        <pt x="1245" y="128" on="0"/>
        <pt x="1100" y="-20" on="0"/>
        <pt x="946" y="-20" on="1"/>
        <pt x="824" y="-20" on="0"/>
        <pt x="692" y="88" on="0"/>
        <pt x="692" y="190" on="1"/>
        <pt x="692" y="288" on="0"/>
        <pt x="835" y="422" on="0"/>
        <pt x="961" y="440" on="1"/>
        <pt x="961" y="768" on="1"/>
        <pt x="961" y="907" on="0"/>
        <pt x="836" y="1036" on="0"/>
        <pt x="690" y="1036" on="1"/>
        <pt x="575" y="1036" on="0"/>
        <pt x="433" y="943" on="0"/>
        <pt x="422" y="846" on="1"/>
        <pt x="586" y="736" on="0"/>
        <pt x="616" y="692" on="1"/>
        <pt x="616" y="668" on="1"/>
        <pt x="540" y="662" on="0"/>
        <pt x="461" y="621" on="0"/>
        <pt x="428" y="541" on="0"/>
        <pt x="428" y="446" on="1"/>
        <pt x="428" y="362" on="1"/>
        <pt x="517" y="357" on="0"/>
        <pt x="614" y="260" on="0"/>
        <pt x="614" y="178" on="1"/>
        <pt x="614" y="88" on="0"/>
        <pt x="496" y="-18" on="0"/>
        <pt x="401" y="-18" on="1"/>
        <pt x="143" y="-18" on="0"/>
        <pt x="143" y="260" on="1"/>
        <pt x="143" y="451" on="1"/>
        <pt x="143" y="658" on="0"/>
        <pt x="401" y="694" on="1"/>
        <pt x="352" y="731" on="0"/>
        <pt x="169" y="795" on="0"/>
        <pt x="133" y="795" on="1"/>
        <pt x="142" y="968" on="0"/>
        <pt x="426" y="1147" on="0"/>
        <pt x="690" y="1147" on="1"/>
        <pt x="961" y="1147" on="0"/>
        <pt x="1245" y="943" on="0"/>
        <pt x="1245" y="739" on="1"/>
        <pt x="1245" y="438" on="1"/>
        <pt x="1318" y="422" on="0"/>
        <pt x="1476" y="327" on="0"/>
        <pt x="1534" y="256" on="1"/>
        <pt x="1534" y="922" on="1"/>
        <pt x="1726" y="1126" on="1"/>
        <pt x="1819" y="1126" on="1"/>
        <pt x="1819" y="0" on="1"/>
      </contour>
    </TTGlyph>
    <TTGlyph name="uni0E0D" xMin="133" yMin="-491" xMax="1655" yMax="1147">
      <contour>
        <pt x="166" y="451" on="1"/>
        <pt x="166" y="548" on="0"/>
        <pt x="308" y="675" on="0"/>
        <pt x="442" y="694" on="1"/>
        <pt x="389" y="734" on="0"/>
        <pt x="195" y="795" on="0"/>
        <pt x="133" y="795" on="1"/>
        <pt x="140" y="968" on="0"/>
        <pt x="382" y="1147" on="0"/>
        <pt x="608" y="1147" on="1"/>
        <pt x="839" y="1147" on="0"/>
        <pt x="1081" y="943" on="0"/>
        <pt x="1081" y="739" on="1"/>
        <pt x="1081" y="106" on="1"/>
        <pt x="1157" y="106" on="1"/>
        <pt x="1272" y="106" on="0"/>
        <pt x="1370" y="224" on="0"/>
        <pt x="1370" y="362" on="1"/>
        <pt x="1370" y="922" on="1"/>
        <pt x="1563" y="1126" on="1"/>
        <pt x="1655" y="1126" on="1"/>
        <pt x="1655" y="365" on="1"/>
        <pt x="1655" y="189" on="0"/>
        <pt x="1456" y="0" on="0"/>
        <pt x="1270" y="0" on="1"/>
        <pt x="797" y="0" on="1"/>
        <pt x="797" y="768" on="1"/>
        <pt x="797" y="907" on="0"/>
        <pt x="710" y="1036" on="0"/>
        <pt x="608" y="1036" on="1"/>
        <pt x="515" y="1036" on="0"/>
        <pt x="429" y="944" on="0"/>
        <pt x="422" y="846" on="1"/>
        <pt x="477" y="828" on="0"/>
        <pt x="632" y="729" on="0"/>
        <pt x="657" y="692" on="1"/>
        <pt x="657" y="668" on="1"/>
        <pt x="540" y="659" on="0"/>
        <pt x="451" y="567" on="0"/>
        <pt x="451" y="446" on="1"/>
        <pt x="451" y="362" on="1"/>
        <pt x="540" y="357" on="0"/>
        <pt x="637" y="260" on="0"/>
        <pt x="637" y="178" on="1"/>
        <pt x="637" y="88" on="0"/>
        <pt x="519" y="-18" on="0"/>
        <pt x="424" y="-18" on="1"/>
        <pt x="166" y="-18" on="0"/>
        <pt x="166" y="260" on="1"/>
      </contour>
      <contour>
        <pt x="518" y="172" on="1"/>
        <pt x="518" y="209" on="0"/>
        <pt x="470" y="254" on="0"/>
        <pt x="432" y="254" on="1"/>
        <pt x="397" y="254" on="0"/>
        <pt x="348" y="209" on="0"/>
        <pt x="348" y="172" on="1"/>
        <pt x="348" y="134" on="0"/>
        <pt x="397" y="88" on="0"/>
        <pt x="432" y="88" on="1"/>
        <pt x="470" y="88" on="0"/>
        <pt x="518" y="134" on="0"/>
      </contour>
      <contour>
        <pt x="1099" y="-491" on="1"/>
        <pt x="962" y="-491" on="0"/>
        <pt x="813" y="-377" on="0"/>
        <pt x="813" y="-280" on="1"/>
        <pt x="813" y="-193" on="0"/>
        <pt x="923" y="-95" on="0"/>
        <pt x="1011" y="-95" on="1"/>
        <pt x="1100" y="-95" on="0"/>
        <pt x="1208" y="-189" on="0"/>
        <pt x="1208" y="-267" on="1"/>
        <pt x="1208" y="-298" on="0"/>
        <pt x="1186" y="-361" on="0"/>
        <pt x="1173" y="-378" on="1"/>
        <pt x="1268" y="-352" on="0"/>
        <pt x="1384" y="-208" on="0"/>
        <pt x="1409" y="-79" on="1"/>
        <pt x="1634" y="-112" on="1"/>
        <pt x="1592" y="-286" on="0"/>
        <pt x="1310" y="-491" on="0"/>
      </contour>
      <contour>
        <pt x="923" y="-280" on="1"/>
        <pt x="923" y="-320" on="0"/>
        <pt x="971" y="-368" on="0"/>
        <pt x="1011" y="-368" on="1"/>
        <pt x="1049" y="-368" on="0"/>
        <pt x="1097" y="-320" on="0"/>
        <pt x="1097" y="-280" on="1"/>
        <pt x="1097" y="-238" on="0"/>
        <pt x="1049" y="-192" on="0"/>
        <pt x="1011" y="-192" on="1"/>
        <pt x="971" y="-192" on="0"/>
        <pt x="923" y="-238" on="0"/>
      </contour>
    </TTGlyph>
    <TTGlyph name="uni0E0D.alt1" xMin="133" yMin="-18" xMax="1655" yMax="1147">
      <contour>
        <pt x="166" y="451" on="1"/>
        <pt x="166" y="548" on="0"/>
        <pt x="308" y="675" on="0"/>
        <pt x="442" y="694" on="1"/>
        <pt x="389" y="734" on="0"/>
        <pt x="195" y="795" on="0"/>
        <pt x="133" y="795" on="1"/>
        <pt x="140" y="968" on="0"/>
        <pt x="382" y="1147" on="0"/>
        <pt x="608" y="1147" on="1"/>
        <pt x="839" y="1147" on="0"/>
        <pt x="1081" y="943" on="0"/>
        <pt x="1081" y="739" on="1"/>
        <pt x="1081" y="106" on="1"/>
        <pt x="1157" y="106" on="1"/>
        <pt x="1272" y="106" on="0"/>
        <pt x="1370" y="224" on="0"/>
        <pt x="1370" y="362" on="1"/>
        <pt x="1370" y="922" on="1"/>
        <pt x="1563" y="1126" on="1"/>
        <pt x="1655" y="1126" on="1"/>
        <pt x="1655" y="365" on="1"/>
        <pt x="1655" y="189" on="0"/>
        <pt x="1456" y="0" on="0"/>
        <pt x="1270" y="0" on="1"/>
        <pt x="797" y="0" on="1"/>
        <pt x="797" y="768" on="1"/>
        <pt x="797" y="907" on="0"/>
        <pt x="710" y="1036" on="0"/>
        <pt x="608" y="1036" on="1"/>
        <pt x="515" y="1036" on="0"/>
        <pt x="429" y="944" on="0"/>
        <pt x="422" y="846" on="1"/>
        <pt x="477" y="828" on="0"/>
        <pt x="632" y="729" on="0"/>
        <pt x="657" y="692" on="1"/>
        <pt x="657" y="668" on="1"/>
        <pt x="540" y="659" on="0"/>
        <pt x="451" y="567" on="0"/>
        <pt x="451" y="446" on="1"/>
        <pt x="451" y="362" on="1"/>
        <pt x="540" y="357" on="0"/>
        <pt x="637" y="260" on="0"/>
        <pt x="637" y="178" on="1"/>
        <pt x="637" y="88" on="0"/>
        <pt x="519" y="-18" on="0"/>
        <pt x="424" y="-18" on="1"/>
        <pt x="166" y="-18" on="0"/>
        <pt x="166" y="260" on="1"/>
      </contour>
      <contour>
        <pt x="518" y="172" on="1"/>
        <pt x="518" y="209" on="0"/>
        <pt x="470" y="254" on="0"/>
        <pt x="432" y="254" on="1"/>
        <pt x="397" y="254" on="0"/>
        <pt x="348" y="209" on="0"/>
        <pt x="348" y="172" on="1"/>
        <pt x="348" y="134" on="0"/>
        <pt x="397" y="88" on="0"/>
        <pt x="432" y="88" on="1"/>
        <pt x="470" y="88" on="0"/>
        <pt x="518" y="134" on="0"/>
      </contour>
    </TTGlyph>
    <TTGlyph name="uni0E0E" xMin="45" yMin="-520" xMax="1210" yMax="1147">
      <contour>
        <pt x="485" y="-365" on="1"/>
        <pt x="567" y="-365" on="0"/>
        <pt x="612" y="-246" on="1"/>
        <pt x="540" y="-211" on="0"/>
        <pt x="485" y="-211" on="1"/>
        <pt x="399" y="-211" on="0"/>
        <pt x="399" y="-287" on="1"/>
        <pt x="399" y="-322" on="0"/>
        <pt x="450" y="-365" on="0"/>
      </contour>
      <contour>
        <pt x="231" y="424" on="1"/>
        <pt x="231" y="534" on="0"/>
        <pt x="361" y="647" on="0"/>
        <pt x="508" y="668" on="1"/>
        <pt x="458" y="704" on="0"/>
        <pt x="268" y="768" on="0"/>
        <pt x="199" y="768" on="1"/>
        <pt x="208" y="956" on="0"/>
        <pt x="465" y="1147" on="0"/>
        <pt x="702" y="1147" on="1"/>
        <pt x="958" y="1147" on="0"/>
        <pt x="1210" y="928" on="0"/>
        <pt x="1210" y="696" on="1"/>
        <pt x="1210" y="-315" on="1"/>
        <pt x="1018" y="-520" on="1"/>
        <pt x="926" y="-520" on="1"/>
        <pt x="852" y="-421" on="0"/>
        <pt x="739" y="-328" on="1"/>
        <pt x="630" y="-467" on="0"/>
        <pt x="492" y="-467" on="1"/>
        <pt x="398" y="-467" on="0"/>
        <pt x="289" y="-371" on="0"/>
        <pt x="289" y="-291" on="1"/>
        <pt x="289" y="-206" on="0"/>
        <pt x="394" y="-109" on="0"/>
        <pt x="492" y="-109" on="1"/>
        <pt x="562" y="-109" on="0"/>
        <pt x="643" y="-141" on="1"/>
        <pt x="655" y="-79" on="0"/>
        <pt x="659" y="-18" on="1"/>
        <pt x="864" y="-78" on="1"/>
        <pt x="836" y="-160" on="0"/>
        <pt x="801" y="-229" on="1"/>
        <pt x="869" y="-274" on="0"/>
        <pt x="926" y="-324" on="1"/>
        <pt x="926" y="700" on="1"/>
        <pt x="926" y="873" on="0"/>
        <pt x="818" y="1036" on="0"/>
        <pt x="707" y="1036" on="1"/>
        <pt x="505" y="1036" on="0"/>
        <pt x="487" y="819" on="1"/>
        <pt x="548" y="799" on="0"/>
        <pt x="700" y="700" on="0"/>
        <pt x="723" y="666" on="1"/>
        <pt x="723" y="641" on="1"/>
        <pt x="600" y="631" on="0"/>
        <pt x="516" y="536" on="0"/>
        <pt x="516" y="420" on="1"/>
        <pt x="516" y="258" on="1"/>
        <pt x="516" y="-20" on="0"/>
        <pt x="258" y="-20" on="1"/>
        <pt x="162" y="-20" on="0"/>
        <pt x="45" y="86" on="0"/>
        <pt x="45" y="176" on="1"/>
        <pt x="45" y="258" on="0"/>
        <pt x="142" y="355" on="0"/>
        <pt x="231" y="360" on="1"/>
      </contour>
      <contour>
        <pt x="164" y="170" on="1"/>
        <pt x="164" y="132" on="0"/>
        <pt x="212" y="86" on="0"/>
        <pt x="250" y="86" on="1"/>
        <pt x="285" y="86" on="0"/>
        <pt x="334" y="132" on="0"/>
        <pt x="334" y="170" on="1"/>
        <pt x="334" y="207" on="0"/>
        <pt x="285" y="252" on="0"/>
        <pt x="250" y="252" on="1"/>
        <pt x="212" y="252" on="0"/>
        <pt x="164" y="207" on="0"/>
      </contour>
    </TTGlyph>
    <TTGlyph name="uni0E0F" xMin="45" yMin="-520" xMax="1210" yMax="1147">
      <contour>
        <pt x="256" y="-231" on="1"/>
        <pt x="174" y="-231" on="0"/>
        <pt x="174" y="-307" on="1"/>
        <pt x="174" y="-349" on="0"/>
        <pt x="225" y="-385" on="0"/>
        <pt x="260" y="-385" on="1"/>
        <pt x="341" y="-385" on="0"/>
        <pt x="406" y="-289" on="1"/>
        <pt x="329" y="-231" on="0"/>
      </contour>
      <contour>
        <pt x="231" y="446" on="1"/>
        <pt x="231" y="540" on="0"/>
        <pt x="378" y="655" on="0"/>
        <pt x="508" y="668" on="1"/>
        <pt x="458" y="704" on="0"/>
        <pt x="268" y="768" on="0"/>
        <pt x="199" y="768" on="1"/>
        <pt x="208" y="956" on="0"/>
        <pt x="465" y="1147" on="0"/>
        <pt x="702" y="1147" on="1"/>
        <pt x="958" y="1147" on="0"/>
        <pt x="1210" y="928" on="0"/>
        <pt x="1210" y="696" on="1"/>
        <pt x="1210" y="-315" on="1"/>
        <pt x="1018" y="-520" on="1"/>
        <pt x="926" y="-520" on="1"/>
        <pt x="848" y="-407" on="0"/>
        <pt x="784" y="-346" on="1"/>
        <pt x="765" y="-383" on="0"/>
        <pt x="669" y="-486" on="0"/>
        <pt x="627" y="-518" on="1"/>
        <pt x="569" y="-444" on="0"/>
        <pt x="510" y="-381" on="1"/>
        <pt x="387" y="-487" on="0"/>
        <pt x="266" y="-487" on="1"/>
        <pt x="172" y="-487" on="0"/>
        <pt x="63" y="-391" on="0"/>
        <pt x="63" y="-311" on="1"/>
        <pt x="63" y="-230" on="0"/>
        <pt x="167" y="-129" on="0"/>
        <pt x="252" y="-129" on="1"/>
        <pt x="348" y="-129" on="0"/>
        <pt x="459" y="-188" on="1"/>
        <pt x="493" y="-107" on="0"/>
        <pt x="510" y="2" on="1"/>
        <pt x="715" y="-57" on="1"/>
        <pt x="672" y="-185" on="0"/>
        <pt x="596" y="-287" on="1"/>
        <pt x="655" y="-346" on="1"/>
        <pt x="718" y="-276" on="0"/>
        <pt x="758" y="-184" on="1"/>
        <pt x="840" y="-238" on="0"/>
        <pt x="926" y="-334" on="1"/>
        <pt x="926" y="700" on="1"/>
        <pt x="926" y="873" on="0"/>
        <pt x="818" y="1036" on="0"/>
        <pt x="707" y="1036" on="1"/>
        <pt x="505" y="1036" on="0"/>
        <pt x="487" y="819" on="1"/>
        <pt x="548" y="799" on="0"/>
        <pt x="700" y="700" on="0"/>
        <pt x="723" y="666" on="1"/>
        <pt x="723" y="641" on="1"/>
        <pt x="600" y="631" on="0"/>
        <pt x="516" y="536" on="0"/>
        <pt x="516" y="420" on="1"/>
        <pt x="516" y="258" on="1"/>
        <pt x="516" y="-20" on="0"/>
        <pt x="258" y="-20" on="1"/>
        <pt x="162" y="-20" on="0"/>
        <pt x="45" y="86" on="0"/>
        <pt x="45" y="176" on="1"/>
        <pt x="45" y="258" on="0"/>
        <pt x="142" y="355" on="0"/>
        <pt x="231" y="360" on="1"/>
      </contour>
      <contour>
        <pt x="164" y="170" on="1"/>
        <pt x="164" y="132" on="0"/>
        <pt x="212" y="86" on="0"/>
        <pt x="250" y="86" on="1"/>
        <pt x="285" y="86" on="0"/>
        <pt x="334" y="132" on="0"/>
        <pt x="334" y="170" on="1"/>
        <pt x="334" y="207" on="0"/>
        <pt x="285" y="252" on="0"/>
        <pt x="250" y="252" on="1"/>
        <pt x="212" y="252" on="0"/>
        <pt x="164" y="207" on="0"/>
      </contour>
    </TTGlyph>
    <TTGlyph name="uni0E10" xMin="84" yMin="-520" xMax="1157" yMax="1169">
      <contour>
        <pt x="385" y="186" on="1"/>
        <pt x="357" y="176" on="0"/>
        <pt x="322" y="176" on="1"/>
        <pt x="233" y="176" on="0"/>
        <pt x="125" y="278" on="0"/>
        <pt x="125" y="362" on="1"/>
        <pt x="125" y="450" on="0"/>
        <pt x="240" y="557" on="0"/>
        <pt x="334" y="557" on="1"/>
        <pt x="452" y="557" on="0"/>
        <pt x="598" y="419" on="0"/>
        <pt x="639" y="268" on="1"/>
        <pt x="662" y="186" on="0"/>
        <pt x="706" y="111" on="0"/>
        <pt x="741" y="111" on="1"/>
        <pt x="803" y="111" on="0"/>
        <pt x="803" y="221" on="1"/>
        <pt x="803" y="449" on="1"/>
        <pt x="803" y="563" on="0"/>
        <pt x="674" y="664" on="0"/>
        <pt x="528" y="664" on="1"/>
        <pt x="135" y="664" on="1"/>
        <pt x="135" y="774" on="1"/>
        <pt x="135" y="951" on="0"/>
        <pt x="301" y="1137" on="0"/>
        <pt x="485" y="1137" on="1"/>
        <pt x="529" y="1137" on="0"/>
        <pt x="674" y="1120" on="1"/>
        <pt x="818" y="1102" on="0"/>
        <pt x="889" y="1102" on="1"/>
        <pt x="949" y="1102" on="0"/>
        <pt x="1048" y="1137" on="0"/>
        <pt x="1077" y="1169" on="1"/>
        <pt x="1157" y="1110" on="1"/>
        <pt x="1032" y="893" on="0"/>
        <pt x="852" y="893" on="1"/>
        <pt x="803" y="893" on="0"/>
        <pt x="666" y="911" on="1"/>
        <pt x="529" y="928" on="0"/>
        <pt x="487" y="928" on="1"/>
        <pt x="372" y="928" on="0"/>
        <pt x="255" y="858" on="0"/>
        <pt x="246" y="774" on="1"/>
        <pt x="664" y="774" on="1"/>
        <pt x="871" y="774" on="0"/>
        <pt x="1087" y="617" on="0"/>
        <pt x="1087" y="459" on="1"/>
        <pt x="1087" y="354" on="1"/>
        <pt x="1087" y="172" on="0"/>
        <pt x="918" y="0" on="0"/>
        <pt x="737" y="0" on="1"/>
        <pt x="577" y="0" on="0"/>
        <pt x="422" y="82" on="0"/>
      </contour>
      <contour>
        <pt x="244" y="367" on="1"/>
        <pt x="244" y="329" on="0"/>
        <pt x="292" y="285" on="0"/>
        <pt x="330" y="285" on="1"/>
        <pt x="365" y="285" on="0"/>
        <pt x="414" y="329" on="0"/>
        <pt x="414" y="367" on="1"/>
        <pt x="414" y="405" on="0"/>
        <pt x="365" y="451" on="0"/>
        <pt x="330" y="451" on="1"/>
        <pt x="292" y="451" on="0"/>
        <pt x="244" y="405" on="0"/>
      </contour>
      <contour>
        <pt x="1008" y="-520" on="1"/>
        <pt x="895" y="-520" on="1"/>
        <pt x="868" y="-491" on="0"/>
        <pt x="768" y="-426" on="1"/>
        <pt x="685" y="-491" on="0"/>
        <pt x="637" y="-518" on="1"/>
        <pt x="556" y="-414" on="0"/>
        <pt x="510" y="-373" on="1"/>
        <pt x="389" y="-487" on="0"/>
        <pt x="272" y="-487" on="1"/>
        <pt x="190" y="-487" on="0"/>
        <pt x="84" y="-388" on="0"/>
        <pt x="84" y="-311" on="1"/>
        <pt x="84" y="-231" on="0"/>
        <pt x="185" y="-129" on="0"/>
        <pt x="266" y="-129" on="1"/>
        <pt x="346" y="-129" on="0"/>
        <pt x="449" y="-188" on="1"/>
        <pt x="476" y="-127" on="0"/>
        <pt x="494" y="-37" on="1"/>
        <pt x="690" y="-96" on="1"/>
        <pt x="656" y="-188" on="0"/>
        <pt x="580" y="-291" on="1"/>
        <pt x="598" y="-310" on="1"/>
        <pt x="655" y="-377" on="1"/>
        <pt x="734" y="-324" on="0"/>
        <pt x="758" y="-303" on="1"/>
        <pt x="784" y="-314" on="0"/>
        <pt x="920" y="-404" on="0"/>
        <pt x="956" y="-436" on="1"/>
        <pt x="956" y="-322" on="1"/>
        <pt x="946" y="-324" on="1"/>
        <pt x="938" y="-324" on="1"/>
        <pt x="870" y="-324" on="0"/>
        <pt x="786" y="-249" on="0"/>
        <pt x="786" y="-184" on="1"/>
        <pt x="786" y="-122" on="0"/>
        <pt x="876" y="-41" on="0"/>
        <pt x="956" y="-41" on="1"/>
        <pt x="1038" y="-41" on="0"/>
        <pt x="1130" y="-133" on="0"/>
        <pt x="1130" y="-215" on="1"/>
        <pt x="1130" y="-397" on="1"/>
      </contour>
      <contour>
        <pt x="958" y="-127" on="1"/>
        <pt x="926" y="-127" on="0"/>
        <pt x="889" y="-161" on="0"/>
        <pt x="889" y="-184" on="1"/>
        <pt x="889" y="-207" on="0"/>
        <pt x="926" y="-242" on="0"/>
        <pt x="958" y="-242" on="1"/>
        <pt x="990" y="-242" on="0"/>
        <pt x="1028" y="-207" on="0"/>
        <pt x="1028" y="-184" on="1"/>
        <pt x="1028" y="-161" on="0"/>
        <pt x="990" y="-127" on="0"/>
      </contour>
      <contour>
        <pt x="268" y="-231" on="1"/>
        <pt x="235" y="-231" on="0"/>
        <pt x="195" y="-271" on="0"/>
        <pt x="195" y="-307" on="1"/>
        <pt x="195" y="-342" on="0"/>
        <pt x="241" y="-385" on="0"/>
        <pt x="272" y="-385" on="1"/>
        <pt x="345" y="-385" on="0"/>
        <pt x="399" y="-289" on="1"/>
        <pt x="334" y="-231" on="0"/>
      </contour>
    </TTGlyph>
    <TTGlyph name="uni0E10.alt1" xMin="125" yMin="0" xMax="1157" yMax="1169">
      <contour>
        <pt x="385" y="186" on="1"/>
        <pt x="357" y="176" on="0"/>
        <pt x="322" y="176" on="1"/>
        <pt x="233" y="176" on="0"/>
        <pt x="125" y="278" on="0"/>
        <pt x="125" y="362" on="1"/>
        <pt x="125" y="450" on="0"/>
        <pt x="240" y="557" on="0"/>
        <pt x="334" y="557" on="1"/>
        <pt x="452" y="557" on="0"/>
        <pt x="598" y="419" on="0"/>
        <pt x="639" y="268" on="1"/>
        <pt x="662" y="186" on="0"/>
        <pt x="706" y="111" on="0"/>
        <pt x="741" y="111" on="1"/>
        <pt x="803" y="111" on="0"/>
        <pt x="803" y="221" on="1"/>
        <pt x="803" y="449" on="1"/>
        <pt x="803" y="563" on="0"/>
        <pt x="674" y="664" on="0"/>
        <pt x="528" y="664" on="1"/>
        <pt x="135" y="664" on="1"/>
        <pt x="135" y="774" on="1"/>
        <pt x="135" y="951" on="0"/>
        <pt x="301" y="1137" on="0"/>
        <pt x="485" y="1137" on="1"/>
        <pt x="529" y="1137" on="0"/>
        <pt x="674" y="1120" on="1"/>
        <pt x="818" y="1102" on="0"/>
        <pt x="889" y="1102" on="1"/>
        <pt x="949" y="1102" on="0"/>
        <pt x="1048" y="1137" on="0"/>
        <pt x="1077" y="1169" on="1"/>
        <pt x="1157" y="1110" on="1"/>
        <pt x="1032" y="893" on="0"/>
        <pt x="852" y="893" on="1"/>
        <pt x="803" y="893" on="0"/>
        <pt x="666" y="911" on="1"/>
        <pt x="529" y="928" on="0"/>
        <pt x="487" y="928" on="1"/>
        <pt x="372" y="928" on="0"/>
        <pt x="255" y="858" on="0"/>
        <pt x="246" y="774" on="1"/>
        <pt x="664" y="774" on="1"/>
        <pt x="871" y="774" on="0"/>
        <pt x="1087" y="617" on="0"/>
        <pt x="1087" y="459" on="1"/>
        <pt x="1087" y="354" on="1"/>
        <pt x="1087" y="172" on="0"/>
        <pt x="918" y="0" on="0"/>
        <pt x="737" y="0" on="1"/>
        <pt x="577" y="0" on="0"/>
        <pt x="422" y="82" on="0"/>
      </contour>
      <contour>
        <pt x="244" y="367" on="1"/>
        <pt x="244" y="329" on="0"/>
        <pt x="292" y="285" on="0"/>
        <pt x="330" y="285" on="1"/>
        <pt x="365" y="285" on="0"/>
        <pt x="414" y="329" on="0"/>
        <pt x="414" y="367" on="1"/>
        <pt x="414" y="405" on="0"/>
        <pt x="365" y="451" on="0"/>
        <pt x="330" y="451" on="1"/>
        <pt x="292" y="451" on="0"/>
        <pt x="244" y="405" on="0"/>
      </contour>
    </TTGlyph>
    <TTGlyph name="uni0E11" xMin="59" yMin="0" xMax="1534" yMax="1147">
      <contour>
        <pt x="502" y="506" on="1"/>
        <pt x="502" y="761" on="0"/>
        <pt x="625" y="829" on="1"/>
        <pt x="623" y="908" on="0"/>
        <pt x="575" y="999" on="0"/>
        <pt x="541" y="1016" on="1"/>
        <pt x="438" y="920" on="1"/>
        <pt x="309" y="1030" on="1"/>
        <pt x="201" y="998" on="0"/>
        <pt x="182" y="834" on="1"/>
        <pt x="225" y="889" on="0"/>
        <pt x="305" y="889" on="1"/>
        <pt x="382" y="889" on="0"/>
        <pt x="473" y="792" on="0"/>
        <pt x="473" y="711" on="1"/>
        <pt x="473" y="627" on="0"/>
        <pt x="367" y="526" on="0"/>
        <pt x="281" y="526" on="1"/>
        <pt x="180" y="526" on="0"/>
        <pt x="59" y="660" on="0"/>
        <pt x="59" y="770" on="1"/>
        <pt x="59" y="927" on="0"/>
        <pt x="208" y="1135" on="0"/>
        <pt x="332" y="1147" on="1"/>
        <pt x="438" y="1053" on="1"/>
        <pt x="547" y="1147" on="1"/>
        <pt x="709" y="1141" on="0"/>
        <pt x="896" y="967" on="0"/>
        <pt x="911" y="811" on="1"/>
        <pt x="843" y="777" on="0"/>
        <pt x="786" y="630" on="0"/>
        <pt x="786" y="479" on="1"/>
        <pt x="786" y="315" on="1"/>
        <pt x="1001" y="909" on="1"/>
        <pt x="1048" y="1039" on="0"/>
        <pt x="1187" y="1147" on="0"/>
        <pt x="1300" y="1147" on="1"/>
        <pt x="1424" y="1147" on="0"/>
        <pt x="1534" y="1007" on="0"/>
        <pt x="1534" y="844" on="1"/>
        <pt x="1534" y="205" on="1"/>
        <pt x="1341" y="0" on="1"/>
        <pt x="1249" y="0" on="1"/>
        <pt x="1249" y="905" on="1"/>
        <pt x="1249" y="958" on="0"/>
        <pt x="1228" y="999" on="0"/>
        <pt x="1208" y="999" on="1"/>
        <pt x="1185" y="999" on="0"/>
        <pt x="1148" y="941" on="0"/>
        <pt x="1126" y="881" on="1"/>
        <pt x="809" y="0" on="1"/>
        <pt x="502" y="0" on="1"/>
      </contour>
      <contour>
        <pt x="354" y="709" on="1"/>
        <pt x="354" y="743" on="0"/>
        <pt x="313" y="784" on="0"/>
        <pt x="279" y="784" on="1"/>
        <pt x="243" y="784" on="0"/>
        <pt x="205" y="743" on="0"/>
        <pt x="205" y="709" on="1"/>
        <pt x="205" y="674" on="0"/>
        <pt x="244" y="631" on="0"/>
        <pt x="279" y="631" on="1"/>
        <pt x="314" y="631" on="0"/>
        <pt x="354" y="674" on="0"/>
      </contour>
    </TTGlyph>
    <TTGlyph name="uni0E12" xMin="123" yMin="-20" xMax="1829" yMax="1147">
      <contour>
        <pt x="588" y="639" on="1"/>
        <pt x="588" y="601" on="0"/>
        <pt x="628" y="553" on="0"/>
        <pt x="659" y="553" on="1"/>
        <pt x="695" y="553" on="0"/>
        <pt x="731" y="601" on="0"/>
        <pt x="731" y="639" on="1"/>
        <pt x="731" y="679" on="0"/>
        <pt x="694" y="725" on="0"/>
        <pt x="659" y="725" on="1"/>
        <pt x="627" y="725" on="0"/>
        <pt x="588" y="679" on="0"/>
      </contour>
      <contour>
        <pt x="1278" y="279" on="1"/>
        <pt x="1278" y="128" on="0"/>
        <pt x="1133" y="-20" on="0"/>
        <pt x="979" y="-20" on="1"/>
        <pt x="857" y="-20" on="0"/>
        <pt x="725" y="88" on="0"/>
        <pt x="725" y="190" on="1"/>
        <pt x="725" y="288" on="0"/>
        <pt x="866" y="422" on="0"/>
        <pt x="993" y="440" on="1"/>
        <pt x="993" y="696" on="1"/>
        <pt x="993" y="806" on="0"/>
        <pt x="926" y="951" on="0"/>
        <pt x="848" y="989" on="1"/>
        <pt x="700" y="877" on="1"/>
        <pt x="549" y="989" on="1"/>
        <pt x="410" y="906" on="0"/>
        <pt x="410" y="735" on="1"/>
        <pt x="410" y="597" on="0"/>
        <pt x="446" y="470" on="1"/>
        <pt x="484" y="333" on="0"/>
        <pt x="492" y="199" on="1"/>
        <pt x="553" y="262" on="0"/>
        <pt x="649" y="392" on="0"/>
        <pt x="666" y="461" on="1"/>
        <pt x="657" y="459" on="1"/>
        <pt x="645" y="459" on="1"/>
        <pt x="568" y="459" on="0"/>
        <pt x="477" y="556" on="0"/>
        <pt x="477" y="637" on="1"/>
        <pt x="477" y="719" on="0"/>
        <pt x="575" y="821" on="0"/>
        <pt x="659" y="821" on="1"/>
        <pt x="745" y="821" on="0"/>
        <pt x="842" y="725" on="0"/>
        <pt x="842" y="637" on="1"/>
        <pt x="842" y="500" on="0"/>
        <pt x="628" y="162" on="0"/>
        <pt x="442" y="0" on="1"/>
        <pt x="209" y="0" on="1"/>
        <pt x="209" y="190" on="0"/>
        <pt x="166" y="393" on="1"/>
        <pt x="123" y="596" on="0"/>
        <pt x="123" y="729" on="1"/>
        <pt x="123" y="887" on="0"/>
        <pt x="344" y="1113" on="0"/>
        <pt x="535" y="1147" on="1"/>
        <pt x="700" y="1016" on="1"/>
        <pt x="862" y="1147" on="1"/>
        <pt x="1072" y="1122" on="0"/>
        <pt x="1278" y="908" on="0"/>
        <pt x="1278" y="696" on="1"/>
        <pt x="1278" y="438" on="1"/>
        <pt x="1352" y="421" on="0"/>
        <pt x="1504" y="317" on="0"/>
        <pt x="1544" y="256" on="1"/>
        <pt x="1544" y="922" on="1"/>
        <pt x="1737" y="1126" on="1"/>
        <pt x="1829" y="1126" on="1"/>
        <pt x="1829" y="0" on="1"/>
        <pt x="1565" y="0" on="1"/>
        <pt x="1512" y="122" on="0"/>
        <pt x="1358" y="293" on="0"/>
        <pt x="1278" y="315" on="1"/>
      </contour>
      <contour>
        <pt x="840" y="186" on="1"/>
        <pt x="840" y="143" on="0"/>
        <pt x="885" y="96" on="0"/>
        <pt x="918" y="96" on="1"/>
        <pt x="953" y="96" on="0"/>
        <pt x="993" y="145" on="0"/>
        <pt x="993" y="193" on="1"/>
        <pt x="993" y="322" on="1"/>
        <pt x="840" y="295" on="0"/>
      </contour>
    </TTGlyph>
    <TTGlyph name="uni0E13" xMin="133" yMin="-20" xMax="1880" yMax="1147">
      <contour>
        <pt x="1765" y="186" on="1"/>
        <pt x="1765" y="295" on="0"/>
        <pt x="1612" y="322" on="1"/>
        <pt x="1612" y="193" on="1"/>
        <pt x="1612" y="96" on="0"/>
        <pt x="1688" y="96" on="1"/>
        <pt x="1720" y="96" on="0"/>
        <pt x="1765" y="143" on="0"/>
      </contour>
      <contour>
        <pt x="451" y="360" on="1"/>
        <pt x="540" y="355" on="0"/>
        <pt x="637" y="258" on="0"/>
        <pt x="637" y="176" on="1"/>
        <pt x="637" y="86" on="0"/>
        <pt x="519" y="-20" on="0"/>
        <pt x="424" y="-20" on="1"/>
        <pt x="166" y="-20" on="0"/>
        <pt x="166" y="258" on="1"/>
        <pt x="166" y="393" on="1"/>
        <pt x="166" y="505" on="0"/>
        <pt x="297" y="616" on="0"/>
        <pt x="442" y="637" on="1"/>
        <pt x="395" y="673" on="0"/>
        <pt x="202" y="737" on="0"/>
        <pt x="133" y="737" on="1"/>
        <pt x="142" y="940" on="0"/>
        <pt x="379" y="1147" on="0"/>
        <pt x="598" y="1147" on="1"/>
        <pt x="824" y="1147" on="0"/>
        <pt x="1065" y="944" on="0"/>
        <pt x="1065" y="741" on="1"/>
        <pt x="1065" y="260" on="1"/>
        <pt x="1121" y="326" on="0"/>
        <pt x="1261" y="421" on="0"/>
        <pt x="1327" y="438" on="1"/>
        <pt x="1327" y="922" on="1"/>
        <pt x="1520" y="1126" on="1"/>
        <pt x="1612" y="1126" on="1"/>
        <pt x="1612" y="440" on="1"/>
        <pt x="1739" y="422" on="0"/>
        <pt x="1880" y="288" on="0"/>
        <pt x="1880" y="190" on="1"/>
        <pt x="1880" y="88" on="0"/>
        <pt x="1748" y="-20" on="0"/>
        <pt x="1626" y="-20" on="1"/>
        <pt x="1472" y="-20" on="0"/>
        <pt x="1327" y="128" on="0"/>
        <pt x="1327" y="279" on="1"/>
        <pt x="1327" y="315" on="1"/>
        <pt x="1168" y="274" on="0"/>
        <pt x="1044" y="0" on="1"/>
        <pt x="780" y="0" on="1"/>
        <pt x="780" y="741" on="1"/>
        <pt x="780" y="886" on="0"/>
        <pt x="689" y="1036" on="0"/>
        <pt x="600" y="1036" on="1"/>
        <pt x="436" y="1036" on="0"/>
        <pt x="422" y="788" on="1"/>
        <pt x="482" y="768" on="0"/>
        <pt x="634" y="670" on="0"/>
        <pt x="657" y="635" on="1"/>
        <pt x="657" y="610" on="1"/>
        <pt x="556" y="602" on="0"/>
        <pt x="451" y="518" on="0"/>
        <pt x="451" y="446" on="1"/>
      </contour>
      <contour>
        <pt x="518" y="170" on="1"/>
        <pt x="518" y="207" on="0"/>
        <pt x="470" y="252" on="0"/>
        <pt x="432" y="252" on="1"/>
        <pt x="397" y="252" on="0"/>
        <pt x="348" y="207" on="0"/>
        <pt x="348" y="170" on="1"/>
        <pt x="348" y="132" on="0"/>
        <pt x="397" y="86" on="0"/>
        <pt x="432" y="86" on="1"/>
        <pt x="470" y="86" on="0"/>
        <pt x="518" y="132" on="0"/>
      </contour>
    </TTGlyph>
    <TTGlyph name="uni0E14" xMin="123" yMin="0" xMax="1253" yMax="1147">
      <contour>
        <pt x="686" y="408" on="1"/>
        <pt x="675" y="406" on="1"/>
        <pt x="664" y="406" on="1"/>
        <pt x="587" y="406" on="0"/>
        <pt x="496" y="503" on="0"/>
        <pt x="496" y="584" on="1"/>
        <pt x="496" y="666" on="0"/>
        <pt x="601" y="768" on="0"/>
        <pt x="688" y="768" on="1"/>
        <pt x="776" y="768" on="0"/>
        <pt x="883" y="657" on="0"/>
        <pt x="883" y="561" on="1"/>
        <pt x="883" y="416" on="0"/>
        <pt x="697" y="162" on="0"/>
        <pt x="461" y="0" on="1"/>
        <pt x="207" y="0" on="1"/>
        <pt x="207" y="194" on="0"/>
        <pt x="165" y="393" on="1"/>
        <pt x="141" y="505" on="0"/>
        <pt x="123" y="652" on="0"/>
        <pt x="123" y="729" on="1"/>
        <pt x="123" y="918" on="0"/>
        <pt x="434" y="1147" on="0"/>
        <pt x="698" y="1147" on="1"/>
        <pt x="895" y="1147" on="0"/>
        <pt x="1139" y="1051" on="0"/>
        <pt x="1253" y="861" on="0"/>
        <pt x="1253" y="696" on="1"/>
        <pt x="1253" y="205" on="1"/>
        <pt x="1061" y="0" on="1"/>
        <pt x="969" y="0" on="1"/>
        <pt x="969" y="696" on="1"/>
        <pt x="969" y="867" on="0"/>
        <pt x="831" y="1036" on="0"/>
        <pt x="690" y="1036" on="1"/>
        <pt x="551" y="1036" on="0"/>
        <pt x="408" y="881" on="0"/>
        <pt x="408" y="735" on="1"/>
        <pt x="408" y="584" on="0"/>
        <pt x="444" y="442" on="1"/>
        <pt x="481" y="293" on="0"/>
        <pt x="489" y="158" on="1"/>
        <pt x="579" y="223" on="0"/>
        <pt x="674" y="357" on="0"/>
      </contour>
      <contour>
        <pt x="606" y="586" on="1"/>
        <pt x="606" y="548" on="0"/>
        <pt x="653" y="502" on="0"/>
        <pt x="690" y="502" on="1"/>
        <pt x="730" y="502" on="0"/>
        <pt x="772" y="548" on="0"/>
        <pt x="772" y="586" on="1"/>
        <pt x="772" y="626" on="0"/>
        <pt x="728" y="672" on="0"/>
        <pt x="690" y="672" on="1"/>
        <pt x="652" y="672" on="0"/>
        <pt x="606" y="626" on="0"/>
      </contour>
    </TTGlyph>
    <TTGlyph name="uni0E15" xMin="123" yMin="0" xMax="1255" yMax="1147">
      <contour>
        <pt x="608" y="586" on="1"/>
        <pt x="608" y="548" on="0"/>
        <pt x="655" y="502" on="0"/>
        <pt x="692" y="502" on="1"/>
        <pt x="732" y="502" on="0"/>
        <pt x="774" y="548" on="0"/>
        <pt x="774" y="586" on="1"/>
        <pt x="774" y="626" on="0"/>
        <pt x="730" y="672" on="0"/>
        <pt x="692" y="672" on="1"/>
        <pt x="654" y="672" on="0"/>
        <pt x="608" y="626" on="0"/>
      </contour>
      <contour>
        <pt x="209" y="0" on="1"/>
        <pt x="209" y="190" on="0"/>
        <pt x="166" y="393" on="1"/>
        <pt x="123" y="596" on="0"/>
        <pt x="123" y="729" on="1"/>
        <pt x="123" y="885" on="0"/>
        <pt x="360" y="1112" on="0"/>
        <pt x="553" y="1147" on="1"/>
        <pt x="700" y="1020" on="1"/>
        <pt x="848" y="1147" on="1"/>
        <pt x="1052" y="1121" on="0"/>
        <pt x="1255" y="902" on="0"/>
        <pt x="1255" y="696" on="1"/>
        <pt x="1255" y="205" on="1"/>
        <pt x="1063" y="0" on="1"/>
        <pt x="971" y="0" on="1"/>
        <pt x="971" y="696" on="1"/>
        <pt x="971" y="919" on="0"/>
        <pt x="846" y="991" on="1"/>
        <pt x="700" y="866" on="1"/>
        <pt x="553" y="993" on="1"/>
        <pt x="491" y="956" on="0"/>
        <pt x="410" y="827" on="0"/>
        <pt x="410" y="735" on="1"/>
        <pt x="410" y="584" on="0"/>
        <pt x="446" y="442" on="1"/>
        <pt x="484" y="288" on="0"/>
        <pt x="492" y="158" on="1"/>
        <pt x="581" y="223" on="0"/>
        <pt x="676" y="357" on="0"/>
        <pt x="688" y="408" on="1"/>
        <pt x="677" y="406" on="1"/>
        <pt x="666" y="406" on="1"/>
        <pt x="589" y="406" on="0"/>
        <pt x="498" y="503" on="0"/>
        <pt x="498" y="584" on="1"/>
        <pt x="498" y="666" on="0"/>
        <pt x="603" y="768" on="0"/>
        <pt x="690" y="768" on="1"/>
        <pt x="778" y="768" on="0"/>
        <pt x="885" y="657" on="0"/>
        <pt x="885" y="561" on="1"/>
        <pt x="885" y="416" on="0"/>
        <pt x="699" y="162" on="0"/>
        <pt x="463" y="0" on="1"/>
      </contour>
    </TTGlyph>
    <TTGlyph name="uni0E16" xMin="133" yMin="-20" xMax="1145" yMax="1147">
      <contour>
        <pt x="451" y="360" on="1"/>
        <pt x="540" y="355" on="0"/>
        <pt x="637" y="258" on="0"/>
        <pt x="637" y="176" on="1"/>
        <pt x="637" y="86" on="0"/>
        <pt x="519" y="-20" on="0"/>
        <pt x="424" y="-20" on="1"/>
        <pt x="166" y="-20" on="0"/>
        <pt x="166" y="258" on="1"/>
        <pt x="166" y="393" on="1"/>
        <pt x="166" y="505" on="0"/>
        <pt x="297" y="616" on="0"/>
        <pt x="442" y="637" on="1"/>
        <pt x="395" y="673" on="0"/>
        <pt x="202" y="737" on="0"/>
        <pt x="133" y="737" on="1"/>
        <pt x="142" y="939" on="0"/>
        <pt x="397" y="1147" on="0"/>
        <pt x="637" y="1147" on="1"/>
        <pt x="893" y="1147" on="0"/>
        <pt x="1145" y="928" on="0"/>
        <pt x="1145" y="696" on="1"/>
        <pt x="1145" y="205" on="1"/>
        <pt x="952" y="0" on="1"/>
        <pt x="860" y="0" on="1"/>
        <pt x="860" y="700" on="1"/>
        <pt x="860" y="872" on="0"/>
        <pt x="753" y="1036" on="0"/>
        <pt x="641" y="1036" on="1"/>
        <pt x="440" y="1036" on="0"/>
        <pt x="422" y="788" on="1"/>
        <pt x="482" y="768" on="0"/>
        <pt x="634" y="670" on="0"/>
        <pt x="657" y="635" on="1"/>
        <pt x="657" y="610" on="1"/>
        <pt x="556" y="602" on="0"/>
        <pt x="451" y="518" on="0"/>
        <pt x="451" y="446" on="1"/>
      </contour>
      <contour>
        <pt x="518" y="170" on="1"/>
        <pt x="518" y="207" on="0"/>
        <pt x="470" y="252" on="0"/>
        <pt x="432" y="252" on="1"/>
        <pt x="397" y="252" on="0"/>
        <pt x="348" y="207" on="0"/>
        <pt x="348" y="170" on="1"/>
        <pt x="348" y="132" on="0"/>
        <pt x="397" y="86" on="0"/>
        <pt x="432" y="86" on="1"/>
        <pt x="470" y="86" on="0"/>
        <pt x="518" y="132" on="0"/>
      </contour>
    </TTGlyph>
    <TTGlyph name="uni0E17" xMin="45" yMin="0" xMax="1264" yMax="1147">
      <contour>
        <pt x="1026" y="1147" on="1"/>
        <pt x="1152" y="1147" on="0"/>
        <pt x="1264" y="1005" on="0"/>
        <pt x="1264" y="844" on="1"/>
        <pt x="1264" y="205" on="1"/>
        <pt x="1071" y="0" on="1"/>
        <pt x="979" y="0" on="1"/>
        <pt x="979" y="905" on="1"/>
        <pt x="979" y="956" on="0"/>
        <pt x="963" y="999" on="0"/>
        <pt x="940" y="999" on="1"/>
        <pt x="918" y="999" on="0"/>
        <pt x="879" y="925" on="0"/>
        <pt x="850" y="842" on="1"/>
        <pt x="555" y="0" on="1"/>
        <pt x="231" y="0" on="1"/>
        <pt x="231" y="762" on="1"/>
        <pt x="147" y="764" on="0"/>
        <pt x="45" y="863" on="0"/>
        <pt x="45" y="946" on="1"/>
        <pt x="45" y="1035" on="0"/>
        <pt x="161" y="1143" on="0"/>
        <pt x="258" y="1143" on="1"/>
        <pt x="516" y="1143" on="0"/>
        <pt x="516" y="864" on="1"/>
        <pt x="516" y="270" on="1"/>
        <pt x="721" y="858" on="1"/>
        <pt x="777" y="1022" on="0"/>
        <pt x="914" y="1147" on="0"/>
      </contour>
      <contour>
        <pt x="164" y="952" on="1"/>
        <pt x="164" y="915" on="0"/>
        <pt x="212" y="870" on="0"/>
        <pt x="250" y="870" on="1"/>
        <pt x="285" y="870" on="0"/>
        <pt x="334" y="915" on="0"/>
        <pt x="334" y="952" on="1"/>
        <pt x="334" y="991" on="0"/>
        <pt x="285" y="1036" on="0"/>
        <pt x="250" y="1036" on="1"/>
        <pt x="212" y="1036" on="0"/>
        <pt x="164" y="991" on="0"/>
      </contour>
    </TTGlyph>
    <TTGlyph name="uni0E18" xMin="139" yMin="0" xMax="1133" yMax="1169">
      <contour>
        <pt x="158" y="354" on="1"/>
        <pt x="350" y="559" on="1"/>
        <pt x="442" y="559" on="1"/>
        <pt x="442" y="111" on="1"/>
        <pt x="532" y="111" on="1"/>
        <pt x="685" y="111" on="0"/>
        <pt x="807" y="225" on="0"/>
        <pt x="807" y="352" on="1"/>
        <pt x="807" y="422" on="1"/>
        <pt x="807" y="552" on="0"/>
        <pt x="681" y="664" on="0"/>
        <pt x="532" y="664" on="1"/>
        <pt x="139" y="664" on="1"/>
        <pt x="139" y="774" on="1"/>
        <pt x="139" y="951" on="0"/>
        <pt x="305" y="1137" on="0"/>
        <pt x="489" y="1137" on="1"/>
        <pt x="534" y="1137" on="0"/>
        <pt x="663" y="1120" on="1"/>
        <pt x="792" y="1102" on="0"/>
        <pt x="864" y="1102" on="1"/>
        <pt x="924" y="1102" on="0"/>
        <pt x="1024" y="1137" on="0"/>
        <pt x="1053" y="1169" on="1"/>
        <pt x="1133" y="1110" on="1"/>
        <pt x="1009" y="893" on="0"/>
        <pt x="827" y="893" on="1"/>
        <pt x="778" y="893" on="0"/>
        <pt x="656" y="911" on="1"/>
        <pt x="533" y="928" on="0"/>
        <pt x="492" y="928" on="1"/>
        <pt x="376" y="928" on="0"/>
        <pt x="259" y="858" on="0"/>
        <pt x="250" y="774" on="1"/>
        <pt x="668" y="774" on="1"/>
        <pt x="873" y="774" on="0"/>
        <pt x="1092" y="616" on="0"/>
        <pt x="1092" y="459" on="1"/>
        <pt x="1092" y="354" on="1"/>
        <pt x="1092" y="172" on="0"/>
        <pt x="922" y="0" on="0"/>
        <pt x="741" y="0" on="1"/>
        <pt x="158" y="0" on="1"/>
      </contour>
    </TTGlyph>
    <TTGlyph name="uni0E19" xMin="45" yMin="-20" xMax="1352" yMax="1143">
      <contour>
        <pt x="1083" y="440" on="1"/>
        <pt x="1209" y="422" on="0"/>
        <pt x="1352" y="288" on="0"/>
        <pt x="1352" y="190" on="1"/>
        <pt x="1352" y="88" on="0"/>
        <pt x="1220" y="-20" on="0"/>
        <pt x="1098" y="-20" on="1"/>
        <pt x="944" y="-20" on="0"/>
        <pt x="799" y="128" on="0"/>
        <pt x="799" y="279" on="1"/>
        <pt x="799" y="315" on="1"/>
        <pt x="640" y="274" on="0"/>
        <pt x="516" y="0" on="1"/>
        <pt x="231" y="0" on="1"/>
        <pt x="231" y="762" on="1"/>
        <pt x="147" y="764" on="0"/>
        <pt x="45" y="863" on="0"/>
        <pt x="45" y="946" on="1"/>
        <pt x="45" y="1035" on="0"/>
        <pt x="161" y="1143" on="0"/>
        <pt x="258" y="1143" on="1"/>
        <pt x="516" y="1143" on="0"/>
        <pt x="516" y="864" on="1"/>
        <pt x="516" y="225" on="1"/>
        <pt x="562" y="297" on="0"/>
        <pt x="730" y="423" on="0"/>
        <pt x="799" y="440" on="1"/>
        <pt x="799" y="922" on="1"/>
        <pt x="991" y="1126" on="1"/>
        <pt x="1083" y="1126" on="1"/>
      </contour>
      <contour>
        <pt x="164" y="952" on="1"/>
        <pt x="164" y="915" on="0"/>
        <pt x="212" y="870" on="0"/>
        <pt x="250" y="870" on="1"/>
        <pt x="285" y="870" on="0"/>
        <pt x="334" y="915" on="0"/>
        <pt x="334" y="952" on="1"/>
        <pt x="334" y="991" on="0"/>
        <pt x="285" y="1036" on="0"/>
        <pt x="250" y="1036" on="1"/>
        <pt x="212" y="1036" on="0"/>
        <pt x="164" y="991" on="0"/>
      </contour>
      <contour>
        <pt x="1237" y="186" on="1"/>
        <pt x="1237" y="296" on="0"/>
        <pt x="1083" y="322" on="1"/>
        <pt x="1083" y="193" on="1"/>
        <pt x="1083" y="145" on="0"/>
        <pt x="1124" y="96" on="0"/>
        <pt x="1159" y="96" on="1"/>
        <pt x="1191" y="96" on="0"/>
        <pt x="1237" y="143" on="0"/>
      </contour>
    </TTGlyph>
    <TTGlyph name="uni0E1A" xMin="45" yMin="0" xMax="1151" yMax="1143">
      <contour>
        <pt x="231" y="762" on="1"/>
        <pt x="147" y="764" on="0"/>
        <pt x="45" y="863" on="0"/>
        <pt x="45" y="946" on="1"/>
        <pt x="45" y="1035" on="0"/>
        <pt x="161" y="1143" on="0"/>
        <pt x="258" y="1143" on="1"/>
        <pt x="516" y="1143" on="0"/>
        <pt x="516" y="864" on="1"/>
        <pt x="516" y="106" on="1"/>
        <pt x="653" y="106" on="1"/>
        <pt x="768" y="106" on="0"/>
        <pt x="866" y="224" on="0"/>
        <pt x="866" y="362" on="1"/>
        <pt x="866" y="922" on="1"/>
        <pt x="1059" y="1126" on="1"/>
        <pt x="1151" y="1126" on="1"/>
        <pt x="1151" y="365" on="1"/>
        <pt x="1151" y="189" on="0"/>
        <pt x="952" y="0" on="0"/>
        <pt x="766" y="0" on="1"/>
        <pt x="92" y="0" on="1"/>
        <pt x="92" y="106" on="1"/>
        <pt x="231" y="106" on="1"/>
      </contour>
      <contour>
        <pt x="164" y="952" on="1"/>
        <pt x="164" y="915" on="0"/>
        <pt x="212" y="870" on="0"/>
        <pt x="250" y="870" on="1"/>
        <pt x="285" y="870" on="0"/>
        <pt x="334" y="915" on="0"/>
        <pt x="334" y="952" on="1"/>
        <pt x="334" y="991" on="0"/>
        <pt x="285" y="1036" on="0"/>
        <pt x="250" y="1036" on="1"/>
        <pt x="212" y="1036" on="0"/>
        <pt x="164" y="991" on="0"/>
      </contour>
    </TTGlyph>
    <TTGlyph name="uni0E1B" xMin="45" yMin="0" xMax="1151" yMax="1690">
      <contour>
        <pt x="231" y="762" on="1"/>
        <pt x="147" y="764" on="0"/>
        <pt x="45" y="863" on="0"/>
        <pt x="45" y="946" on="1"/>
        <pt x="45" y="1035" on="0"/>
        <pt x="161" y="1143" on="0"/>
        <pt x="258" y="1143" on="1"/>
        <pt x="516" y="1143" on="0"/>
        <pt x="516" y="864" on="1"/>
        <pt x="516" y="106" on="1"/>
        <pt x="653" y="106" on="1"/>
        <pt x="768" y="106" on="0"/>
        <pt x="866" y="224" on="0"/>
        <pt x="866" y="362" on="1"/>
        <pt x="866" y="1485" on="1"/>
        <pt x="1059" y="1690" on="1"/>
        <pt x="1151" y="1690" on="1"/>
        <pt x="1151" y="365" on="1"/>
        <pt x="1151" y="189" on="0"/>
        <pt x="952" y="0" on="0"/>
        <pt x="766" y="0" on="1"/>
        <pt x="92" y="0" on="1"/>
        <pt x="92" y="106" on="1"/>
        <pt x="231" y="106" on="1"/>
      </contour>
      <contour>
        <pt x="164" y="952" on="1"/>
        <pt x="164" y="915" on="0"/>
        <pt x="212" y="870" on="0"/>
        <pt x="250" y="870" on="1"/>
        <pt x="285" y="870" on="0"/>
        <pt x="334" y="915" on="0"/>
        <pt x="334" y="952" on="1"/>
        <pt x="334" y="991" on="0"/>
        <pt x="285" y="1036" on="0"/>
        <pt x="250" y="1036" on="1"/>
        <pt x="212" y="1036" on="0"/>
        <pt x="164" y="991" on="0"/>
      </contour>
    </TTGlyph>
    <TTGlyph name="uni0E1C" xMin="174" yMin="0" xMax="1260" yMax="1143">
      <contour>
        <pt x="459" y="289" on="1"/>
        <pt x="480" y="341" on="0"/>
        <pt x="536" y="429" on="0"/>
        <pt x="595" y="523" on="0"/>
        <pt x="649" y="634" on="0"/>
        <pt x="668" y="709" on="1"/>
        <pt x="766" y="709" on="1"/>
        <pt x="783" y="637" on="0"/>
        <pt x="837" y="526" on="0"/>
        <pt x="897" y="431" on="0"/>
        <pt x="954" y="341" on="0"/>
        <pt x="975" y="289" on="1"/>
        <pt x="975" y="922" on="1"/>
        <pt x="1167" y="1126" on="1"/>
        <pt x="1260" y="1126" on="1"/>
        <pt x="1260" y="205" on="1"/>
        <pt x="1067" y="0" on="1"/>
        <pt x="975" y="0" on="1"/>
        <pt x="957" y="91" on="0"/>
        <pt x="891" y="230" on="0"/>
        <pt x="815" y="349" on="0"/>
        <pt x="741" y="461" on="0"/>
        <pt x="717" y="526" on="1"/>
        <pt x="690" y="454" on="0"/>
        <pt x="637" y="374" on="1"/>
        <pt x="571" y="276" on="0"/>
        <pt x="519" y="180" on="0"/>
        <pt x="475" y="67" on="0"/>
        <pt x="459" y="0" on="1"/>
        <pt x="174" y="0" on="1"/>
        <pt x="174" y="864" on="1"/>
        <pt x="174" y="1143" on="0"/>
        <pt x="432" y="1143" on="1"/>
        <pt x="529" y="1143" on="0"/>
        <pt x="645" y="1036" on="0"/>
        <pt x="645" y="946" on="1"/>
        <pt x="645" y="862" on="0"/>
        <pt x="543" y="764" on="0"/>
        <pt x="459" y="762" on="1"/>
      </contour>
      <contour>
        <pt x="526" y="952" on="1"/>
        <pt x="526" y="991" on="0"/>
        <pt x="479" y="1036" on="0"/>
        <pt x="440" y="1036" on="1"/>
        <pt x="405" y="1036" on="0"/>
        <pt x="356" y="991" on="0"/>
        <pt x="356" y="952" on="1"/>
        <pt x="356" y="915" on="0"/>
        <pt x="405" y="870" on="0"/>
        <pt x="440" y="870" on="1"/>
        <pt x="479" y="870" on="0"/>
        <pt x="526" y="915" on="0"/>
      </contour>
    </TTGlyph>
    <TTGlyph name="uni0E1D" xMin="174" yMin="0" xMax="1260" yMax="1690">
      <contour>
        <pt x="459" y="289" on="1"/>
        <pt x="480" y="341" on="0"/>
        <pt x="536" y="429" on="0"/>
        <pt x="595" y="523" on="0"/>
        <pt x="649" y="634" on="0"/>
        <pt x="668" y="709" on="1"/>
        <pt x="766" y="709" on="1"/>
        <pt x="783" y="637" on="0"/>
        <pt x="837" y="526" on="0"/>
        <pt x="897" y="431" on="0"/>
        <pt x="954" y="341" on="0"/>
        <pt x="975" y="289" on="1"/>
        <pt x="975" y="1485" on="1"/>
        <pt x="1167" y="1690" on="1"/>
        <pt x="1260" y="1690" on="1"/>
        <pt x="1260" y="205" on="1"/>
        <pt x="1067" y="0" on="1"/>
        <pt x="975" y="0" on="1"/>
        <pt x="957" y="91" on="0"/>
        <pt x="891" y="230" on="0"/>
        <pt x="815" y="349" on="0"/>
        <pt x="741" y="461" on="0"/>
        <pt x="717" y="526" on="1"/>
        <pt x="690" y="454" on="0"/>
        <pt x="637" y="374" on="1"/>
        <pt x="571" y="276" on="0"/>
        <pt x="519" y="180" on="0"/>
        <pt x="475" y="67" on="0"/>
        <pt x="459" y="0" on="1"/>
        <pt x="174" y="0" on="1"/>
        <pt x="174" y="864" on="1"/>
        <pt x="174" y="1143" on="0"/>
        <pt x="432" y="1143" on="1"/>
        <pt x="529" y="1143" on="0"/>
        <pt x="645" y="1036" on="0"/>
        <pt x="645" y="946" on="1"/>
        <pt x="645" y="862" on="0"/>
        <pt x="543" y="764" on="0"/>
        <pt x="459" y="762" on="1"/>
      </contour>
      <contour>
        <pt x="526" y="952" on="1"/>
        <pt x="526" y="991" on="0"/>
        <pt x="479" y="1036" on="0"/>
        <pt x="440" y="1036" on="1"/>
        <pt x="405" y="1036" on="0"/>
        <pt x="356" y="991" on="0"/>
        <pt x="356" y="952" on="1"/>
        <pt x="356" y="915" on="0"/>
        <pt x="405" y="870" on="0"/>
        <pt x="440" y="870" on="1"/>
        <pt x="479" y="870" on="0"/>
        <pt x="526" y="915" on="0"/>
      </contour>
    </TTGlyph>
    <TTGlyph name="uni0E1E" xMin="45" yMin="0" xMax="1317" yMax="1143">
      <contour>
        <pt x="231" y="762" on="1"/>
        <pt x="147" y="764" on="0"/>
        <pt x="45" y="863" on="0"/>
        <pt x="45" y="946" on="1"/>
        <pt x="45" y="1035" on="0"/>
        <pt x="161" y="1143" on="0"/>
        <pt x="258" y="1143" on="1"/>
        <pt x="516" y="1143" on="0"/>
        <pt x="516" y="864" on="1"/>
        <pt x="516" y="399" on="1"/>
        <pt x="725" y="1116" on="1"/>
        <pt x="823" y="1116" on="1"/>
        <pt x="1032" y="399" on="1"/>
        <pt x="1032" y="922" on="1"/>
        <pt x="1225" y="1126" on="1"/>
        <pt x="1317" y="1126" on="1"/>
        <pt x="1317" y="205" on="1"/>
        <pt x="1124" y="0" on="1"/>
        <pt x="1032" y="0" on="1"/>
        <pt x="774" y="881" on="1"/>
        <pt x="516" y="0" on="1"/>
        <pt x="231" y="0" on="1"/>
      </contour>
      <contour>
        <pt x="164" y="952" on="1"/>
        <pt x="164" y="915" on="0"/>
        <pt x="212" y="870" on="0"/>
        <pt x="250" y="870" on="1"/>
        <pt x="285" y="870" on="0"/>
        <pt x="334" y="915" on="0"/>
        <pt x="334" y="952" on="1"/>
        <pt x="334" y="991" on="0"/>
        <pt x="285" y="1036" on="0"/>
        <pt x="250" y="1036" on="1"/>
        <pt x="212" y="1036" on="0"/>
        <pt x="164" y="991" on="0"/>
      </contour>
    </TTGlyph>
    <TTGlyph name="uni0E1F" xMin="45" yMin="0" xMax="1317" yMax="1690">
      <contour>
        <pt x="231" y="762" on="1"/>
        <pt x="147" y="764" on="0"/>
        <pt x="45" y="863" on="0"/>
        <pt x="45" y="946" on="1"/>
        <pt x="45" y="1035" on="0"/>
        <pt x="161" y="1143" on="0"/>
        <pt x="258" y="1143" on="1"/>
        <pt x="516" y="1143" on="0"/>
        <pt x="516" y="864" on="1"/>
        <pt x="516" y="399" on="1"/>
        <pt x="725" y="1116" on="1"/>
        <pt x="823" y="1116" on="1"/>
        <pt x="1032" y="399" on="1"/>
        <pt x="1032" y="1485" on="1"/>
        <pt x="1225" y="1690" on="1"/>
        <pt x="1317" y="1690" on="1"/>
        <pt x="1317" y="205" on="1"/>
        <pt x="1124" y="0" on="1"/>
        <pt x="1032" y="0" on="1"/>
        <pt x="774" y="881" on="1"/>
        <pt x="516" y="0" on="1"/>
        <pt x="231" y="0" on="1"/>
      </contour>
      <contour>
        <pt x="164" y="952" on="1"/>
        <pt x="164" y="915" on="0"/>
        <pt x="212" y="870" on="0"/>
        <pt x="250" y="870" on="1"/>
        <pt x="285" y="870" on="0"/>
        <pt x="334" y="915" on="0"/>
        <pt x="334" y="952" on="1"/>
        <pt x="334" y="991" on="0"/>
        <pt x="285" y="1036" on="0"/>
        <pt x="250" y="1036" on="1"/>
        <pt x="212" y="1036" on="0"/>
        <pt x="164" y="991" on="0"/>
      </contour>
    </TTGlyph>
    <TTGlyph name="uni0E20" xMin="45" yMin="-20" xMax="1210" yMax="1147">
      <contour>
        <pt x="516" y="258" on="1"/>
        <pt x="516" y="-20" on="0"/>
        <pt x="258" y="-20" on="1"/>
        <pt x="162" y="-20" on="0"/>
        <pt x="45" y="86" on="0"/>
        <pt x="45" y="176" on="1"/>
        <pt x="45" y="258" on="0"/>
        <pt x="142" y="355" on="0"/>
        <pt x="231" y="360" on="1"/>
        <pt x="231" y="424" on="1"/>
        <pt x="231" y="597" on="0"/>
        <pt x="508" y="637" on="1"/>
        <pt x="458" y="673" on="0"/>
        <pt x="268" y="737" on="0"/>
        <pt x="199" y="737" on="1"/>
        <pt x="208" y="938" on="0"/>
        <pt x="461" y="1147" on="0"/>
        <pt x="702" y="1147" on="1"/>
        <pt x="958" y="1147" on="0"/>
        <pt x="1210" y="928" on="0"/>
        <pt x="1210" y="696" on="1"/>
        <pt x="1210" y="205" on="1"/>
        <pt x="1018" y="0" on="1"/>
        <pt x="926" y="0" on="1"/>
        <pt x="926" y="700" on="1"/>
        <pt x="926" y="873" on="0"/>
        <pt x="818" y="1036" on="0"/>
        <pt x="707" y="1036" on="1"/>
        <pt x="505" y="1036" on="0"/>
        <pt x="487" y="788" on="1"/>
        <pt x="548" y="768" on="0"/>
        <pt x="700" y="669" on="0"/>
        <pt x="723" y="635" on="1"/>
        <pt x="723" y="610" on="1"/>
        <pt x="602" y="600" on="0"/>
        <pt x="516" y="508" on="0"/>
        <pt x="516" y="389" on="1"/>
      </contour>
      <contour>
        <pt x="164" y="170" on="1"/>
        <pt x="164" y="132" on="0"/>
        <pt x="212" y="86" on="0"/>
        <pt x="250" y="86" on="1"/>
        <pt x="285" y="86" on="0"/>
        <pt x="334" y="132" on="0"/>
        <pt x="334" y="170" on="1"/>
        <pt x="334" y="207" on="0"/>
        <pt x="285" y="252" on="0"/>
        <pt x="250" y="252" on="1"/>
        <pt x="212" y="252" on="0"/>
        <pt x="164" y="207" on="0"/>
      </contour>
    </TTGlyph>
    <TTGlyph name="uni0E21" xMin="59" yMin="-20" xMax="1186" yMax="1143">
      <contour>
        <pt x="612" y="279" on="1"/>
        <pt x="612" y="128" on="0"/>
        <pt x="467" y="-20" on="0"/>
        <pt x="313" y="-20" on="1"/>
        <pt x="192" y="-20" on="0"/>
        <pt x="59" y="88" on="0"/>
        <pt x="59" y="190" on="1"/>
        <pt x="59" y="288" on="0"/>
        <pt x="202" y="422" on="0"/>
        <pt x="328" y="440" on="1"/>
        <pt x="328" y="762" on="1"/>
        <pt x="243" y="764" on="0"/>
        <pt x="141" y="862" on="0"/>
        <pt x="141" y="946" on="1"/>
        <pt x="141" y="1035" on="0"/>
        <pt x="257" y="1143" on="0"/>
        <pt x="354" y="1143" on="1"/>
        <pt x="612" y="1143" on="0"/>
        <pt x="612" y="864" on="1"/>
        <pt x="612" y="438" on="1"/>
        <pt x="687" y="422" on="0"/>
        <pt x="843" y="327" on="0"/>
        <pt x="901" y="256" on="1"/>
        <pt x="901" y="922" on="1"/>
        <pt x="1094" y="1126" on="1"/>
        <pt x="1186" y="1126" on="1"/>
        <pt x="1186" y="0" on="1"/>
        <pt x="922" y="0" on="1"/>
        <pt x="860" y="132" on="0"/>
        <pt x="690" y="308" on="0"/>
        <pt x="612" y="328" on="1"/>
      </contour>
      <contour>
        <pt x="260" y="952" on="1"/>
        <pt x="260" y="915" on="0"/>
        <pt x="308" y="870" on="0"/>
        <pt x="346" y="870" on="1"/>
        <pt x="381" y="870" on="0"/>
        <pt x="430" y="915" on="0"/>
        <pt x="430" y="952" on="1"/>
        <pt x="430" y="991" on="0"/>
        <pt x="381" y="1036" on="0"/>
        <pt x="346" y="1036" on="1"/>
        <pt x="308" y="1036" on="0"/>
        <pt x="260" y="991" on="0"/>
      </contour>
      <contour>
        <pt x="174" y="186" on="1"/>
        <pt x="174" y="143" on="0"/>
        <pt x="220" y="96" on="0"/>
        <pt x="252" y="96" on="1"/>
        <pt x="287" y="96" on="0"/>
        <pt x="328" y="145" on="0"/>
        <pt x="328" y="193" on="1"/>
        <pt x="328" y="322" on="1"/>
        <pt x="174" y="296" on="0"/>
      </contour>
    </TTGlyph>
    <TTGlyph name="uni0E22" xMin="123" yMin="-20" xMax="1081" yMax="1143">
      <contour>
        <pt x="395" y="764" on="1"/>
        <pt x="395" y="675" on="0"/>
        <pt x="474" y="591" on="0"/>
        <pt x="563" y="584" on="1"/>
        <pt x="563" y="502" on="1"/>
        <pt x="481" y="495" on="0"/>
        <pt x="408" y="409" on="0"/>
        <pt x="408" y="301" on="1"/>
        <pt x="408" y="182" on="0"/>
        <pt x="494" y="86" on="0"/>
        <pt x="594" y="86" on="1"/>
        <pt x="705" y="86" on="0"/>
        <pt x="797" y="201" on="0"/>
        <pt x="797" y="342" on="1"/>
        <pt x="797" y="922" on="1"/>
        <pt x="989" y="1126" on="1"/>
        <pt x="1081" y="1126" on="1"/>
        <pt x="1081" y="344" on="1"/>
        <pt x="1081" y="-20" on="0"/>
        <pt x="594" y="-20" on="1"/>
        <pt x="425" y="-20" on="0"/>
        <pt x="218" y="41" on="0"/>
        <pt x="123" y="164" on="0"/>
        <pt x="123" y="279" on="1"/>
        <pt x="123" y="510" on="0"/>
        <pt x="358" y="543" on="1"/>
        <pt x="232" y="561" on="0"/>
        <pt x="123" y="720" on="0"/>
        <pt x="123" y="864" on="1"/>
        <pt x="123" y="999" on="0"/>
        <pt x="260" y="1143" on="0"/>
        <pt x="393" y="1143" on="1"/>
        <pt x="490" y="1143" on="0"/>
        <pt x="606" y="1036" on="0"/>
        <pt x="606" y="946" on="1"/>
        <pt x="606" y="862" on="0"/>
        <pt x="504" y="764" on="0"/>
        <pt x="420" y="762" on="1"/>
        <pt x="408" y="762" on="1"/>
      </contour>
      <contour>
        <pt x="487" y="952" on="1"/>
        <pt x="487" y="991" on="0"/>
        <pt x="440" y="1036" on="0"/>
        <pt x="401" y="1036" on="1"/>
        <pt x="366" y="1036" on="0"/>
        <pt x="317" y="991" on="0"/>
        <pt x="317" y="952" on="1"/>
        <pt x="317" y="915" on="0"/>
        <pt x="366" y="870" on="0"/>
        <pt x="401" y="870" on="1"/>
        <pt x="440" y="870" on="0"/>
        <pt x="487" y="915" on="0"/>
      </contour>
    </TTGlyph>
    <TTGlyph name="uni0E23" xMin="70" yMin="-20" xMax="1030" yMax="1169">
      <contour>
        <pt x="838" y="258" on="1"/>
        <pt x="838" y="-20" on="0"/>
        <pt x="580" y="-20" on="1"/>
        <pt x="484" y="-20" on="0"/>
        <pt x="367" y="86" on="0"/>
        <pt x="367" y="176" on="1"/>
        <pt x="367" y="258" on="0"/>
        <pt x="464" y="355" on="0"/>
        <pt x="553" y="360" on="1"/>
        <pt x="553" y="424" on="1"/>
        <pt x="553" y="552" on="0"/>
        <pt x="431" y="664" on="0"/>
        <pt x="279" y="664" on="1"/>
        <pt x="70" y="664" on="1"/>
        <pt x="70" y="774" on="1"/>
        <pt x="70" y="958" on="0"/>
        <pt x="242" y="1137" on="0"/>
        <pt x="420" y="1137" on="1"/>
        <pt x="464" y="1137" on="0"/>
        <pt x="577" y="1120" on="1"/>
        <pt x="690" y="1102" on="0"/>
        <pt x="762" y="1102" on="1"/>
        <pt x="822" y="1102" on="0"/>
        <pt x="921" y="1137" on="0"/>
        <pt x="950" y="1169" on="1"/>
        <pt x="1030" y="1110" on="1"/>
        <pt x="905" y="893" on="0"/>
        <pt x="725" y="893" on="1"/>
        <pt x="676" y="893" on="0"/>
        <pt x="570" y="911" on="1"/>
        <pt x="463" y="928" on="0"/>
        <pt x="422" y="928" on="1"/>
        <pt x="308" y="928" on="0"/>
        <pt x="189" y="858" on="0"/>
        <pt x="180" y="774" on="1"/>
        <pt x="414" y="774" on="1"/>
        <pt x="619" y="774" on="0"/>
        <pt x="838" y="616" on="0"/>
        <pt x="838" y="459" on="1"/>
      </contour>
      <contour>
        <pt x="485" y="170" on="1"/>
        <pt x="485" y="132" on="0"/>
        <pt x="533" y="86" on="0"/>
        <pt x="571" y="86" on="1"/>
        <pt x="606" y="86" on="0"/>
        <pt x="655" y="132" on="0"/>
        <pt x="655" y="170" on="1"/>
        <pt x="655" y="207" on="0"/>
        <pt x="606" y="252" on="0"/>
        <pt x="571" y="252" on="1"/>
        <pt x="533" y="252" on="0"/>
        <pt x="485" y="207" on="0"/>
      </contour>
    </TTGlyph>
    <TTGlyph name="uni0E24" xMin="133" yMin="-520" xMax="1145" yMax="1147">
      <contour>
        <pt x="451" y="360" on="1"/>
        <pt x="540" y="355" on="0"/>
        <pt x="637" y="258" on="0"/>
        <pt x="637" y="176" on="1"/>
        <pt x="637" y="86" on="0"/>
        <pt x="519" y="-20" on="0"/>
        <pt x="424" y="-20" on="1"/>
        <pt x="166" y="-20" on="0"/>
        <pt x="166" y="258" on="1"/>
        <pt x="166" y="393" on="1"/>
        <pt x="166" y="505" on="0"/>
        <pt x="297" y="616" on="0"/>
        <pt x="442" y="637" on="1"/>
        <pt x="395" y="673" on="0"/>
        <pt x="202" y="737" on="0"/>
        <pt x="133" y="737" on="1"/>
        <pt x="142" y="939" on="0"/>
        <pt x="397" y="1147" on="0"/>
        <pt x="637" y="1147" on="1"/>
        <pt x="893" y="1147" on="0"/>
        <pt x="1145" y="928" on="0"/>
        <pt x="1145" y="696" on="1"/>
        <pt x="1145" y="-315" on="1"/>
        <pt x="952" y="-520" on="1"/>
        <pt x="860" y="-520" on="1"/>
        <pt x="860" y="700" on="1"/>
        <pt x="860" y="872" on="0"/>
        <pt x="753" y="1036" on="0"/>
        <pt x="641" y="1036" on="1"/>
        <pt x="440" y="1036" on="0"/>
        <pt x="422" y="788" on="1"/>
        <pt x="482" y="768" on="0"/>
        <pt x="634" y="670" on="0"/>
        <pt x="657" y="635" on="1"/>
        <pt x="657" y="610" on="1"/>
        <pt x="556" y="602" on="0"/>
        <pt x="451" y="518" on="0"/>
        <pt x="451" y="446" on="1"/>
      </contour>
      <contour>
        <pt x="518" y="170" on="1"/>
        <pt x="518" y="207" on="0"/>
        <pt x="470" y="252" on="0"/>
        <pt x="432" y="252" on="1"/>
        <pt x="397" y="252" on="0"/>
        <pt x="348" y="207" on="0"/>
        <pt x="348" y="170" on="1"/>
        <pt x="348" y="132" on="0"/>
        <pt x="397" y="86" on="0"/>
        <pt x="432" y="86" on="1"/>
        <pt x="470" y="86" on="0"/>
        <pt x="518" y="132" on="0"/>
      </contour>
    </TTGlyph>
    <TTGlyph name="uni0E25" xMin="123" yMin="-20" xMax="1128" yMax="1147">
      <contour>
        <pt x="406" y="360" on="1"/>
        <pt x="496" y="355" on="0"/>
        <pt x="594" y="256" on="0"/>
        <pt x="594" y="176" on="1"/>
        <pt x="594" y="86" on="0"/>
        <pt x="476" y="-20" on="0"/>
        <pt x="381" y="-20" on="1"/>
        <pt x="123" y="-20" on="0"/>
        <pt x="123" y="258" on="1"/>
        <pt x="123" y="356" on="1"/>
        <pt x="123" y="521" on="0"/>
        <pt x="303" y="702" on="0"/>
        <pt x="469" y="702" on="1"/>
        <pt x="701" y="702" on="0"/>
        <pt x="844" y="467" on="1"/>
        <pt x="844" y="647" on="1"/>
        <pt x="844" y="855" on="0"/>
        <pt x="722" y="1036" on="0"/>
        <pt x="575" y="1036" on="1"/>
        <pt x="386" y="1036" on="0"/>
        <pt x="193" y="913" on="1"/>
        <pt x="137" y="1008" on="1"/>
        <pt x="256" y="1082" on="0"/>
        <pt x="504" y="1147" on="0"/>
        <pt x="639" y="1147" on="1"/>
        <pt x="874" y="1147" on="0"/>
        <pt x="1128" y="914" on="0"/>
        <pt x="1128" y="684" on="1"/>
        <pt x="1128" y="205" on="1"/>
        <pt x="936" y="0" on="1"/>
        <pt x="844" y="0" on="1"/>
        <pt x="844" y="184" on="1"/>
        <pt x="797" y="360" on="0"/>
        <pt x="619" y="571" on="0"/>
        <pt x="514" y="571" on="1"/>
        <pt x="452" y="571" on="0"/>
        <pt x="406" y="501" on="0"/>
        <pt x="406" y="412" on="1"/>
      </contour>
      <contour>
        <pt x="475" y="170" on="1"/>
        <pt x="475" y="207" on="0"/>
        <pt x="427" y="252" on="0"/>
        <pt x="389" y="252" on="1"/>
        <pt x="354" y="252" on="0"/>
        <pt x="305" y="207" on="0"/>
        <pt x="305" y="170" on="1"/>
        <pt x="305" y="132" on="0"/>
        <pt x="354" y="86" on="0"/>
        <pt x="389" y="86" on="1"/>
        <pt x="427" y="86" on="0"/>
        <pt x="475" y="132" on="0"/>
      </contour>
    </TTGlyph>
    <TTGlyph name="uni0E26" xMin="45" yMin="-520" xMax="1210" yMax="1147">
      <contour>
        <pt x="516" y="258" on="1"/>
        <pt x="516" y="-20" on="0"/>
        <pt x="258" y="-20" on="1"/>
        <pt x="162" y="-20" on="0"/>
        <pt x="45" y="86" on="0"/>
        <pt x="45" y="176" on="1"/>
        <pt x="45" y="258" on="0"/>
        <pt x="142" y="355" on="0"/>
        <pt x="231" y="360" on="1"/>
        <pt x="231" y="424" on="1"/>
        <pt x="231" y="597" on="0"/>
        <pt x="508" y="637" on="1"/>
        <pt x="458" y="673" on="0"/>
        <pt x="268" y="737" on="0"/>
        <pt x="199" y="737" on="1"/>
        <pt x="208" y="938" on="0"/>
        <pt x="461" y="1147" on="0"/>
        <pt x="702" y="1147" on="1"/>
        <pt x="958" y="1147" on="0"/>
        <pt x="1210" y="928" on="0"/>
        <pt x="1210" y="696" on="1"/>
        <pt x="1210" y="-315" on="1"/>
        <pt x="1018" y="-520" on="1"/>
        <pt x="926" y="-520" on="1"/>
        <pt x="926" y="700" on="1"/>
        <pt x="926" y="873" on="0"/>
        <pt x="818" y="1036" on="0"/>
        <pt x="707" y="1036" on="1"/>
        <pt x="505" y="1036" on="0"/>
        <pt x="487" y="788" on="1"/>
        <pt x="548" y="768" on="0"/>
        <pt x="700" y="669" on="0"/>
        <pt x="723" y="635" on="1"/>
        <pt x="723" y="610" on="1"/>
        <pt x="602" y="600" on="0"/>
        <pt x="516" y="508" on="0"/>
        <pt x="516" y="389" on="1"/>
      </contour>
      <contour>
        <pt x="164" y="170" on="1"/>
        <pt x="164" y="132" on="0"/>
        <pt x="212" y="86" on="0"/>
        <pt x="250" y="86" on="1"/>
        <pt x="285" y="86" on="0"/>
        <pt x="334" y="132" on="0"/>
        <pt x="334" y="170" on="1"/>
        <pt x="334" y="207" on="0"/>
        <pt x="285" y="252" on="0"/>
        <pt x="250" y="252" on="1"/>
        <pt x="212" y="252" on="0"/>
        <pt x="164" y="207" on="0"/>
      </contour>
    </TTGlyph>
    <TTGlyph name="uni0E27" xMin="0" yMin="-20" xMax="913" yMax="1147">
      <contour>
        <pt x="629" y="647" on="1"/>
        <pt x="629" y="787" on="0"/>
        <pt x="582" y="954" on="0"/>
        <pt x="485" y="1032" on="0"/>
        <pt x="393" y="1032" on="1"/>
        <pt x="316" y="1032" on="0"/>
        <pt x="162" y="979" on="0"/>
        <pt x="59" y="909" on="1"/>
        <pt x="0" y="1008" on="1"/>
        <pt x="209" y="1147" on="0"/>
        <pt x="465" y="1147" on="1"/>
        <pt x="680" y="1147" on="0"/>
        <pt x="913" y="914" on="0"/>
        <pt x="913" y="684" on="1"/>
        <pt x="913" y="258" on="1"/>
        <pt x="913" y="-20" on="0"/>
        <pt x="655" y="-20" on="1"/>
        <pt x="559" y="-20" on="0"/>
        <pt x="442" y="86" on="0"/>
        <pt x="442" y="176" on="1"/>
        <pt x="442" y="258" on="0"/>
        <pt x="540" y="355" on="0"/>
        <pt x="629" y="360" on="1"/>
      </contour>
      <contour>
        <pt x="561" y="170" on="1"/>
        <pt x="561" y="132" on="0"/>
        <pt x="609" y="86" on="0"/>
        <pt x="647" y="86" on="1"/>
        <pt x="682" y="86" on="0"/>
        <pt x="731" y="132" on="0"/>
        <pt x="731" y="170" on="1"/>
        <pt x="731" y="207" on="0"/>
        <pt x="682" y="252" on="0"/>
        <pt x="647" y="252" on="1"/>
        <pt x="609" y="252" on="0"/>
        <pt x="561" y="207" on="0"/>
      </contour>
    </TTGlyph>
    <TTGlyph name="uni0E28" xMin="123" yMin="0" xMax="1317" yMax="1206">
      <contour>
        <pt x="928" y="696" on="1"/>
        <pt x="928" y="744" on="0"/>
        <pt x="922" y="786" on="1"/>
        <pt x="839" y="734" on="0"/>
        <pt x="803" y="717" on="1"/>
        <pt x="872" y="669" on="0"/>
        <pt x="872" y="569" on="1"/>
        <pt x="872" y="483" on="0"/>
        <pt x="774" y="389" on="0"/>
        <pt x="680" y="389" on="1"/>
        <pt x="600" y="389" on="0"/>
        <pt x="555" y="430" on="1"/>
        <pt x="530" y="382" on="0"/>
        <pt x="492" y="194" on="0"/>
        <pt x="492" y="57" on="1"/>
        <pt x="492" y="0" on="1"/>
        <pt x="207" y="0" on="1"/>
        <pt x="207" y="119" on="1"/>
        <pt x="207" y="309" on="0"/>
        <pt x="165" y="469" on="1"/>
        <pt x="141" y="562" on="0"/>
        <pt x="123" y="670" on="0"/>
        <pt x="123" y="729" on="1"/>
        <pt x="123" y="918" on="0"/>
        <pt x="422" y="1147" on="0"/>
        <pt x="678" y="1147" on="1"/>
        <pt x="896" y="1147" on="0"/>
        <pt x="1020" y="1083" on="1"/>
        <pt x="1057" y="1137" on="0"/>
        <pt x="1083" y="1206" on="1"/>
        <pt x="1317" y="1206" on="1"/>
        <pt x="1272" y="1094" on="0"/>
        <pt x="1149" y="969" on="1"/>
        <pt x="1212" y="868" on="0"/>
        <pt x="1212" y="696" on="1"/>
        <pt x="1212" y="205" on="1"/>
        <pt x="1020" y="0" on="1"/>
        <pt x="928" y="0" on="1"/>
      </contour>
      <contour>
        <pt x="449" y="428" on="1"/>
        <pt x="467" y="584" on="0"/>
        <pt x="587" y="750" on="0"/>
        <pt x="680" y="750" on="1"/>
        <pt x="686" y="750" on="1"/>
        <pt x="792" y="818" on="0"/>
        <pt x="887" y="915" on="1"/>
        <pt x="828" y="1036" on="0"/>
        <pt x="670" y="1036" on="1"/>
        <pt x="541" y="1036" on="0"/>
        <pt x="406" y="882" on="0"/>
        <pt x="406" y="735" on="1"/>
        <pt x="406" y="666" on="0"/>
        <pt x="425" y="572" on="1"/>
        <pt x="446" y="460" on="0"/>
      </contour>
      <contour>
        <pt x="762" y="569" on="1"/>
        <pt x="762" y="610" on="0"/>
        <pt x="716" y="653" on="0"/>
        <pt x="678" y="653" on="1"/>
        <pt x="643" y="653" on="0"/>
        <pt x="594" y="610" on="0"/>
        <pt x="594" y="569" on="1"/>
        <pt x="594" y="531" on="0"/>
        <pt x="643" y="485" on="0"/>
        <pt x="678" y="485" on="1"/>
        <pt x="716" y="485" on="0"/>
        <pt x="762" y="531" on="0"/>
      </contour>
    </TTGlyph>
    <TTGlyph name="uni0E29" xMin="45" yMin="0" xMax="1606" yMax="1143">
      <contour>
        <pt x="231" y="762" on="1"/>
        <pt x="147" y="764" on="0"/>
        <pt x="45" y="863" on="0"/>
        <pt x="45" y="946" on="1"/>
        <pt x="45" y="1035" on="0"/>
        <pt x="161" y="1143" on="0"/>
        <pt x="258" y="1143" on="1"/>
        <pt x="516" y="1143" on="0"/>
        <pt x="516" y="864" on="1"/>
        <pt x="516" y="106" on="1"/>
        <pt x="784" y="106" on="1"/>
        <pt x="899" y="106" on="0"/>
        <pt x="997" y="224" on="0"/>
        <pt x="997" y="362" on="1"/>
        <pt x="997" y="399" on="1"/>
        <pt x="923" y="389" on="0"/>
        <pt x="844" y="389" on="1"/>
        <pt x="713" y="389" on="0"/>
        <pt x="569" y="503" on="0"/>
        <pt x="569" y="600" on="1"/>
        <pt x="569" y="685" on="0"/>
        <pt x="673" y="784" on="0"/>
        <pt x="758" y="784" on="1"/>
        <pt x="844" y="784" on="0"/>
        <pt x="944" y="690" on="0"/>
        <pt x="944" y="612" on="1"/>
        <pt x="944" y="581" on="0"/>
        <pt x="922" y="519" on="0"/>
        <pt x="909" y="502" on="1"/>
        <pt x="957" y="509" on="0"/>
        <pt x="997" y="520" on="1"/>
        <pt x="997" y="922" on="1"/>
        <pt x="1190" y="1126" on="1"/>
        <pt x="1282" y="1126" on="1"/>
        <pt x="1282" y="672" on="1"/>
        <pt x="1328" y="712" on="0"/>
        <pt x="1402" y="822" on="0"/>
        <pt x="1417" y="868" on="1"/>
        <pt x="1606" y="770" on="1"/>
        <pt x="1495" y="578" on="0"/>
        <pt x="1282" y="477" on="1"/>
        <pt x="1282" y="365" on="1"/>
        <pt x="1282" y="189" on="0"/>
        <pt x="1083" y="0" on="0"/>
        <pt x="897" y="0" on="1"/>
        <pt x="92" y="0" on="1"/>
        <pt x="92" y="106" on="1"/>
        <pt x="231" y="106" on="1"/>
      </contour>
      <contour>
        <pt x="680" y="600" on="1"/>
        <pt x="680" y="560" on="0"/>
        <pt x="723" y="512" on="0"/>
        <pt x="758" y="512" on="1"/>
        <pt x="790" y="512" on="0"/>
        <pt x="834" y="560" on="0"/>
        <pt x="834" y="600" on="1"/>
        <pt x="834" y="642" on="0"/>
        <pt x="790" y="688" on="0"/>
        <pt x="758" y="688" on="1"/>
        <pt x="723" y="688" on="0"/>
        <pt x="680" y="642" on="0"/>
      </contour>
      <contour>
        <pt x="164" y="952" on="1"/>
        <pt x="164" y="915" on="0"/>
        <pt x="212" y="870" on="0"/>
        <pt x="250" y="870" on="1"/>
        <pt x="285" y="870" on="0"/>
        <pt x="334" y="915" on="0"/>
        <pt x="334" y="952" on="1"/>
        <pt x="334" y="991" on="0"/>
        <pt x="285" y="1036" on="0"/>
        <pt x="250" y="1036" on="1"/>
        <pt x="212" y="1036" on="0"/>
        <pt x="164" y="991" on="0"/>
      </contour>
    </TTGlyph>
    <TTGlyph name="uni0E2A" xMin="123" yMin="-20" xMax="1233" yMax="1206">
      <contour>
        <pt x="406" y="360" on="1"/>
        <pt x="496" y="355" on="0"/>
        <pt x="594" y="256" on="0"/>
        <pt x="594" y="176" on="1"/>
        <pt x="594" y="86" on="0"/>
        <pt x="476" y="-20" on="0"/>
        <pt x="381" y="-20" on="1"/>
        <pt x="123" y="-20" on="0"/>
        <pt x="123" y="258" on="1"/>
        <pt x="123" y="356" on="1"/>
        <pt x="123" y="521" on="0"/>
        <pt x="303" y="702" on="0"/>
        <pt x="469" y="702" on="1"/>
        <pt x="510" y="700" on="1"/>
        <pt x="656" y="771" on="0"/>
        <pt x="799" y="918" on="1"/>
        <pt x="770" y="977" on="0"/>
        <pt x="667" y="1032" on="0"/>
        <pt x="575" y="1032" on="1"/>
        <pt x="488" y="1032" on="0"/>
        <pt x="309" y="978" on="0"/>
        <pt x="197" y="909" on="1"/>
        <pt x="137" y="1008" on="1"/>
        <pt x="256" y="1082" on="0"/>
        <pt x="504" y="1147" on="0"/>
        <pt x="639" y="1147" on="1"/>
        <pt x="817" y="1147" on="0"/>
        <pt x="932" y="1079" on="1"/>
        <pt x="976" y="1144" on="0"/>
        <pt x="999" y="1206" on="1"/>
        <pt x="1233" y="1206" on="1"/>
        <pt x="1186" y="1085" on="0"/>
        <pt x="1059" y="958" on="1"/>
        <pt x="1128" y="848" on="0"/>
        <pt x="1128" y="684" on="1"/>
        <pt x="1128" y="205" on="1"/>
        <pt x="936" y="0" on="1"/>
        <pt x="844" y="0" on="1"/>
        <pt x="844" y="184" on="1"/>
        <pt x="797" y="360" on="0"/>
        <pt x="619" y="571" on="0"/>
        <pt x="514" y="571" on="1"/>
        <pt x="452" y="571" on="0"/>
        <pt x="406" y="501" on="0"/>
        <pt x="406" y="412" on="1"/>
      </contour>
      <contour>
        <pt x="836" y="774" on="1"/>
        <pt x="722" y="701" on="0"/>
        <pt x="635" y="666" on="1"/>
        <pt x="757" y="609" on="0"/>
        <pt x="844" y="467" on="1"/>
        <pt x="844" y="647" on="1"/>
        <pt x="844" y="699" on="0"/>
      </contour>
      <contour>
        <pt x="475" y="170" on="1"/>
        <pt x="475" y="207" on="0"/>
        <pt x="427" y="252" on="0"/>
        <pt x="389" y="252" on="1"/>
        <pt x="354" y="252" on="0"/>
        <pt x="305" y="207" on="0"/>
        <pt x="305" y="170" on="1"/>
        <pt x="305" y="132" on="0"/>
        <pt x="354" y="86" on="0"/>
        <pt x="389" y="86" on="1"/>
        <pt x="427" y="86" on="0"/>
        <pt x="475" y="132" on="0"/>
      </contour>
    </TTGlyph>
    <TTGlyph name="uni0E2B" xMin="45" yMin="0" xMax="1212" yMax="1145">
      <contour>
        <pt x="231" y="762" on="1"/>
        <pt x="147" y="764" on="0"/>
        <pt x="45" y="863" on="0"/>
        <pt x="45" y="946" on="1"/>
        <pt x="45" y="1035" on="0"/>
        <pt x="161" y="1143" on="0"/>
        <pt x="258" y="1143" on="1"/>
        <pt x="516" y="1143" on="0"/>
        <pt x="516" y="864" on="1"/>
        <pt x="516" y="352" on="1"/>
        <pt x="618" y="550" on="0"/>
        <pt x="846" y="727" on="1"/>
        <pt x="786" y="771" on="0"/>
        <pt x="723" y="883" on="0"/>
        <pt x="723" y="938" on="1"/>
        <pt x="723" y="1034" on="0"/>
        <pt x="842" y="1145" on="0"/>
        <pt x="948" y="1145" on="1"/>
        <pt x="1053" y="1145" on="0"/>
        <pt x="1171" y="1037" on="0"/>
        <pt x="1171" y="946" on="1"/>
        <pt x="1171" y="822" on="0"/>
        <pt x="1055" y="739" on="1"/>
        <pt x="1127" y="704" on="0"/>
        <pt x="1212" y="563" on="0"/>
        <pt x="1212" y="479" on="1"/>
        <pt x="1212" y="205" on="1"/>
        <pt x="1020" y="0" on="1"/>
        <pt x="928" y="0" on="1"/>
        <pt x="928" y="530" on="1"/>
        <pt x="928" y="613" on="0"/>
        <pt x="911" y="635" on="1"/>
        <pt x="769" y="516" on="0"/>
        <pt x="552" y="166" on="0"/>
        <pt x="516" y="0" on="1"/>
        <pt x="231" y="0" on="1"/>
      </contour>
      <contour>
        <pt x="844" y="938" on="1"/>
        <pt x="844" y="862" on="0"/>
        <pt x="952" y="811" on="1"/>
        <pt x="995" y="835" on="0"/>
        <pt x="1051" y="909" on="0"/>
        <pt x="1051" y="946" on="1"/>
        <pt x="1051" y="993" on="0"/>
        <pt x="992" y="1036" on="0"/>
        <pt x="948" y="1036" on="1"/>
        <pt x="903" y="1036" on="0"/>
        <pt x="844" y="984" on="0"/>
      </contour>
      <contour>
        <pt x="164" y="952" on="1"/>
        <pt x="164" y="915" on="0"/>
        <pt x="212" y="870" on="0"/>
        <pt x="250" y="870" on="1"/>
        <pt x="285" y="870" on="0"/>
        <pt x="334" y="915" on="0"/>
        <pt x="334" y="952" on="1"/>
        <pt x="334" y="991" on="0"/>
        <pt x="285" y="1036" on="0"/>
        <pt x="250" y="1036" on="1"/>
        <pt x="212" y="1036" on="0"/>
        <pt x="164" y="991" on="0"/>
      </contour>
    </TTGlyph>
    <TTGlyph name="uni0E2C" xMin="45" yMin="0" xMax="1642" yMax="1464">
      <contour>
        <pt x="231" y="762" on="1"/>
        <pt x="147" y="764" on="0"/>
        <pt x="45" y="863" on="0"/>
        <pt x="45" y="946" on="1"/>
        <pt x="45" y="1035" on="0"/>
        <pt x="161" y="1143" on="0"/>
        <pt x="258" y="1143" on="1"/>
        <pt x="516" y="1143" on="0"/>
        <pt x="516" y="864" on="1"/>
        <pt x="516" y="393" on="1"/>
        <pt x="725" y="1116" on="1"/>
        <pt x="823" y="1116" on="1"/>
        <pt x="1032" y="393" on="1"/>
        <pt x="1032" y="1071" on="1"/>
        <pt x="883" y="1123" on="0"/>
        <pt x="883" y="1264" on="1"/>
        <pt x="883" y="1350" on="0"/>
        <pt x="992" y="1448" on="0"/>
        <pt x="1081" y="1448" on="1"/>
        <pt x="1170" y="1448" on="0"/>
        <pt x="1278" y="1354" on="0"/>
        <pt x="1278" y="1276" on="1"/>
        <pt x="1278" y="1245" on="0"/>
        <pt x="1256" y="1182" on="0"/>
        <pt x="1243" y="1165" on="1"/>
        <pt x="1402" y="1223" on="0"/>
        <pt x="1438" y="1464" on="1"/>
        <pt x="1642" y="1432" on="1"/>
        <pt x="1612" y="1295" on="0"/>
        <pt x="1443" y="1106" on="0"/>
        <pt x="1317" y="1071" on="1"/>
        <pt x="1317" y="205" on="1"/>
        <pt x="1124" y="0" on="1"/>
        <pt x="1032" y="0" on="1"/>
        <pt x="774" y="881" on="1"/>
        <pt x="516" y="0" on="1"/>
        <pt x="231" y="0" on="1"/>
      </contour>
      <contour>
        <pt x="993" y="1264" on="1"/>
        <pt x="993" y="1223" on="0"/>
        <pt x="1041" y="1176" on="0"/>
        <pt x="1081" y="1176" on="1"/>
        <pt x="1118" y="1176" on="0"/>
        <pt x="1167" y="1223" on="0"/>
        <pt x="1167" y="1264" on="1"/>
        <pt x="1167" y="1306" on="0"/>
        <pt x="1118" y="1352" on="0"/>
        <pt x="1081" y="1352" on="1"/>
        <pt x="1041" y="1352" on="0"/>
        <pt x="993" y="1306" on="0"/>
      </contour>
      <contour>
        <pt x="164" y="952" on="1"/>
        <pt x="164" y="915" on="0"/>
        <pt x="212" y="870" on="0"/>
        <pt x="250" y="870" on="1"/>
        <pt x="285" y="870" on="0"/>
        <pt x="334" y="915" on="0"/>
        <pt x="334" y="952" on="1"/>
        <pt x="334" y="991" on="0"/>
        <pt x="285" y="1036" on="0"/>
        <pt x="250" y="1036" on="1"/>
        <pt x="212" y="1036" on="0"/>
        <pt x="164" y="991" on="0"/>
      </contour>
    </TTGlyph>
    <TTGlyph name="uni0E2D" xMin="117" yMin="-20" xMax="1122" yMax="1147">
      <contour>
        <pt x="459" y="350" on="1"/>
        <pt x="459" y="206" on="0"/>
        <pt x="547" y="90" on="0"/>
        <pt x="645" y="90" on="1"/>
        <pt x="748" y="90" on="0"/>
        <pt x="838" y="238" on="0"/>
        <pt x="838" y="408" on="1"/>
        <pt x="838" y="705" on="1"/>
        <pt x="838" y="877" on="0"/>
        <pt x="710" y="1032" on="0"/>
        <pt x="565" y="1032" on="1"/>
        <pt x="352" y="1032" on="0"/>
        <pt x="176" y="909" on="1"/>
        <pt x="117" y="1008" on="1"/>
        <pt x="345" y="1147" on="0"/>
        <pt x="629" y="1147" on="1"/>
        <pt x="867" y="1147" on="0"/>
        <pt x="1122" y="921" on="0"/>
        <pt x="1122" y="713" on="1"/>
        <pt x="1122" y="416" on="1"/>
        <pt x="1122" y="249" on="0"/>
        <pt x="1026" y="67" on="0"/>
        <pt x="818" y="-20" on="0"/>
        <pt x="645" y="-20" on="1"/>
        <pt x="477" y="-20" on="0"/>
        <pt x="270" y="62" on="0"/>
        <pt x="174" y="225" on="0"/>
        <pt x="174" y="373" on="1"/>
        <pt x="174" y="518" on="1"/>
        <pt x="174" y="797" on="0"/>
        <pt x="432" y="797" on="1"/>
        <pt x="529" y="797" on="0"/>
        <pt x="645" y="690" on="0"/>
        <pt x="645" y="600" on="1"/>
        <pt x="645" y="516" on="0"/>
        <pt x="543" y="418" on="0"/>
        <pt x="459" y="416" on="1"/>
      </contour>
      <contour>
        <pt x="526" y="606" on="1"/>
        <pt x="526" y="644" on="0"/>
        <pt x="479" y="690" on="0"/>
        <pt x="440" y="690" on="1"/>
        <pt x="405" y="690" on="0"/>
        <pt x="356" y="644" on="0"/>
        <pt x="356" y="606" on="1"/>
        <pt x="356" y="569" on="0"/>
        <pt x="405" y="524" on="0"/>
        <pt x="440" y="524" on="1"/>
        <pt x="479" y="524" on="0"/>
        <pt x="526" y="569" on="0"/>
      </contour>
    </TTGlyph>
    <TTGlyph name="uni0E2E" xMin="164" yMin="-20" xMax="1294" yMax="1206">
      <contour>
        <pt x="625" y="862" on="1"/>
        <pt x="760" y="862" on="0"/>
        <pt x="872" y="944" on="1"/>
        <pt x="849" y="982" on="0"/>
        <pt x="711" y="1044" on="0"/>
        <pt x="639" y="1044" on="1"/>
        <pt x="461" y="1044" on="0"/>
        <pt x="461" y="954" on="1"/>
        <pt x="461" y="909" on="0"/>
        <pt x="550" y="862" on="0"/>
      </contour>
      <contour>
        <pt x="449" y="305" on="1"/>
        <pt x="449" y="241" on="0"/>
        <pt x="503" y="136" on="0"/>
        <pt x="603" y="78" on="0"/>
        <pt x="672" y="78" on="1"/>
        <pt x="786" y="78" on="0"/>
        <pt x="895" y="210" on="0"/>
        <pt x="895" y="352" on="1"/>
        <pt x="895" y="739" on="1"/>
        <pt x="893" y="807" on="1"/>
        <pt x="765" y="760" on="0"/>
        <pt x="606" y="760" on="1"/>
        <pt x="392" y="760" on="0"/>
        <pt x="176" y="863" on="0"/>
        <pt x="176" y="954" on="1"/>
        <pt x="176" y="1042" on="0"/>
        <pt x="391" y="1147" on="0"/>
        <pt x="606" y="1147" on="1"/>
        <pt x="739" y="1147" on="0"/>
        <pt x="919" y="1117" on="0"/>
        <pt x="993" y="1081" on="1"/>
        <pt x="1020" y="1135" on="0"/>
        <pt x="1040" y="1206" on="1"/>
        <pt x="1294" y="1206" on="1"/>
        <pt x="1233" y="1057" on="0"/>
        <pt x="1137" y="961" on="1"/>
        <pt x="1180" y="881" on="0"/>
        <pt x="1180" y="784" on="1"/>
        <pt x="1180" y="365" on="1"/>
        <pt x="1180" y="224" on="0"/>
        <pt x="1073" y="61" on="0"/>
        <pt x="850" y="-20" on="0"/>
        <pt x="672" y="-20" on="1"/>
        <pt x="492" y="-20" on="0"/>
        <pt x="270" y="61" on="0"/>
        <pt x="164" y="222" on="0"/>
        <pt x="164" y="365" on="1"/>
        <pt x="164" y="426" on="1"/>
        <pt x="164" y="705" on="0"/>
        <pt x="422" y="705" on="1"/>
        <pt x="519" y="705" on="0"/>
        <pt x="635" y="598" on="0"/>
        <pt x="635" y="508" on="1"/>
        <pt x="635" y="424" on="0"/>
        <pt x="533" y="326" on="0"/>
        <pt x="449" y="324" on="1"/>
      </contour>
      <contour>
        <pt x="516" y="514" on="1"/>
        <pt x="516" y="552" on="0"/>
        <pt x="468" y="598" on="0"/>
        <pt x="430" y="598" on="1"/>
        <pt x="395" y="598" on="0"/>
        <pt x="346" y="552" on="0"/>
        <pt x="346" y="514" on="1"/>
        <pt x="346" y="477" on="0"/>
        <pt x="395" y="432" on="0"/>
        <pt x="430" y="432" on="1"/>
        <pt x="468" y="432" on="0"/>
        <pt x="516" y="477" on="0"/>
      </contour>
    </TTGlyph>
    <TTGlyph name="uni0E2F" xMin="45" yMin="0" xMax="975" yMax="1126">
      <contour>
        <pt x="975" y="1126" on="1"/>
        <pt x="975" y="205" on="1"/>
        <pt x="782" y="0" on="1"/>
        <pt x="690" y="0" on="1"/>
        <pt x="690" y="856" on="1"/>
        <pt x="538" y="676" on="0"/>
        <pt x="264" y="676" on="1"/>
        <pt x="165" y="676" on="0"/>
        <pt x="45" y="794" on="0"/>
        <pt x="45" y="887" on="1"/>
        <pt x="45" y="973" on="0"/>
        <pt x="154" y="1071" on="0"/>
        <pt x="244" y="1071" on="1"/>
        <pt x="333" y="1071" on="0"/>
        <pt x="440" y="978" on="0"/>
        <pt x="440" y="899" on="1"/>
        <pt x="440" y="833" on="0"/>
        <pt x="412" y="793" on="1"/>
        <pt x="512" y="817" on="0"/>
        <pt x="674" y="1001" on="0"/>
        <pt x="700" y="1126" on="1"/>
      </contour>
      <contour>
        <pt x="156" y="881" on="1"/>
        <pt x="156" y="839" on="0"/>
        <pt x="203" y="788" on="0"/>
        <pt x="244" y="788" on="1"/>
        <pt x="281" y="788" on="0"/>
        <pt x="330" y="839" on="0"/>
        <pt x="330" y="881" on="1"/>
        <pt x="330" y="926" on="0"/>
        <pt x="281" y="975" on="0"/>
        <pt x="244" y="975" on="1"/>
        <pt x="203" y="975" on="0"/>
        <pt x="156" y="926" on="0"/>
      </contour>
    </TTGlyph>
    <TTGlyph name="uni0E30" xMin="80" yMin="106" xMax="993" yMax="1071">
      <contour>
        <pt x="399" y="618" on="1"/>
        <pt x="251" y="618" on="0"/>
        <pt x="80" y="731" on="0"/>
        <pt x="80" y="829" on="1"/>
        <pt x="80" y="916" on="0"/>
        <pt x="190" y="1014" on="0"/>
        <pt x="279" y="1014" on="1"/>
        <pt x="367" y="1014" on="0"/>
        <pt x="475" y="920" on="0"/>
        <pt x="475" y="842" on="1"/>
        <pt x="475" y="811" on="0"/>
        <pt x="453" y="748" on="0"/>
        <pt x="440" y="731" on="1"/>
        <pt x="572" y="761" on="0"/>
        <pt x="722" y="930" on="0"/>
        <pt x="748" y="1071" on="1"/>
        <pt x="993" y="997" on="1"/>
        <pt x="943" y="819" on="0"/>
        <pt x="631" y="618" on="0"/>
      </contour>
      <contour>
        <pt x="190" y="829" on="1"/>
        <pt x="190" y="789" on="0"/>
        <pt x="238" y="741" on="0"/>
        <pt x="279" y="741" on="1"/>
        <pt x="316" y="741" on="0"/>
        <pt x="365" y="789" on="0"/>
        <pt x="365" y="829" on="1"/>
        <pt x="365" y="871" on="0"/>
        <pt x="316" y="918" on="0"/>
        <pt x="279" y="918" on="1"/>
        <pt x="238" y="918" on="0"/>
        <pt x="190" y="871" on="0"/>
      </contour>
      <contour>
        <pt x="399" y="106" on="1"/>
        <pt x="251" y="106" on="0"/>
        <pt x="80" y="219" on="0"/>
        <pt x="80" y="317" on="1"/>
        <pt x="80" y="404" on="0"/>
        <pt x="190" y="502" on="0"/>
        <pt x="279" y="502" on="1"/>
        <pt x="367" y="502" on="0"/>
        <pt x="475" y="408" on="0"/>
        <pt x="475" y="330" on="1"/>
        <pt x="475" y="299" on="0"/>
        <pt x="453" y="236" on="0"/>
        <pt x="440" y="219" on="1"/>
        <pt x="694" y="279" on="0"/>
        <pt x="743" y="559" on="1"/>
        <pt x="993" y="485" on="1"/>
        <pt x="943" y="307" on="0"/>
        <pt x="631" y="106" on="0"/>
      </contour>
      <contour>
        <pt x="190" y="317" on="1"/>
        <pt x="190" y="277" on="0"/>
        <pt x="238" y="229" on="0"/>
        <pt x="279" y="229" on="1"/>
        <pt x="316" y="229" on="0"/>
        <pt x="365" y="277" on="0"/>
        <pt x="365" y="317" on="1"/>
        <pt x="365" y="359" on="0"/>
        <pt x="316" y="406" on="0"/>
        <pt x="279" y="406" on="1"/>
        <pt x="238" y="406" on="0"/>
        <pt x="190" y="359" on="0"/>
      </contour>
    </TTGlyph>
    <TTGlyph name="uni0E31" xMin="-651" yMin="1208" xMax="170" yMax="1620">
      <contour>
        <pt x="-365" y="1208" on="1"/>
        <pt x="-502" y="1208" on="0"/>
        <pt x="-651" y="1322" on="0"/>
        <pt x="-651" y="1419" on="1"/>
        <pt x="-651" y="1506" on="0"/>
        <pt x="-541" y="1604" on="0"/>
        <pt x="-453" y="1604" on="1"/>
        <pt x="-364" y="1604" on="0"/>
        <pt x="-256" y="1510" on="0"/>
        <pt x="-256" y="1432" on="1"/>
        <pt x="-256" y="1401" on="0"/>
        <pt x="-278" y="1338" on="0"/>
        <pt x="-291" y="1321" on="1"/>
        <pt x="-196" y="1347" on="0"/>
        <pt x="-80" y="1491" on="0"/>
        <pt x="-55" y="1620" on="1"/>
        <pt x="170" y="1587" on="1"/>
        <pt x="128" y="1413" on="0"/>
        <pt x="-154" y="1208" on="0"/>
      </contour>
      <contour>
        <pt x="-541" y="1419" on="1"/>
        <pt x="-541" y="1379" on="0"/>
        <pt x="-493" y="1331" on="0"/>
        <pt x="-453" y="1331" on="1"/>
        <pt x="-415" y="1331" on="0"/>
        <pt x="-367" y="1379" on="0"/>
        <pt x="-367" y="1419" on="1"/>
        <pt x="-367" y="1461" on="0"/>
        <pt x="-415" y="1507" on="0"/>
        <pt x="-453" y="1507" on="1"/>
        <pt x="-493" y="1507" on="0"/>
        <pt x="-541" y="1461" on="0"/>
      </contour>
    </TTGlyph>
    <TTGlyph name="uni0E32" xMin="0" yMin="0" xMax="913" yMax="1147">
      <contour>
        <pt x="629" y="0" on="1"/>
        <pt x="629" y="647" on="1"/>
        <pt x="629" y="788" on="0"/>
        <pt x="583" y="955" on="0"/>
        <pt x="485" y="1032" on="0"/>
        <pt x="395" y="1032" on="1"/>
        <pt x="318" y="1032" on="0"/>
        <pt x="144" y="969" on="0"/>
        <pt x="59" y="909" on="1"/>
        <pt x="0" y="1008" on="1"/>
        <pt x="209" y="1147" on="0"/>
        <pt x="465" y="1147" on="1"/>
        <pt x="680" y="1147" on="0"/>
        <pt x="913" y="914" on="0"/>
        <pt x="913" y="684" on="1"/>
        <pt x="913" y="205" on="1"/>
        <pt x="721" y="0" on="1"/>
      </contour>
    </TTGlyph>
    <TTGlyph name="uni0E33" xMin="-507" yMin="0" xMax="913" yMax="1575">
      <component glyphName="uni0E32" x="0" y="0" flags="0x204"/>
      <component glyphName="uni0E4D" x="-36" y="0" flags="0x4"/>
    </TTGlyph>
    <TTGlyph name="uni0E34" xMin="-1065" yMin="1206" xMax="-186" yMax="1622">
      <contour>
        <pt x="-186" y="1206" on="1"/>
        <pt x="-383" y="1247" on="0"/>
        <pt x="-779" y="1284" on="0"/>
        <pt x="-1065" y="1284" on="1"/>
        <pt x="-1031" y="1436" on="0"/>
        <pt x="-806" y="1622" on="0"/>
        <pt x="-655" y="1622" on="1"/>
        <pt x="-474" y="1622" on="0"/>
        <pt x="-228" y="1409" on="0"/>
      </contour>
      <contour>
        <pt x="-637" y="1473" on="1"/>
        <pt x="-800" y="1473" on="0"/>
        <pt x="-854" y="1376" on="1"/>
        <pt x="-568" y="1376" on="0"/>
        <pt x="-340" y="1315" on="1"/>
        <pt x="-375" y="1389" on="0"/>
        <pt x="-534" y="1473" on="0"/>
      </contour>
    </TTGlyph>
    <TTGlyph name="uni0E35" xMin="-1065" yMin="1206" xMax="-186" yMax="1692">
      <contour>
        <pt x="-186" y="1206" on="1"/>
        <pt x="-383" y="1247" on="0"/>
        <pt x="-779" y="1284" on="0"/>
        <pt x="-1065" y="1284" on="1"/>
        <pt x="-1031" y="1436" on="0"/>
        <pt x="-806" y="1622" on="0"/>
        <pt x="-655" y="1622" on="1"/>
        <pt x="-471" y="1622" on="0"/>
        <pt x="-346" y="1509" on="1"/>
        <pt x="-346" y="1692" on="1"/>
        <pt x="-207" y="1692" on="1"/>
        <pt x="-207" y="1286" on="1"/>
      </contour>
      <contour>
        <pt x="-637" y="1473" on="1"/>
        <pt x="-800" y="1473" on="0"/>
        <pt x="-854" y="1376" on="1"/>
        <pt x="-568" y="1376" on="0"/>
        <pt x="-340" y="1315" on="1"/>
        <pt x="-375" y="1389" on="0"/>
        <pt x="-534" y="1473" on="0"/>
      </contour>
    </TTGlyph>
    <TTGlyph name="uni0E36" xMin="-1065" yMin="1206" xMax="-68" yMax="1677">
      <contour>
        <pt x="-186" y="1206" on="1"/>
        <pt x="-383" y="1247" on="0"/>
        <pt x="-779" y="1284" on="0"/>
        <pt x="-1065" y="1284" on="1"/>
        <pt x="-1031" y="1436" on="0"/>
        <pt x="-806" y="1622" on="0"/>
        <pt x="-655" y="1622" on="1"/>
        <pt x="-528" y="1622" on="0"/>
        <pt x="-424" y="1567" on="1"/>
        <pt x="-405" y="1618" on="0"/>
        <pt x="-317" y="1677" on="0"/>
        <pt x="-254" y="1677" on="1"/>
        <pt x="-169" y="1677" on="0"/>
        <pt x="-68" y="1582" on="0"/>
        <pt x="-68" y="1497" on="1"/>
        <pt x="-68" y="1429" on="0"/>
        <pt x="-153" y="1343" on="0"/>
        <pt x="-225" y="1335" on="1"/>
        <pt x="-199" y="1273" on="0"/>
      </contour>
      <contour>
        <pt x="-637" y="1473" on="1"/>
        <pt x="-800" y="1473" on="0"/>
        <pt x="-854" y="1376" on="1"/>
        <pt x="-568" y="1376" on="0"/>
        <pt x="-340" y="1315" on="1"/>
        <pt x="-375" y="1389" on="0"/>
        <pt x="-534" y="1473" on="0"/>
      </contour>
      <contour>
        <pt x="-330" y="1497" on="1"/>
        <pt x="-330" y="1427" on="0"/>
        <pt x="-252" y="1427" on="1"/>
        <pt x="-220" y="1427" on="0"/>
        <pt x="-174" y="1460" on="0"/>
        <pt x="-174" y="1497" on="1"/>
        <pt x="-174" y="1544" on="0"/>
        <pt x="-220" y="1585" on="0"/>
        <pt x="-252" y="1585" on="1"/>
        <pt x="-330" y="1585" on="0"/>
      </contour>
    </TTGlyph>
    <TTGlyph name="uni0E37" xMin="-1065" yMin="1206" xMax="-186" yMax="1692">
      <contour>
        <pt x="-186" y="1206" on="1"/>
        <pt x="-383" y="1247" on="0"/>
        <pt x="-779" y="1284" on="0"/>
        <pt x="-1065" y="1284" on="1"/>
        <pt x="-1031" y="1436" on="0"/>
        <pt x="-806" y="1622" on="0"/>
        <pt x="-655" y="1622" on="1"/>
        <pt x="-603" y="1622" on="0"/>
        <pt x="-553" y="1612" on="1"/>
        <pt x="-553" y="1692" on="1"/>
        <pt x="-426" y="1692" on="1"/>
        <pt x="-426" y="1567" on="1"/>
        <pt x="-371" y="1536" on="0"/>
        <pt x="-334" y="1499" on="1"/>
        <pt x="-334" y="1692" on="1"/>
        <pt x="-207" y="1692" on="1"/>
        <pt x="-207" y="1286" on="1"/>
      </contour>
      <contour>
        <pt x="-637" y="1473" on="1"/>
        <pt x="-800" y="1473" on="0"/>
        <pt x="-854" y="1376" on="1"/>
        <pt x="-568" y="1376" on="0"/>
        <pt x="-340" y="1315" on="1"/>
        <pt x="-375" y="1389" on="0"/>
        <pt x="-534" y="1473" on="0"/>
      </contour>
    </TTGlyph>
    <TTGlyph name="uni0E38" xMin="-479" yMin="-520" xMax="-166" yMax="-74">
      <contour>
        <pt x="-307" y="-358" on="1"/>
        <pt x="-324" y="-358" on="1"/>
        <pt x="-395" y="-358" on="0"/>
        <pt x="-479" y="-282" on="0"/>
        <pt x="-479" y="-217" on="1"/>
        <pt x="-479" y="-152" on="0"/>
        <pt x="-395" y="-74" on="0"/>
        <pt x="-324" y="-74" on="1"/>
        <pt x="-251" y="-74" on="0"/>
        <pt x="-166" y="-149" on="0"/>
        <pt x="-166" y="-217" on="1"/>
        <pt x="-166" y="-520" on="1"/>
        <pt x="-307" y="-520" on="1"/>
      </contour>
      <contour>
        <pt x="-373" y="-217" on="1"/>
        <pt x="-373" y="-266" on="0"/>
        <pt x="-322" y="-266" on="1"/>
        <pt x="-302" y="-266" on="0"/>
        <pt x="-272" y="-243" on="0"/>
        <pt x="-272" y="-217" on="1"/>
        <pt x="-272" y="-191" on="0"/>
        <pt x="-302" y="-166" on="0"/>
        <pt x="-322" y="-166" on="1"/>
        <pt x="-373" y="-166" on="0"/>
      </contour>
    </TTGlyph>
    <TTGlyph name="uni0E39" xMin="-780" yMin="-520" xMax="-168" yMax="-74">
      <contour>
        <pt x="-610" y="-358" on="1"/>
        <pt x="-625" y="-358" on="1"/>
        <pt x="-696" y="-358" on="0"/>
        <pt x="-780" y="-282" on="0"/>
        <pt x="-780" y="-217" on="1"/>
        <pt x="-780" y="-152" on="0"/>
        <pt x="-696" y="-74" on="0"/>
        <pt x="-625" y="-74" on="1"/>
        <pt x="-552" y="-74" on="0"/>
        <pt x="-467" y="-149" on="0"/>
        <pt x="-467" y="-217" on="1"/>
        <pt x="-467" y="-414" on="1"/>
        <pt x="-311" y="-414" on="1"/>
        <pt x="-311" y="-102" on="1"/>
        <pt x="-168" y="-102" on="1"/>
        <pt x="-168" y="-520" on="1"/>
        <pt x="-610" y="-520" on="1"/>
      </contour>
      <contour>
        <pt x="-674" y="-217" on="1"/>
        <pt x="-674" y="-266" on="0"/>
        <pt x="-623" y="-266" on="1"/>
        <pt x="-603" y="-266" on="0"/>
        <pt x="-573" y="-243" on="0"/>
        <pt x="-573" y="-217" on="1"/>
        <pt x="-573" y="-191" on="0"/>
        <pt x="-603" y="-166" on="0"/>
        <pt x="-623" y="-166" on="1"/>
        <pt x="-674" y="-166" on="0"/>
      </contour>
    </TTGlyph>
    <TTGlyph name="uni0E3A" xMin="-412" yMin="-387" xMax="-129" yMax="-102">
      <contour>
        <pt x="-412" y="-244" on="1"/>
        <pt x="-412" y="-185" on="0"/>
        <pt x="-329" y="-102" on="0"/>
        <pt x="-270" y="-102" on="1"/>
        <pt x="-212" y="-102" on="0"/>
        <pt x="-129" y="-185" on="0"/>
        <pt x="-129" y="-244" on="1"/>
        <pt x="-129" y="-304" on="0"/>
        <pt x="-213" y="-387" on="0"/>
        <pt x="-270" y="-387" on="1"/>
        <pt x="-329" y="-387" on="0"/>
        <pt x="-412" y="-304" on="0"/>
      </contour>
    </TTGlyph>
    <TTGlyph name="uni0E3F" xMin="16" yMin="-162" xMax="1083" yMax="1556">
      <contour>
        <pt x="535" y="-162" on="1"/>
        <pt x="535" y="0" on="1"/>
        <pt x="16" y="0" on="1"/>
        <pt x="16" y="109" on="1"/>
        <pt x="70" y="109" on="1"/>
        <pt x="130" y="109" on="0"/>
        <pt x="176" y="175" on="0"/>
        <pt x="176" y="242" on="1"/>
        <pt x="176" y="1223" on="1"/>
        <pt x="176" y="1290" on="0"/>
        <pt x="126" y="1354" on="0"/>
        <pt x="70" y="1354" on="1"/>
        <pt x="16" y="1354" on="1"/>
        <pt x="16" y="1462" on="1"/>
        <pt x="535" y="1462" on="1"/>
        <pt x="535" y="1556" on="1"/>
        <pt x="649" y="1556" on="1"/>
        <pt x="649" y="1462" on="1"/>
        <pt x="836" y="1454" on="0"/>
        <pt x="1055" y="1257" on="0"/>
        <pt x="1055" y="1098" on="1"/>
        <pt x="1055" y="861" on="0"/>
        <pt x="791" y="778" on="1"/>
        <pt x="791" y="768" on="1"/>
        <pt x="1083" y="696" on="0"/>
        <pt x="1083" y="401" on="1"/>
        <pt x="1083" y="289" on="0"/>
        <pt x="970" y="105" on="0"/>
        <pt x="769" y="0" on="0"/>
        <pt x="649" y="0" on="1"/>
        <pt x="649" y="-162" on="1"/>
      </contour>
      <contour>
        <pt x="801" y="408" on="1"/>
        <pt x="801" y="545" on="0"/>
        <pt x="734" y="692" on="0"/>
        <pt x="649" y="705" on="1"/>
        <pt x="649" y="117" on="1"/>
        <pt x="729" y="127" on="0"/>
        <pt x="801" y="266" on="0"/>
      </contour>
      <contour>
        <pt x="438" y="117" on="1"/>
        <pt x="535" y="117" on="1"/>
        <pt x="535" y="707" on="1"/>
        <pt x="438" y="707" on="1"/>
      </contour>
      <contour>
        <pt x="438" y="823" on="1"/>
        <pt x="535" y="823" on="1"/>
        <pt x="535" y="1346" on="1"/>
        <pt x="438" y="1346" on="1"/>
      </contour>
      <contour>
        <pt x="772" y="1090" on="1"/>
        <pt x="772" y="1199" on="0"/>
        <pt x="712" y="1323" on="0"/>
        <pt x="649" y="1343" on="1"/>
        <pt x="649" y="825" on="1"/>
        <pt x="772" y="847" on="0"/>
      </contour>
    </TTGlyph>
    <TTGlyph name="uni0E40" xMin="164" yMin="-20" xMax="635" yMax="1126">
      <contour>
        <pt x="449" y="360" on="1"/>
        <pt x="538" y="355" on="0"/>
        <pt x="635" y="258" on="0"/>
        <pt x="635" y="176" on="1"/>
        <pt x="635" y="86" on="0"/>
        <pt x="517" y="-20" on="0"/>
        <pt x="422" y="-20" on="1"/>
        <pt x="164" y="-20" on="0"/>
        <pt x="164" y="258" on="1"/>
        <pt x="164" y="922" on="1"/>
        <pt x="356" y="1126" on="1"/>
        <pt x="449" y="1126" on="1"/>
      </contour>
      <contour>
        <pt x="516" y="170" on="1"/>
        <pt x="516" y="207" on="0"/>
        <pt x="468" y="252" on="0"/>
        <pt x="430" y="252" on="1"/>
        <pt x="395" y="252" on="0"/>
        <pt x="346" y="207" on="0"/>
        <pt x="346" y="170" on="1"/>
        <pt x="346" y="132" on="0"/>
        <pt x="395" y="86" on="0"/>
        <pt x="430" y="86" on="1"/>
        <pt x="468" y="86" on="0"/>
        <pt x="516" y="132" on="0"/>
      </contour>
    </TTGlyph>
    <TTGlyph name="uni0E41" xMin="164" yMin="-20" xMax="1208" yMax="1126">
      <contour>
        <pt x="449" y="360" on="1"/>
        <pt x="538" y="355" on="0"/>
        <pt x="635" y="258" on="0"/>
        <pt x="635" y="176" on="1"/>
        <pt x="635" y="86" on="0"/>
        <pt x="517" y="-20" on="0"/>
        <pt x="422" y="-20" on="1"/>
        <pt x="164" y="-20" on="0"/>
        <pt x="164" y="258" on="1"/>
        <pt x="164" y="922" on="1"/>
        <pt x="356" y="1126" on="1"/>
        <pt x="449" y="1126" on="1"/>
      </contour>
      <contour>
        <pt x="516" y="170" on="1"/>
        <pt x="516" y="207" on="0"/>
        <pt x="468" y="252" on="0"/>
        <pt x="430" y="252" on="1"/>
        <pt x="395" y="252" on="0"/>
        <pt x="346" y="207" on="0"/>
        <pt x="346" y="170" on="1"/>
        <pt x="346" y="132" on="0"/>
        <pt x="395" y="86" on="0"/>
        <pt x="430" y="86" on="1"/>
        <pt x="468" y="86" on="0"/>
        <pt x="516" y="132" on="0"/>
      </contour>
      <contour>
        <pt x="1022" y="360" on="1"/>
        <pt x="1111" y="355" on="0"/>
        <pt x="1208" y="258" on="0"/>
        <pt x="1208" y="176" on="1"/>
        <pt x="1208" y="86" on="0"/>
        <pt x="1090" y="-20" on="0"/>
        <pt x="995" y="-20" on="1"/>
        <pt x="737" y="-20" on="0"/>
        <pt x="737" y="258" on="1"/>
        <pt x="737" y="922" on="1"/>
        <pt x="930" y="1126" on="1"/>
        <pt x="1022" y="1126" on="1"/>
      </contour>
      <contour>
        <pt x="1090" y="170" on="1"/>
        <pt x="1090" y="207" on="0"/>
        <pt x="1042" y="252" on="0"/>
        <pt x="1004" y="252" on="1"/>
        <pt x="968" y="252" on="0"/>
        <pt x="920" y="207" on="0"/>
        <pt x="920" y="170" on="1"/>
        <pt x="920" y="132" on="0"/>
        <pt x="968" y="86" on="0"/>
        <pt x="1004" y="86" on="1"/>
        <pt x="1042" y="86" on="0"/>
        <pt x="1090" y="132" on="0"/>
      </contour>
    </TTGlyph>
    <TTGlyph name="uni0E42" xMin="0" yMin="-20" xMax="961" yMax="2044">
      <contour>
        <pt x="397" y="1378" on="1"/>
        <pt x="397" y="1469" on="0"/>
        <pt x="325" y="1538" on="0"/>
        <pt x="244" y="1538" on="1"/>
        <pt x="0" y="1538" on="1"/>
        <pt x="0" y="1649" on="1"/>
        <pt x="0" y="1833" on="0"/>
        <pt x="173" y="2011" on="0"/>
        <pt x="350" y="2011" on="1"/>
        <pt x="393" y="2011" on="0"/>
        <pt x="508" y="1994" on="1"/>
        <pt x="622" y="1976" on="0"/>
        <pt x="692" y="1976" on="1"/>
        <pt x="752" y="1976" on="0"/>
        <pt x="852" y="2012" on="0"/>
        <pt x="881" y="2044" on="1"/>
        <pt x="961" y="1985" on="1"/>
        <pt x="837" y="1767" on="0"/>
        <pt x="655" y="1767" on="1"/>
        <pt x="606" y="1767" on="0"/>
        <pt x="500" y="1785" on="1"/>
        <pt x="393" y="1802" on="0"/>
        <pt x="352" y="1802" on="1"/>
        <pt x="235" y="1802" on="0"/>
        <pt x="120" y="1733" on="0"/>
        <pt x="111" y="1649" on="1"/>
        <pt x="399" y="1649" on="1"/>
        <pt x="682" y="1649" on="0"/>
        <pt x="682" y="1384" on="1"/>
        <pt x="682" y="360" on="1"/>
        <pt x="771" y="355" on="0"/>
        <pt x="868" y="258" on="0"/>
        <pt x="868" y="176" on="1"/>
        <pt x="868" y="86" on="0"/>
        <pt x="750" y="-20" on="0"/>
        <pt x="655" y="-20" on="1"/>
        <pt x="397" y="-20" on="0"/>
        <pt x="397" y="258" on="1"/>
      </contour>
      <contour>
        <pt x="750" y="170" on="1"/>
        <pt x="750" y="207" on="0"/>
        <pt x="702" y="252" on="0"/>
        <pt x="664" y="252" on="1"/>
        <pt x="628" y="252" on="0"/>
        <pt x="580" y="207" on="0"/>
        <pt x="580" y="170" on="1"/>
        <pt x="580" y="132" on="0"/>
        <pt x="628" y="86" on="0"/>
        <pt x="664" y="86" on="1"/>
        <pt x="702" y="86" on="0"/>
        <pt x="750" y="132" on="0"/>
      </contour>
    </TTGlyph>
    <TTGlyph name="uni0E43" xMin="0" yMin="-20" xMax="911" yMax="2064">
      <contour>
        <pt x="707" y="360" on="1"/>
        <pt x="796" y="355" on="0"/>
        <pt x="893" y="258" on="0"/>
        <pt x="893" y="176" on="1"/>
        <pt x="893" y="86" on="0"/>
        <pt x="775" y="-20" on="0"/>
        <pt x="680" y="-20" on="1"/>
        <pt x="422" y="-20" on="0"/>
        <pt x="422" y="258" on="1"/>
        <pt x="422" y="1366" on="1"/>
        <pt x="422" y="1662" on="0"/>
        <pt x="625" y="1737" on="1"/>
        <pt x="623" y="1845" on="0"/>
        <pt x="500" y="1954" on="0"/>
        <pt x="391" y="1954" on="1"/>
        <pt x="281" y="1954" on="0"/>
        <pt x="135" y="1845" on="0"/>
        <pt x="123" y="1751" on="1"/>
        <pt x="166" y="1806" on="0"/>
        <pt x="246" y="1806" on="1"/>
        <pt x="323" y="1806" on="0"/>
        <pt x="414" y="1709" on="0"/>
        <pt x="414" y="1628" on="1"/>
        <pt x="414" y="1546" on="0"/>
        <pt x="309" y="1444" on="0"/>
        <pt x="221" y="1444" on="1"/>
        <pt x="116" y="1444" on="0"/>
        <pt x="0" y="1570" on="0"/>
        <pt x="0" y="1688" on="1"/>
        <pt x="0" y="1863" on="0"/>
        <pt x="233" y="2064" on="0"/>
        <pt x="438" y="2064" on="1"/>
        <pt x="646" y="2064" on="0"/>
        <pt x="894" y="1874" on="0"/>
        <pt x="911" y="1708" on="1"/>
        <pt x="798" y="1673" on="0"/>
        <pt x="707" y="1529" on="0"/>
        <pt x="707" y="1376" on="1"/>
      </contour>
      <contour>
        <pt x="303" y="1626" on="1"/>
        <pt x="303" y="1664" on="0"/>
        <pt x="256" y="1712" on="0"/>
        <pt x="219" y="1712" on="1"/>
        <pt x="179" y="1712" on="0"/>
        <pt x="137" y="1664" on="0"/>
        <pt x="137" y="1626" on="1"/>
        <pt x="137" y="1586" on="0"/>
        <pt x="181" y="1540" on="0"/>
        <pt x="219" y="1540" on="1"/>
        <pt x="257" y="1540" on="0"/>
        <pt x="303" y="1586" on="0"/>
      </contour>
      <contour>
        <pt x="774" y="170" on="1"/>
        <pt x="774" y="207" on="0"/>
        <pt x="726" y="252" on="0"/>
        <pt x="688" y="252" on="1"/>
        <pt x="653" y="252" on="0"/>
        <pt x="604" y="207" on="0"/>
        <pt x="604" y="170" on="1"/>
        <pt x="604" y="132" on="0"/>
        <pt x="653" y="86" on="0"/>
        <pt x="688" y="86" on="1"/>
        <pt x="726" y="86" on="0"/>
        <pt x="774" y="132" on="0"/>
      </contour>
    </TTGlyph>
    <TTGlyph name="uni0E44" xMin="-29" yMin="-20" xMax="1094" yMax="2064">
      <contour>
        <pt x="623" y="1833" on="1"/>
        <pt x="623" y="1877" on="0"/>
        <pt x="601" y="1907" on="0"/>
        <pt x="582" y="1907" on="1"/>
        <pt x="535" y="1907" on="0"/>
        <pt x="489" y="1767" on="1"/>
        <pt x="340" y="1313" on="1"/>
        <pt x="242" y="1313" on="1"/>
        <pt x="109" y="1731" on="1"/>
        <pt x="64" y="1871" on="0"/>
        <pt x="33" y="1938" on="0"/>
        <pt x="1" y="1964" on="0"/>
        <pt x="-29" y="1966" on="1"/>
        <pt x="-29" y="2064" on="1"/>
        <pt x="66" y="2064" on="0"/>
        <pt x="149" y="2043" on="0"/>
        <pt x="201" y="1993" on="0"/>
        <pt x="247" y="1891" on="0"/>
        <pt x="297" y="1726" on="1"/>
        <pt x="330" y="1618" on="1"/>
        <pt x="399" y="1825" on="1"/>
        <pt x="482" y="2064" on="0"/>
        <pt x="672" y="2064" on="1"/>
        <pt x="799" y="2064" on="0"/>
        <pt x="907" y="1922" on="0"/>
        <pt x="907" y="1761" on="1"/>
        <pt x="907" y="360" on="1"/>
        <pt x="996" y="355" on="0"/>
        <pt x="1094" y="258" on="0"/>
        <pt x="1094" y="176" on="1"/>
        <pt x="1094" y="86" on="0"/>
        <pt x="976" y="-20" on="0"/>
        <pt x="881" y="-20" on="1"/>
        <pt x="623" y="-20" on="0"/>
        <pt x="623" y="258" on="1"/>
      </contour>
      <contour>
        <pt x="975" y="170" on="1"/>
        <pt x="975" y="207" on="0"/>
        <pt x="927" y="252" on="0"/>
        <pt x="889" y="252" on="1"/>
        <pt x="854" y="252" on="0"/>
        <pt x="805" y="207" on="0"/>
        <pt x="805" y="170" on="1"/>
        <pt x="805" y="132" on="0"/>
        <pt x="854" y="86" on="0"/>
        <pt x="889" y="86" on="1"/>
        <pt x="927" y="86" on="0"/>
        <pt x="975" y="132" on="0"/>
      </contour>
    </TTGlyph>
    <TTGlyph name="uni0E45" xMin="0" yMin="-520" xMax="913" yMax="1147">
      <contour>
        <pt x="629" y="-520" on="1"/>
        <pt x="629" y="647" on="1"/>
        <pt x="629" y="787" on="0"/>
        <pt x="582" y="954" on="0"/>
        <pt x="485" y="1032" on="0"/>
        <pt x="393" y="1032" on="1"/>
        <pt x="302" y="1032" on="0"/>
        <pt x="135" y="970" on="0"/>
        <pt x="59" y="909" on="1"/>
        <pt x="0" y="1008" on="1"/>
        <pt x="209" y="1147" on="0"/>
        <pt x="465" y="1147" on="1"/>
        <pt x="680" y="1147" on="0"/>
        <pt x="913" y="914" on="0"/>
        <pt x="913" y="684" on="1"/>
        <pt x="913" y="-315" on="1"/>
        <pt x="721" y="-520" on="1"/>
      </contour>
    </TTGlyph>
    <TTGlyph name="uni0E46" xMin="59" yMin="-520" xMax="969" yMax="1147">
      <contour>
        <pt x="362" y="709" on="1"/>
        <pt x="362" y="747" on="0"/>
        <pt x="316" y="793" on="0"/>
        <pt x="279" y="793" on="1"/>
        <pt x="238" y="793" on="0"/>
        <pt x="197" y="747" on="0"/>
        <pt x="197" y="709" on="1"/>
        <pt x="197" y="668" on="0"/>
        <pt x="240" y="623" on="0"/>
        <pt x="279" y="623" on="1"/>
        <pt x="317" y="623" on="0"/>
        <pt x="362" y="668" on="0"/>
      </contour>
      <contour>
        <pt x="684" y="819" on="1"/>
        <pt x="684" y="985" on="0"/>
        <pt x="612" y="1016" on="1"/>
        <pt x="487" y="907" on="1"/>
        <pt x="350" y="1030" on="1"/>
        <pt x="285" y="1013" on="0"/>
        <pt x="193" y="907" on="0"/>
        <pt x="182" y="834" on="1"/>
        <pt x="225" y="889" on="0"/>
        <pt x="305" y="889" on="1"/>
        <pt x="382" y="889" on="0"/>
        <pt x="473" y="792" on="0"/>
        <pt x="473" y="711" on="1"/>
        <pt x="473" y="627" on="0"/>
        <pt x="367" y="526" on="0"/>
        <pt x="281" y="526" on="1"/>
        <pt x="180" y="526" on="0"/>
        <pt x="59" y="660" on="0"/>
        <pt x="59" y="770" on="1"/>
        <pt x="59" y="923" on="0"/>
        <pt x="235" y="1135" on="0"/>
        <pt x="373" y="1147" on="1"/>
        <pt x="487" y="1047" on="1"/>
        <pt x="602" y="1147" on="1"/>
        <pt x="770" y="1141" on="0"/>
        <pt x="969" y="952" on="0"/>
        <pt x="969" y="791" on="1"/>
        <pt x="969" y="-315" on="1"/>
        <pt x="776" y="-520" on="1"/>
        <pt x="684" y="-520" on="1"/>
      </contour>
    </TTGlyph>
    <TTGlyph name="uni0E47" xMin="-860" yMin="1221" xMax="-94" yMax="1749">
      <contour>
        <pt x="-557" y="1493" on="1"/>
        <pt x="-464" y="1392" on="0"/>
        <pt x="-339" y="1311" on="0"/>
        <pt x="-289" y="1311" on="1"/>
        <pt x="-235" y="1311" on="0"/>
        <pt x="-211" y="1337" on="1"/>
        <pt x="-222" y="1335" on="1"/>
        <pt x="-233" y="1335" on="1"/>
        <pt x="-269" y="1335" on="0"/>
        <pt x="-324" y="1380" on="0"/>
        <pt x="-324" y="1430" on="1"/>
        <pt x="-324" y="1475" on="0"/>
        <pt x="-267" y="1530" on="0"/>
        <pt x="-221" y="1530" on="1"/>
        <pt x="-164" y="1530" on="0"/>
        <pt x="-102" y="1462" on="0"/>
        <pt x="-102" y="1399" on="1"/>
        <pt x="-102" y="1314" on="0"/>
        <pt x="-207" y="1221" on="0"/>
        <pt x="-297" y="1221" on="1"/>
        <pt x="-357" y="1221" on="0"/>
        <pt x="-492" y="1291" on="0"/>
        <pt x="-545" y="1350" on="1"/>
        <pt x="-596" y="1279" on="0"/>
        <pt x="-653" y="1229" on="1"/>
        <pt x="-737" y="1243" on="0"/>
        <pt x="-860" y="1388" on="0"/>
        <pt x="-860" y="1479" on="1"/>
        <pt x="-860" y="1603" on="0"/>
        <pt x="-715" y="1726" on="0"/>
        <pt x="-578" y="1726" on="1"/>
        <pt x="-538" y="1726" on="0"/>
        <pt x="-453" y="1716" on="1"/>
        <pt x="-368" y="1706" on="0"/>
        <pt x="-305" y="1706" on="1"/>
        <pt x="-194" y="1706" on="0"/>
        <pt x="-154" y="1749" on="1"/>
        <pt x="-94" y="1704" on="1"/>
        <pt x="-144" y="1621" on="0"/>
        <pt x="-265" y="1554" on="0"/>
        <pt x="-338" y="1554" on="1"/>
        <pt x="-400" y="1558" on="1"/>
        <pt x="-563" y="1575" on="0"/>
        <pt x="-600" y="1575" on="1"/>
        <pt x="-676" y="1575" on="0"/>
        <pt x="-750" y="1530" on="0"/>
        <pt x="-750" y="1479" on="1"/>
        <pt x="-750" y="1440" on="0"/>
        <pt x="-701" y="1365" on="0"/>
        <pt x="-666" y="1348" on="1"/>
        <pt x="-641" y="1371" on="0"/>
        <pt x="-578" y="1452" on="0"/>
      </contour>
      <contour>
        <pt x="-254" y="1432" on="1"/>
        <pt x="-254" y="1416" on="0"/>
        <pt x="-235" y="1395" on="0"/>
        <pt x="-219" y="1395" on="1"/>
        <pt x="-186" y="1395" on="0"/>
        <pt x="-186" y="1432" on="1"/>
        <pt x="-186" y="1468" on="0"/>
        <pt x="-219" y="1468" on="1"/>
        <pt x="-254" y="1468" on="0"/>
      </contour>
    </TTGlyph>
    <TTGlyph name="uni0E48" xMin="-457" yMin="1221" xMax="-180" yMax="1583">
      <contour>
        <pt x="-457" y="1583" on="1"/>
        <pt x="-180" y="1583" on="1"/>
        <pt x="-242" y="1221" on="1"/>
        <pt x="-395" y="1221" on="1"/>
      </contour>
    </TTGlyph>
    <TTGlyph name="uni0E48.small" xMin="-457" yMin="1776" xMax="-180" yMax="2138">
      <component glyphName="uni0E48" x="0" y="555" flags="0x4"/>
    </TTGlyph>
    <TTGlyph name="uni0E49" xMin="-805" yMin="1208" xMax="-57" yMax="1661">
      <contour>
        <pt x="-805" y="1503" on="1"/>
        <pt x="-805" y="1575" on="0"/>
        <pt x="-713" y="1661" on="0"/>
        <pt x="-635" y="1661" on="1"/>
        <pt x="-556" y="1661" on="0"/>
        <pt x="-461" y="1566" on="0"/>
        <pt x="-461" y="1489" on="1"/>
        <pt x="-461" y="1386" on="0"/>
        <pt x="-539" y="1321" on="1"/>
        <pt x="-445" y="1335" on="0"/>
        <pt x="-310" y="1516" on="0"/>
        <pt x="-283" y="1661" on="1"/>
        <pt x="-57" y="1628" on="1"/>
        <pt x="-106" y="1428" on="0"/>
        <pt x="-432" y="1208" on="0"/>
        <pt x="-680" y="1208" on="1"/>
        <pt x="-709" y="1305" on="1"/>
        <pt x="-674" y="1316" on="0"/>
        <pt x="-637" y="1348" on="1"/>
        <pt x="-715" y="1353" on="0"/>
        <pt x="-805" y="1431" on="0"/>
      </contour>
      <contour>
        <pt x="-698" y="1503" on="1"/>
        <pt x="-698" y="1469" on="0"/>
        <pt x="-661" y="1438" on="0"/>
        <pt x="-633" y="1438" on="1"/>
        <pt x="-607" y="1438" on="0"/>
        <pt x="-567" y="1469" on="0"/>
        <pt x="-567" y="1503" on="1"/>
        <pt x="-567" y="1537" on="0"/>
        <pt x="-607" y="1569" on="0"/>
        <pt x="-633" y="1569" on="1"/>
        <pt x="-661" y="1569" on="0"/>
        <pt x="-698" y="1537" on="0"/>
      </contour>
    </TTGlyph>
    <TTGlyph name="uni0E49.small" xMin="-754" yMin="1763" xMax="-6" yMax="2216">
      <component glyphName="uni0E49" x="51" y="555" flags="0x4"/>
    </TTGlyph>
    <TTGlyph name="uni0E4A" xMin="-924" yMin="1217" xMax="4" yMax="1661">
      <contour>
        <pt x="-692" y="1354" on="1"/>
        <pt x="-692" y="1383" on="0"/>
        <pt x="-727" y="1415" on="0"/>
        <pt x="-756" y="1415" on="1"/>
        <pt x="-817" y="1415" on="0"/>
        <pt x="-817" y="1354" on="1"/>
        <pt x="-817" y="1325" on="0"/>
        <pt x="-785" y="1290" on="0"/>
        <pt x="-756" y="1290" on="1"/>
        <pt x="-727" y="1290" on="0"/>
        <pt x="-692" y="1325" on="0"/>
      </contour>
      <contour>
        <pt x="-512" y="1217" on="1"/>
        <pt x="-455" y="1308" on="0"/>
        <pt x="-455" y="1417" on="1"/>
        <pt x="-455" y="1523" on="0"/>
        <pt x="-516" y="1552" on="1"/>
        <pt x="-606" y="1479" on="1"/>
        <pt x="-707" y="1563" on="1"/>
        <pt x="-759" y="1549" on="0"/>
        <pt x="-817" y="1496" on="0"/>
        <pt x="-825" y="1450" on="1"/>
        <pt x="-795" y="1491" on="0"/>
        <pt x="-735" y="1491" on="1"/>
        <pt x="-678" y="1491" on="0"/>
        <pt x="-606" y="1418" on="0"/>
        <pt x="-606" y="1356" on="1"/>
        <pt x="-606" y="1292" on="0"/>
        <pt x="-688" y="1217" on="0"/>
        <pt x="-754" y="1217" on="1"/>
        <pt x="-832" y="1217" on="0"/>
        <pt x="-924" y="1319" on="0"/>
        <pt x="-924" y="1401" on="1"/>
        <pt x="-924" y="1512" on="0"/>
        <pt x="-796" y="1650" on="0"/>
        <pt x="-684" y="1661" on="1"/>
        <pt x="-600" y="1589" on="1"/>
        <pt x="-520" y="1661" on="1"/>
        <pt x="-441" y="1644" on="0"/>
        <pt x="-340" y="1523" on="0"/>
        <pt x="-340" y="1446" on="1"/>
        <pt x="-340" y="1399" on="0"/>
        <pt x="-347" y="1355" on="0"/>
        <pt x="-358" y="1329" on="1"/>
        <pt x="-306" y="1346" on="0"/>
        <pt x="-236" y="1521" on="0"/>
        <pt x="-221" y="1661" on="1"/>
        <pt x="4" y="1628" on="1"/>
        <pt x="-36" y="1432" on="0"/>
        <pt x="-304" y="1217" on="0"/>
      </contour>
    </TTGlyph>
    <TTGlyph name="uni0E4A.small" xMin="-924" yMin="1776" xMax="4" yMax="2220">
      <component glyphName="uni0E4A" x="0" y="559" flags="0x4"/>
    </TTGlyph>
    <TTGlyph name="uni0E4B" xMin="-518" yMin="1221" xMax="-115" yMax="1640">
      <contour>
        <pt x="-518" y="1352" on="1"/>
        <pt x="-518" y="1509" on="1"/>
        <pt x="-395" y="1509" on="1"/>
        <pt x="-395" y="1640" on="1"/>
        <pt x="-238" y="1640" on="1"/>
        <pt x="-238" y="1509" on="1"/>
        <pt x="-115" y="1509" on="1"/>
        <pt x="-115" y="1352" on="1"/>
        <pt x="-238" y="1352" on="1"/>
        <pt x="-238" y="1221" on="1"/>
        <pt x="-395" y="1221" on="1"/>
        <pt x="-395" y="1352" on="1"/>
      </contour>
    </TTGlyph>
    <TTGlyph name="uni0E4B.small" xMin="-518" yMin="1739" xMax="-115" yMax="2158">
      <component glyphName="uni0E4B" x="0" y="518" flags="0x4"/>
    </TTGlyph>
    <TTGlyph name="uni0E4C" xMin="-834" yMin="1223" xMax="-18" yMax="1745">
      <contour>
        <pt x="-254" y="1745" on="1"/>
        <pt x="-18" y="1745" on="1"/>
        <pt x="-23" y="1650" on="0"/>
        <pt x="-114" y="1549" on="0"/>
        <pt x="-314" y="1498" on="0"/>
        <pt x="-485" y="1493" on="1"/>
        <pt x="-461" y="1452" on="0"/>
        <pt x="-461" y="1395" on="1"/>
        <pt x="-461" y="1316" on="0"/>
        <pt x="-565" y="1223" on="0"/>
        <pt x="-649" y="1223" on="1"/>
        <pt x="-734" y="1223" on="0"/>
        <pt x="-834" y="1316" on="0"/>
        <pt x="-834" y="1395" on="1"/>
        <pt x="-834" y="1569" on="0"/>
        <pt x="-612" y="1585" on="1"/>
        <pt x="-418" y="1600" on="0"/>
        <pt x="-261" y="1674" on="0"/>
      </contour>
      <contour>
        <pt x="-727" y="1395" on="1"/>
        <pt x="-727" y="1353" on="0"/>
        <pt x="-681" y="1315" on="0"/>
        <pt x="-647" y="1315" on="1"/>
        <pt x="-615" y="1315" on="0"/>
        <pt x="-567" y="1353" on="0"/>
        <pt x="-567" y="1395" on="1"/>
        <pt x="-567" y="1437" on="0"/>
        <pt x="-615" y="1475" on="0"/>
        <pt x="-647" y="1475" on="1"/>
        <pt x="-681" y="1475" on="0"/>
        <pt x="-727" y="1437" on="0"/>
      </contour>
    </TTGlyph>
    <TTGlyph name="uni0E4C.small" xMin="-811" yMin="1764" xMax="5" yMax="2286">
      <component glyphName="uni0E4C" x="23" y="541" flags="0x4"/>
    </TTGlyph>
    <TTGlyph name="uni0E4D" xMin="-471" yMin="1214" xMax="-82" yMax="1575">
      <contour>
        <pt x="-471" y="1395" on="1"/>
        <pt x="-471" y="1478" on="0"/>
        <pt x="-364" y="1575" on="0"/>
        <pt x="-279" y="1575" on="1"/>
        <pt x="-189" y="1575" on="0"/>
        <pt x="-82" y="1480" on="0"/>
        <pt x="-82" y="1395" on="1"/>
        <pt x="-82" y="1311" on="0"/>
        <pt x="-189" y="1214" on="0"/>
        <pt x="-279" y="1214" on="1"/>
        <pt x="-366" y="1214" on="0"/>
        <pt x="-471" y="1311" on="0"/>
      </contour>
      <contour>
        <pt x="-360" y="1395" on="1"/>
        <pt x="-360" y="1311" on="0"/>
        <pt x="-276" y="1311" on="1"/>
        <pt x="-241" y="1311" on="0"/>
        <pt x="-193" y="1350" on="0"/>
        <pt x="-193" y="1395" on="1"/>
        <pt x="-193" y="1438" on="0"/>
        <pt x="-241" y="1479" on="0"/>
        <pt x="-276" y="1479" on="1"/>
        <pt x="-314" y="1479" on="0"/>
        <pt x="-360" y="1438" on="0"/>
      </contour>
    </TTGlyph>
    <TTGlyph name="uni0E4E" xMin="-504" yMin="1223" xMax="-74" yMax="1698">
      <contour>
        <pt x="-186" y="1423" on="1"/>
        <pt x="-272" y="1423" on="0"/>
        <pt x="-344" y="1393" on="0"/>
        <pt x="-344" y="1362" on="1"/>
        <pt x="-344" y="1319" on="0"/>
        <pt x="-266" y="1319" on="1"/>
        <pt x="-190" y="1319" on="0"/>
        <pt x="-129" y="1343" on="1"/>
        <pt x="-129" y="1247" on="1"/>
        <pt x="-198" y="1223" on="0"/>
        <pt x="-287" y="1223" on="1"/>
        <pt x="-390" y="1223" on="0"/>
        <pt x="-504" y="1295" on="0"/>
        <pt x="-504" y="1360" on="1"/>
        <pt x="-504" y="1458" on="0"/>
        <pt x="-354" y="1475" on="1"/>
        <pt x="-430" y="1513" on="0"/>
        <pt x="-430" y="1573" on="1"/>
        <pt x="-430" y="1698" on="0"/>
        <pt x="-229" y="1698" on="1"/>
        <pt x="-136" y="1698" on="0"/>
        <pt x="-74" y="1661" on="1"/>
        <pt x="-117" y="1581" on="1"/>
        <pt x="-129" y="1589" on="0"/>
        <pt x="-187" y="1608" on="0"/>
        <pt x="-221" y="1608" on="1"/>
        <pt x="-253" y="1608" on="0"/>
        <pt x="-279" y="1580" on="0"/>
        <pt x="-279" y="1565" on="1"/>
        <pt x="-279" y="1537" on="0"/>
        <pt x="-236" y="1506" on="0"/>
        <pt x="-186" y="1501" on="1"/>
      </contour>
    </TTGlyph>
    <TTGlyph name="uni0E4F" xMin="61" yMin="-20" xMax="1253" yMax="1149">
      <contour>
        <pt x="61" y="563" on="1"/>
        <pt x="61" y="718" on="0"/>
        <pt x="219" y="991" on="0"/>
        <pt x="494" y="1149" on="0"/>
        <pt x="657" y="1149" on="1"/>
        <pt x="822" y="1149" on="0"/>
        <pt x="1097" y="993" on="0"/>
        <pt x="1253" y="720" on="0"/>
        <pt x="1253" y="563" on="1"/>
        <pt x="1253" y="408" on="0"/>
        <pt x="1095" y="136" on="0"/>
        <pt x="820" y="-20" on="0"/>
        <pt x="657" y="-20" on="1"/>
        <pt x="492" y="-20" on="0"/>
        <pt x="216" y="138" on="0"/>
        <pt x="61" y="408" on="0"/>
      </contour>
      <contour>
        <pt x="180" y="563" on="1"/>
        <pt x="180" y="434" on="0"/>
        <pt x="306" y="215" on="0"/>
        <pt x="526" y="90" on="0"/>
        <pt x="657" y="90" on="1"/>
        <pt x="787" y="90" on="0"/>
        <pt x="1009" y="215" on="0"/>
        <pt x="1135" y="433" on="0"/>
        <pt x="1135" y="563" on="1"/>
        <pt x="1135" y="692" on="0"/>
        <pt x="1009" y="913" on="0"/>
        <pt x="788" y="1038" on="0"/>
        <pt x="657" y="1038" on="1"/>
        <pt x="526" y="1038" on="0"/>
        <pt x="306" y="913" on="0"/>
        <pt x="180" y="692" on="0"/>
      </contour>
      <contour>
        <pt x="434" y="563" on="1"/>
        <pt x="434" y="657" on="0"/>
        <pt x="567" y="788" on="0"/>
        <pt x="657" y="788" on="1"/>
        <pt x="748" y="788" on="0"/>
        <pt x="881" y="657" on="0"/>
        <pt x="881" y="563" on="1"/>
        <pt x="881" y="471" on="0"/>
        <pt x="749" y="340" on="0"/>
        <pt x="657" y="340" on="1"/>
        <pt x="565" y="340" on="0"/>
        <pt x="434" y="472" on="0"/>
      </contour>
    </TTGlyph>
    <TTGlyph name="uni0E50" xMin="86" yMin="-20" xMax="1274" yMax="930">
      <contour>
        <pt x="678" y="92" on="1"/>
        <pt x="816" y="92" on="0"/>
        <pt x="979" y="291" on="0"/>
        <pt x="979" y="457" on="1"/>
        <pt x="979" y="622" on="0"/>
        <pt x="816" y="819" on="0"/>
        <pt x="678" y="819" on="1"/>
        <pt x="542" y="819" on="0"/>
        <pt x="381" y="623" on="0"/>
        <pt x="381" y="457" on="1"/>
        <pt x="381" y="289" on="0"/>
        <pt x="544" y="92" on="0"/>
      </contour>
      <contour>
        <pt x="678" y="-20" on="1"/>
        <pt x="410" y="-20" on="0"/>
        <pt x="86" y="240" on="0"/>
        <pt x="86" y="455" on="1"/>
        <pt x="86" y="598" on="0"/>
        <pt x="231" y="813" on="0"/>
        <pt x="502" y="930" on="0"/>
        <pt x="678" y="930" on="1"/>
        <pt x="946" y="930" on="0"/>
        <pt x="1274" y="674" on="0"/>
        <pt x="1274" y="455" on="1"/>
        <pt x="1274" y="239" on="0"/>
        <pt x="947" y="-20" on="0"/>
      </contour>
    </TTGlyph>
    <TTGlyph name="uni0E51" xMin="86" yMin="-20" xMax="1274" yMax="930">
      <contour>
        <pt x="575" y="422" on="1"/>
        <pt x="575" y="384" on="0"/>
        <pt x="622" y="336" on="0"/>
        <pt x="659" y="336" on="1"/>
        <pt x="700" y="336" on="0"/>
        <pt x="741" y="384" on="0"/>
        <pt x="741" y="422" on="1"/>
        <pt x="741" y="462" on="0"/>
        <pt x="698" y="508" on="0"/>
        <pt x="659" y="508" on="1"/>
        <pt x="621" y="508" on="0"/>
        <pt x="575" y="462" on="0"/>
      </contour>
      <contour>
        <pt x="1274" y="455" on="1"/>
        <pt x="1274" y="317" on="0"/>
        <pt x="1101" y="51" on="0"/>
        <pt x="965" y="-14" on="1"/>
        <pt x="889" y="63" on="1"/>
        <pt x="934" y="112" on="0"/>
        <pt x="997" y="331" on="0"/>
        <pt x="997" y="436" on="1"/>
        <pt x="997" y="619" on="0"/>
        <pt x="831" y="819" on="0"/>
        <pt x="678" y="819" on="1"/>
        <pt x="535" y="819" on="0"/>
        <pt x="362" y="614" on="0"/>
        <pt x="362" y="440" on="1"/>
        <pt x="362" y="337" on="0"/>
        <pt x="421" y="189" on="0"/>
        <pt x="522" y="113" on="0"/>
        <pt x="584" y="113" on="1"/>
        <pt x="662" y="113" on="0"/>
        <pt x="751" y="210" on="0"/>
        <pt x="756" y="297" on="1"/>
        <pt x="713" y="242" on="0"/>
        <pt x="633" y="242" on="1"/>
        <pt x="556" y="242" on="0"/>
        <pt x="465" y="339" on="0"/>
        <pt x="465" y="420" on="1"/>
        <pt x="465" y="502" on="0"/>
        <pt x="570" y="604" on="0"/>
        <pt x="657" y="604" on="1"/>
        <pt x="766" y="604" on="0"/>
        <pt x="905" y="462" on="0"/>
        <pt x="905" y="348" on="1"/>
        <pt x="905" y="170" on="0"/>
        <pt x="710" y="-20" on="0"/>
        <pt x="526" y="-20" on="1"/>
        <pt x="324" y="-20" on="0"/>
        <pt x="86" y="228" on="0"/>
        <pt x="86" y="438" on="1"/>
        <pt x="86" y="583" on="0"/>
        <pt x="235" y="808" on="0"/>
        <pt x="508" y="930" on="0"/>
        <pt x="678" y="930" on="1"/>
        <pt x="946" y="930" on="0"/>
        <pt x="1274" y="674" on="0"/>
      </contour>
    </TTGlyph>
    <TTGlyph name="uni0E52" xMin="29" yMin="0" xMax="1274" yMax="1298">
      <contour>
        <pt x="770" y="455" on="1"/>
        <pt x="770" y="493" on="0"/>
        <pt x="723" y="539" on="0"/>
        <pt x="686" y="539" on="1"/>
        <pt x="646" y="539" on="0"/>
        <pt x="604" y="493" on="0"/>
        <pt x="604" y="455" on="1"/>
        <pt x="604" y="414" on="0"/>
        <pt x="648" y="369" on="0"/>
        <pt x="686" y="369" on="1"/>
        <pt x="724" y="369" on="0"/>
        <pt x="770" y="414" on="0"/>
      </contour>
      <contour>
        <pt x="106" y="1032" on="1"/>
        <pt x="106" y="1088" on="0"/>
        <pt x="60" y="1192" on="0"/>
        <pt x="29" y="1200" on="1"/>
        <pt x="72" y="1298" on="1"/>
        <pt x="167" y="1298" on="0"/>
        <pt x="312" y="1212" on="0"/>
        <pt x="391" y="1049" on="0"/>
        <pt x="391" y="934" on="1"/>
        <pt x="391" y="352" on="1"/>
        <pt x="391" y="111" on="0"/>
        <pt x="598" y="111" on="1"/>
        <pt x="801" y="111" on="1"/>
        <pt x="905" y="111" on="0"/>
        <pt x="989" y="226" on="0"/>
        <pt x="989" y="352" on="1"/>
        <pt x="989" y="602" on="1"/>
        <pt x="989" y="681" on="0"/>
        <pt x="941" y="782" on="0"/>
        <pt x="909" y="799" on="1"/>
        <pt x="821" y="707" on="1"/>
        <pt x="696" y="813" on="1"/>
        <pt x="647" y="788" on="0"/>
        <pt x="597" y="678" on="0"/>
        <pt x="590" y="580" on="1"/>
        <pt x="633" y="635" on="0"/>
        <pt x="713" y="635" on="1"/>
        <pt x="788" y="635" on="0"/>
        <pt x="881" y="536" on="0"/>
        <pt x="881" y="457" on="1"/>
        <pt x="881" y="373" on="0"/>
        <pt x="775" y="272" on="0"/>
        <pt x="688" y="272" on="1"/>
        <pt x="588" y="272" on="0"/>
        <pt x="467" y="412" on="0"/>
        <pt x="467" y="530" on="1"/>
        <pt x="467" y="688" on="0"/>
        <pt x="588" y="886" on="0"/>
        <pt x="719" y="930" on="1"/>
        <pt x="821" y="829" on="1"/>
        <pt x="924" y="930" on="1"/>
        <pt x="1081" y="924" on="0"/>
        <pt x="1274" y="754" on="0"/>
        <pt x="1274" y="618" on="1"/>
        <pt x="1274" y="352" on="1"/>
        <pt x="1274" y="167" on="0"/>
        <pt x="1120" y="0" on="0"/>
        <pt x="950" y="0" on="1"/>
        <pt x="481" y="0" on="1"/>
        <pt x="280" y="0" on="0"/>
        <pt x="106" y="186" on="0"/>
        <pt x="106" y="406" on="1"/>
      </contour>
    </TTGlyph>
    <TTGlyph name="uni0E53" xMin="86" yMin="-20" xMax="1274" yMax="930">
      <contour>
        <pt x="1274" y="455" on="1"/>
        <pt x="1274" y="317" on="0"/>
        <pt x="1101" y="51" on="0"/>
        <pt x="965" y="-14" on="1"/>
        <pt x="889" y="63" on="1"/>
        <pt x="935" y="114" on="0"/>
        <pt x="997" y="341" on="0"/>
        <pt x="997" y="457" on="1"/>
        <pt x="997" y="626" on="0"/>
        <pt x="932" y="811" on="0"/>
        <pt x="879" y="811" on="1"/>
        <pt x="847" y="811" on="0"/>
        <pt x="799" y="742" on="0"/>
        <pt x="768" y="607" on="0"/>
        <pt x="760" y="467" on="1"/>
        <pt x="604" y="467" on="1"/>
        <pt x="597" y="603" on="0"/>
        <pt x="563" y="743" on="0"/>
        <pt x="512" y="811" on="0"/>
        <pt x="477" y="811" on="1"/>
        <pt x="425" y="811" on="0"/>
        <pt x="362" y="623" on="0"/>
        <pt x="362" y="457" on="1"/>
        <pt x="362" y="329" on="0"/>
        <pt x="403" y="250" on="1"/>
        <pt x="423" y="288" on="0"/>
        <pt x="502" y="340" on="0"/>
        <pt x="559" y="340" on="1"/>
        <pt x="653" y="340" on="0"/>
        <pt x="752" y="246" on="0"/>
        <pt x="752" y="160" on="1"/>
        <pt x="752" y="78" on="0"/>
        <pt x="630" y="-20" on="0"/>
        <pt x="526" y="-20" on="1"/>
        <pt x="327" y="-20" on="0"/>
        <pt x="86" y="241" on="0"/>
        <pt x="86" y="455" on="1"/>
        <pt x="86" y="665" on="0"/>
        <pt x="277" y="930" on="0"/>
        <pt x="434" y="930" on="1"/>
        <pt x="638" y="930" on="0"/>
        <pt x="680" y="688" on="1"/>
        <pt x="699" y="799" on="0"/>
        <pt x="822" y="930" on="0"/>
        <pt x="926" y="930" on="1"/>
        <pt x="1084" y="930" on="0"/>
        <pt x="1274" y="666" on="0"/>
      </contour>
      <contour>
        <pt x="641" y="160" on="1"/>
        <pt x="641" y="198" on="0"/>
        <pt x="595" y="244" on="0"/>
        <pt x="557" y="244" on="1"/>
        <pt x="522" y="244" on="0"/>
        <pt x="473" y="198" on="0"/>
        <pt x="473" y="160" on="1"/>
        <pt x="473" y="119" on="0"/>
        <pt x="522" y="76" on="0"/>
        <pt x="557" y="76" on="1"/>
        <pt x="595" y="76" on="0"/>
        <pt x="641" y="119" on="0"/>
      </contour>
    </TTGlyph>
    <TTGlyph name="uni0E54" xMin="78" yMin="-20" xMax="1290" yMax="1311">
      <contour>
        <pt x="1231" y="-20" on="1"/>
        <pt x="1147" y="41" on="0"/>
        <pt x="997" y="41" on="1"/>
        <pt x="926" y="41" on="0"/>
        <pt x="787" y="11" on="1"/>
        <pt x="647" y="-20" on="0"/>
        <pt x="571" y="-20" on="1"/>
        <pt x="342" y="-20" on="0"/>
        <pt x="78" y="188" on="0"/>
        <pt x="78" y="371" on="1"/>
        <pt x="78" y="483" on="0"/>
        <pt x="182" y="647" on="0"/>
        <pt x="416" y="790" on="0"/>
        <pt x="657" y="881" on="1"/>
        <pt x="807" y="935" on="0"/>
        <pt x="989" y="1054" on="0"/>
        <pt x="1079" y="1197" on="0"/>
        <pt x="1092" y="1311" on="1"/>
        <pt x="1182" y="1311" on="1"/>
        <pt x="1211" y="1252" on="0"/>
        <pt x="1229" y="1191" on="0"/>
        <pt x="1229" y="1165" on="1"/>
        <pt x="1229" y="1079" on="0"/>
        <pt x="1143" y="971" on="0"/>
        <pt x="940" y="865" on="0"/>
        <pt x="758" y="803" on="1"/>
        <pt x="549" y="729" on="0"/>
        <pt x="362" y="531" on="0"/>
        <pt x="362" y="375" on="1"/>
        <pt x="362" y="241" on="0"/>
        <pt x="488" y="90" on="0"/>
        <pt x="598" y="90" on="1"/>
        <pt x="640" y="90" on="0"/>
        <pt x="726" y="110" on="1"/>
        <pt x="815" y="130" on="0"/>
        <pt x="856" y="131" on="1"/>
        <pt x="770" y="155" on="0"/>
        <pt x="643" y="322" on="0"/>
        <pt x="643" y="420" on="1"/>
        <pt x="643" y="524" on="0"/>
        <pt x="773" y="653" on="0"/>
        <pt x="874" y="653" on="1"/>
        <pt x="963" y="653" on="0"/>
        <pt x="1067" y="551" on="0"/>
        <pt x="1067" y="469" on="1"/>
        <pt x="1067" y="387" on="0"/>
        <pt x="976" y="291" on="0"/>
        <pt x="899" y="291" on="1"/>
        <pt x="846" y="291" on="0"/>
        <pt x="801" y="324" on="1"/>
        <pt x="829" y="273" on="0"/>
        <pt x="940" y="206" on="0"/>
        <pt x="1047" y="184" on="1"/>
        <pt x="1210" y="149" on="0"/>
        <pt x="1290" y="63" on="1"/>
      </contour>
      <contour>
        <pt x="956" y="471" on="1"/>
        <pt x="956" y="511" on="0"/>
        <pt x="911" y="557" on="0"/>
        <pt x="872" y="557" on="1"/>
        <pt x="834" y="557" on="0"/>
        <pt x="791" y="511" on="0"/>
        <pt x="791" y="471" on="1"/>
        <pt x="791" y="433" on="0"/>
        <pt x="832" y="385" on="0"/>
        <pt x="872" y="385" on="1"/>
        <pt x="910" y="385" on="0"/>
        <pt x="956" y="433" on="0"/>
      </contour>
    </TTGlyph>
    <TTGlyph name="uni0E55" xMin="78" yMin="-20" xMax="1290" yMax="1311">
      <contour>
        <pt x="416" y="958" on="1"/>
        <pt x="416" y="1042" on="0"/>
        <pt x="524" y="1139" on="0"/>
        <pt x="608" y="1139" on="1"/>
        <pt x="696" y="1139" on="0"/>
        <pt x="805" y="1043" on="0"/>
        <pt x="805" y="958" on="1"/>
        <pt x="803" y="942" on="1"/>
        <pt x="944" y="1011" on="0"/>
        <pt x="1076" y="1176" on="0"/>
        <pt x="1092" y="1311" on="1"/>
        <pt x="1182" y="1311" on="1"/>
        <pt x="1211" y="1252" on="0"/>
        <pt x="1229" y="1191" on="0"/>
        <pt x="1229" y="1165" on="1"/>
        <pt x="1229" y="1079" on="0"/>
        <pt x="1143" y="971" on="0"/>
        <pt x="940" y="865" on="0"/>
        <pt x="758" y="803" on="1"/>
        <pt x="549" y="729" on="0"/>
        <pt x="362" y="531" on="0"/>
        <pt x="362" y="375" on="1"/>
        <pt x="362" y="229" on="0"/>
        <pt x="476" y="90" on="0"/>
        <pt x="598" y="90" on="1"/>
        <pt x="640" y="90" on="0"/>
        <pt x="726" y="110" on="1"/>
        <pt x="815" y="130" on="0"/>
        <pt x="856" y="131" on="1"/>
        <pt x="770" y="155" on="0"/>
        <pt x="643" y="322" on="0"/>
        <pt x="643" y="420" on="1"/>
        <pt x="643" y="524" on="0"/>
        <pt x="773" y="653" on="0"/>
        <pt x="874" y="653" on="1"/>
        <pt x="963" y="653" on="0"/>
        <pt x="1067" y="551" on="0"/>
        <pt x="1067" y="469" on="1"/>
        <pt x="1067" y="387" on="0"/>
        <pt x="976" y="291" on="0"/>
        <pt x="899" y="291" on="1"/>
        <pt x="846" y="291" on="0"/>
        <pt x="801" y="324" on="1"/>
        <pt x="829" y="273" on="0"/>
        <pt x="940" y="206" on="0"/>
        <pt x="1047" y="184" on="1"/>
        <pt x="1210" y="149" on="0"/>
        <pt x="1290" y="63" on="1"/>
        <pt x="1231" y="-20" on="1"/>
        <pt x="1147" y="41" on="0"/>
        <pt x="997" y="41" on="1"/>
        <pt x="926" y="41" on="0"/>
        <pt x="787" y="11" on="1"/>
        <pt x="647" y="-20" on="0"/>
        <pt x="571" y="-20" on="1"/>
        <pt x="342" y="-20" on="0"/>
        <pt x="78" y="188" on="0"/>
        <pt x="78" y="371" on="1"/>
        <pt x="78" y="514" on="0"/>
        <pt x="259" y="714" on="0"/>
        <pt x="485" y="811" on="1"/>
        <pt x="416" y="859" on="0"/>
      </contour>
      <contour>
        <pt x="956" y="471" on="1"/>
        <pt x="956" y="511" on="0"/>
        <pt x="911" y="557" on="0"/>
        <pt x="872" y="557" on="1"/>
        <pt x="834" y="557" on="0"/>
        <pt x="791" y="511" on="0"/>
        <pt x="791" y="471" on="1"/>
        <pt x="791" y="433" on="0"/>
        <pt x="832" y="385" on="0"/>
        <pt x="872" y="385" on="1"/>
        <pt x="910" y="385" on="0"/>
        <pt x="956" y="433" on="0"/>
      </contour>
      <contour>
        <pt x="526" y="958" on="1"/>
        <pt x="526" y="916" on="0"/>
        <pt x="573" y="874" on="0"/>
        <pt x="610" y="874" on="1"/>
        <pt x="645" y="874" on="0"/>
        <pt x="694" y="916" on="0"/>
        <pt x="694" y="958" on="1"/>
        <pt x="694" y="1000" on="0"/>
        <pt x="645" y="1042" on="0"/>
        <pt x="610" y="1042" on="1"/>
        <pt x="573" y="1042" on="0"/>
        <pt x="526" y="1000" on="0"/>
      </contour>
    </TTGlyph>
    <TTGlyph name="uni0E56" xMin="39" yMin="-20" xMax="1233" yMax="1239">
      <contour>
        <pt x="670" y="930" on="1"/>
        <pt x="834" y="930" on="0"/>
        <pt x="1092" y="813" on="0"/>
        <pt x="1233" y="598" on="0"/>
        <pt x="1233" y="455" on="1"/>
        <pt x="1233" y="241" on="0"/>
        <pt x="947" y="-20" on="0"/>
        <pt x="709" y="-20" on="1"/>
        <pt x="557" y="-20" on="0"/>
        <pt x="331" y="72" on="0"/>
        <pt x="213" y="240" on="0"/>
        <pt x="213" y="350" on="1"/>
        <pt x="213" y="456" on="0"/>
        <pt x="345" y="592" on="0"/>
        <pt x="444" y="592" on="1"/>
        <pt x="530" y="592" on="0"/>
        <pt x="637" y="492" on="0"/>
        <pt x="637" y="408" on="1"/>
        <pt x="637" y="324" on="0"/>
        <pt x="545" y="229" on="0"/>
        <pt x="469" y="229" on="1"/>
        <pt x="412" y="229" on="0"/>
        <pt x="367" y="262" on="1"/>
        <pt x="401" y="181" on="0"/>
        <pt x="549" y="92" on="0"/>
        <pt x="651" y="92" on="1"/>
        <pt x="783" y="92" on="0"/>
        <pt x="938" y="290" on="0"/>
        <pt x="938" y="457" on="1"/>
        <pt x="938" y="632" on="0"/>
        <pt x="768" y="819" on="0"/>
        <pt x="606" y="819" on="1"/>
        <pt x="513" y="819" on="0"/>
        <pt x="338" y="749" on="0"/>
        <pt x="270" y="686" on="1"/>
        <pt x="241" y="765" on="0"/>
        <pt x="102" y="1051" on="0"/>
        <pt x="39" y="1153" on="1"/>
        <pt x="287" y="1239" on="1"/>
        <pt x="315" y="1153" on="0"/>
        <pt x="344" y="967" on="1"/>
        <pt x="360" y="872" on="1"/>
        <pt x="503" y="930" on="0"/>
      </contour>
      <contour>
        <pt x="526" y="410" on="1"/>
        <pt x="526" y="450" on="0"/>
        <pt x="481" y="496" on="0"/>
        <pt x="442" y="496" on="1"/>
        <pt x="404" y="496" on="0"/>
        <pt x="360" y="450" on="0"/>
        <pt x="360" y="410" on="1"/>
        <pt x="360" y="371" on="0"/>
        <pt x="402" y="324" on="0"/>
        <pt x="442" y="324" on="1"/>
        <pt x="480" y="324" on="0"/>
        <pt x="526" y="371" on="0"/>
      </contour>
    </TTGlyph>
    <TTGlyph name="uni0E57" xMin="45" yMin="-20" xMax="1356" yMax="1298">
      <contour>
        <pt x="481" y="160" on="1"/>
        <pt x="481" y="198" on="0"/>
        <pt x="436" y="244" on="0"/>
        <pt x="397" y="244" on="1"/>
        <pt x="362" y="244" on="0"/>
        <pt x="313" y="198" on="0"/>
        <pt x="313" y="160" on="1"/>
        <pt x="313" y="119" on="0"/>
        <pt x="362" y="76" on="0"/>
        <pt x="397" y="76" on="1"/>
        <pt x="436" y="76" on="0"/>
        <pt x="481" y="119" on="0"/>
      </contour>
      <contour>
        <pt x="678" y="0" on="1"/>
        <pt x="678" y="457" on="1"/>
        <pt x="678" y="579" on="0"/>
        <pt x="663" y="720" on="0"/>
        <pt x="637" y="780" on="0"/>
        <pt x="606" y="780" on="1"/>
        <pt x="572" y="780" on="0"/>
        <pt x="535" y="633" on="0"/>
        <pt x="526" y="467" on="1"/>
        <pt x="432" y="467" on="1"/>
        <pt x="423" y="642" on="0"/>
        <pt x="386" y="780" on="0"/>
        <pt x="352" y="780" on="1"/>
        <pt x="281" y="780" on="0"/>
        <pt x="281" y="500" on="1"/>
        <pt x="281" y="334" on="0"/>
        <pt x="291" y="281" on="1"/>
        <pt x="305" y="306" on="0"/>
        <pt x="374" y="340" on="0"/>
        <pt x="416" y="340" on="1"/>
        <pt x="497" y="340" on="0"/>
        <pt x="592" y="246" on="0"/>
        <pt x="592" y="160" on="1"/>
        <pt x="592" y="80" on="0"/>
        <pt x="479" y="-20" on="0"/>
        <pt x="387" y="-20" on="1"/>
        <pt x="212" y="-20" on="0"/>
        <pt x="45" y="229" on="0"/>
        <pt x="45" y="492" on="1"/>
        <pt x="45" y="708" on="0"/>
        <pt x="179" y="930" on="0"/>
        <pt x="307" y="930" on="1"/>
        <pt x="376" y="930" on="0"/>
        <pt x="462" y="829" on="0"/>
        <pt x="477" y="739" on="1"/>
        <pt x="491" y="828" on="0"/>
        <pt x="578" y="930" on="0"/>
        <pt x="666" y="930" on="1"/>
        <pt x="790" y="930" on="0"/>
        <pt x="913" y="704" on="0"/>
        <pt x="913" y="455" on="1"/>
        <pt x="913" y="111" on="1"/>
        <pt x="1022" y="111" on="0"/>
        <pt x="1022" y="352" on="1"/>
        <pt x="1022" y="934" on="1"/>
        <pt x="1022" y="1110" on="0"/>
        <pt x="1173" y="1298" on="0"/>
        <pt x="1313" y="1298" on="1"/>
        <pt x="1356" y="1200" on="1"/>
        <pt x="1325" y="1191" on="0"/>
        <pt x="1278" y="1106" on="0"/>
        <pt x="1278" y="1032" on="1"/>
        <pt x="1278" y="406" on="1"/>
        <pt x="1278" y="178" on="0"/>
        <pt x="1132" y="0" on="0"/>
        <pt x="948" y="0" on="1"/>
      </contour>
    </TTGlyph>
    <TTGlyph name="uni0E58" xMin="78" yMin="-20" xMax="1282" yMax="1311">
      <contour>
        <pt x="362" y="375" on="1"/>
        <pt x="362" y="280" on="0"/>
        <pt x="421" y="167" on="0"/>
        <pt x="485" y="143" on="1"/>
        <pt x="525" y="177" on="0"/>
        <pt x="584" y="272" on="0"/>
        <pt x="616" y="360" on="1"/>
        <pt x="654" y="346" on="0"/>
        <pt x="730" y="296" on="0"/>
        <pt x="813" y="227" on="1"/>
        <pt x="925" y="133" on="0"/>
        <pt x="1018" y="133" on="1"/>
        <pt x="1077" y="133" on="0"/>
        <pt x="1145" y="207" on="0"/>
        <pt x="1159" y="303" on="1"/>
        <pt x="1116" y="248" on="0"/>
        <pt x="1036" y="248" on="1"/>
        <pt x="959" y="248" on="0"/>
        <pt x="868" y="345" on="0"/>
        <pt x="868" y="426" on="1"/>
        <pt x="868" y="508" on="0"/>
        <pt x="973" y="610" on="0"/>
        <pt x="1061" y="610" on="1"/>
        <pt x="1169" y="610" on="0"/>
        <pt x="1282" y="461" on="0"/>
        <pt x="1282" y="328" on="1"/>
        <pt x="1282" y="172" on="0"/>
        <pt x="1128" y="-10" on="0"/>
        <pt x="1001" y="-10" on="1"/>
        <pt x="941" y="-10" on="0"/>
        <pt x="846" y="33" on="0"/>
        <pt x="768" y="93" on="0"/>
        <pt x="700" y="158" on="0"/>
        <pt x="666" y="180" on="1"/>
        <pt x="612" y="47" on="0"/>
        <pt x="545" y="-20" on="1"/>
        <pt x="332" y="-20" on="0"/>
        <pt x="78" y="191" on="0"/>
        <pt x="78" y="371" on="1"/>
        <pt x="78" y="483" on="0"/>
        <pt x="182" y="647" on="0"/>
        <pt x="416" y="790" on="0"/>
        <pt x="657" y="881" on="1"/>
        <pt x="807" y="935" on="0"/>
        <pt x="989" y="1054" on="0"/>
        <pt x="1079" y="1197" on="0"/>
        <pt x="1092" y="1311" on="1"/>
        <pt x="1182" y="1311" on="1"/>
        <pt x="1211" y="1252" on="0"/>
        <pt x="1229" y="1191" on="0"/>
        <pt x="1229" y="1165" on="1"/>
        <pt x="1229" y="1079" on="0"/>
        <pt x="1143" y="971" on="0"/>
        <pt x="940" y="865" on="0"/>
        <pt x="758" y="803" on="1"/>
        <pt x="549" y="729" on="0"/>
        <pt x="362" y="531" on="0"/>
      </contour>
      <contour>
        <pt x="979" y="428" on="1"/>
        <pt x="979" y="390" on="0"/>
        <pt x="1026" y="344" on="0"/>
        <pt x="1063" y="344" on="1"/>
        <pt x="1103" y="344" on="0"/>
        <pt x="1145" y="390" on="0"/>
        <pt x="1145" y="428" on="1"/>
        <pt x="1145" y="468" on="0"/>
        <pt x="1101" y="514" on="0"/>
        <pt x="1063" y="514" on="1"/>
        <pt x="1025" y="514" on="0"/>
        <pt x="979" y="468" on="0"/>
      </contour>
    </TTGlyph>
    <TTGlyph name="uni0E59" xMin="66" yMin="-20" xMax="1362" yMax="1206">
      <contour>
        <pt x="1169" y="0" on="1"/>
        <pt x="881" y="0" on="1"/>
        <pt x="705" y="438" on="1"/>
        <pt x="614" y="661" on="0"/>
        <pt x="513" y="811" on="0"/>
        <pt x="459" y="811" on="1"/>
        <pt x="400" y="811" on="0"/>
        <pt x="342" y="656" on="0"/>
        <pt x="342" y="494" on="1"/>
        <pt x="342" y="336" on="0"/>
        <pt x="383" y="250" on="1"/>
        <pt x="395" y="290" on="0"/>
        <pt x="485" y="340" on="0"/>
        <pt x="539" y="340" on="1"/>
        <pt x="633" y="340" on="0"/>
        <pt x="731" y="246" on="0"/>
        <pt x="731" y="160" on="1"/>
        <pt x="731" y="78" on="0"/>
        <pt x="610" y="-20" on="0"/>
        <pt x="506" y="-20" on="1"/>
        <pt x="307" y="-20" on="0"/>
        <pt x="66" y="241" on="0"/>
        <pt x="66" y="455" on="1"/>
        <pt x="66" y="669" on="0"/>
        <pt x="273" y="930" on="0"/>
        <pt x="457" y="930" on="1"/>
        <pt x="598" y="930" on="0"/>
        <pt x="709" y="856" on="1"/>
        <pt x="826" y="955" on="0"/>
        <pt x="856" y="1012" on="1"/>
        <pt x="961" y="967" on="0"/>
        <pt x="1053" y="844" on="1"/>
        <pt x="1094" y="972" on="0"/>
        <pt x="1094" y="1206" on="1"/>
        <pt x="1362" y="1165" on="1"/>
        <pt x="1346" y="1006" on="0"/>
        <pt x="1170" y="738" on="0"/>
        <pt x="1024" y="649" on="1"/>
        <pt x="939" y="787" on="0"/>
        <pt x="883" y="823" on="1"/>
        <pt x="871" y="806" on="0"/>
        <pt x="811" y="762" on="1"/>
        <pt x="907" y="653" on="0"/>
        <pt x="1004" y="418" on="1"/>
      </contour>
      <contour>
        <pt x="621" y="160" on="1"/>
        <pt x="621" y="198" on="0"/>
        <pt x="575" y="244" on="0"/>
        <pt x="537" y="244" on="1"/>
        <pt x="501" y="244" on="0"/>
        <pt x="453" y="198" on="0"/>
        <pt x="453" y="160" on="1"/>
        <pt x="453" y="119" on="0"/>
        <pt x="501" y="76" on="0"/>
        <pt x="537" y="76" on="1"/>
        <pt x="575" y="76" on="0"/>
        <pt x="621" y="119" on="0"/>
      </contour>
    </TTGlyph>
    <TTGlyph name="uni0E5A" xMin="45" yMin="0" xMax="1405" yMax="1126">
      <contour>
        <pt x="975" y="1126" on="1"/>
        <pt x="975" y="205" on="1"/>
        <pt x="782" y="0" on="1"/>
        <pt x="690" y="0" on="1"/>
        <pt x="690" y="856" on="1"/>
        <pt x="538" y="676" on="0"/>
        <pt x="264" y="676" on="1"/>
        <pt x="165" y="676" on="0"/>
        <pt x="45" y="794" on="0"/>
        <pt x="45" y="887" on="1"/>
        <pt x="45" y="973" on="0"/>
        <pt x="154" y="1071" on="0"/>
        <pt x="244" y="1071" on="1"/>
        <pt x="333" y="1071" on="0"/>
        <pt x="440" y="978" on="0"/>
        <pt x="440" y="899" on="1"/>
        <pt x="440" y="833" on="0"/>
        <pt x="412" y="793" on="1"/>
        <pt x="512" y="817" on="0"/>
        <pt x="674" y="1001" on="0"/>
        <pt x="700" y="1126" on="1"/>
      </contour>
      <contour>
        <pt x="156" y="881" on="1"/>
        <pt x="156" y="839" on="0"/>
        <pt x="203" y="788" on="0"/>
        <pt x="244" y="788" on="1"/>
        <pt x="281" y="788" on="0"/>
        <pt x="330" y="839" on="0"/>
        <pt x="330" y="881" on="1"/>
        <pt x="330" y="926" on="0"/>
        <pt x="281" y="975" on="0"/>
        <pt x="244" y="975" on="1"/>
        <pt x="203" y="975" on="0"/>
        <pt x="156" y="926" on="0"/>
      </contour>
      <contour>
        <pt x="1405" y="1126" on="1"/>
        <pt x="1405" y="205" on="1"/>
        <pt x="1212" y="0" on="1"/>
        <pt x="1120" y="0" on="1"/>
        <pt x="1120" y="1126" on="1"/>
      </contour>
    </TTGlyph>
    <TTGlyph name="uni0E5B" xMin="66" yMin="-20" xMax="1810" yMax="899">
      <contour>
        <pt x="1810" y="444" on="1"/>
        <pt x="1561" y="389" on="1"/>
        <pt x="1493" y="168" on="1"/>
        <pt x="1421" y="168" on="1"/>
        <pt x="1331" y="436" on="1"/>
        <pt x="1223" y="98" on="1"/>
        <pt x="1151" y="98" on="1"/>
        <pt x="1026" y="481" on="1"/>
        <pt x="974" y="246" on="0"/>
        <pt x="721" y="-20" on="0"/>
        <pt x="547" y="-20" on="1"/>
        <pt x="411" y="-20" on="0"/>
        <pt x="191" y="95" on="0"/>
        <pt x="66" y="306" on="0"/>
        <pt x="66" y="444" on="1"/>
        <pt x="66" y="659" on="0"/>
        <pt x="289" y="899" on="0"/>
        <pt x="485" y="899" on="1"/>
        <pt x="657" y="899" on="0"/>
        <pt x="844" y="709" on="0"/>
        <pt x="844" y="541" on="1"/>
        <pt x="844" y="425" on="0"/>
        <pt x="722" y="285" on="0"/>
        <pt x="616" y="285" on="1"/>
        <pt x="528" y="285" on="0"/>
        <pt x="424" y="387" on="0"/>
        <pt x="424" y="469" on="1"/>
        <pt x="424" y="551" on="0"/>
        <pt x="515" y="647" on="0"/>
        <pt x="592" y="647" on="1"/>
        <pt x="672" y="647" on="0"/>
        <pt x="715" y="592" on="1"/>
        <pt x="710" y="678" on="0"/>
        <pt x="607" y="786" on="0"/>
        <pt x="535" y="786" on="1"/>
        <pt x="429" y="786" on="0"/>
        <pt x="342" y="623" on="0"/>
        <pt x="342" y="442" on="1"/>
        <pt x="342" y="274" on="0"/>
        <pt x="455" y="90" on="0"/>
        <pt x="555" y="90" on="1"/>
        <pt x="721" y="90" on="0"/>
        <pt x="919" y="369" on="0"/>
        <pt x="983" y="717" on="1"/>
        <pt x="1057" y="717" on="1"/>
        <pt x="1188" y="311" on="1"/>
        <pt x="1296" y="651" on="1"/>
        <pt x="1368" y="651" on="1"/>
        <pt x="1458" y="379" on="1"/>
        <pt x="1513" y="575" on="1"/>
        <pt x="1810" y="514" on="1"/>
      </contour>
      <contour>
        <pt x="535" y="467" on="1"/>
        <pt x="535" y="427" on="0"/>
        <pt x="580" y="381" on="0"/>
        <pt x="618" y="381" on="1"/>
        <pt x="657" y="381" on="0"/>
        <pt x="700" y="427" on="0"/>
        <pt x="700" y="467" on="1"/>
        <pt x="700" y="505" on="0"/>
        <pt x="659" y="553" on="0"/>
        <pt x="618" y="553" on="1"/>
        <pt x="581" y="553" on="0"/>
        <pt x="535" y="505" on="0"/>
      </contour>
    </TTGlyph>
    <TTGlyph name="uni200C" xMin="-54" yMin="-339" xMax="54" yMax="1613">
      <contour>
        <pt x="-54" y="-339" on="1"/>
        <pt x="-54" y="1613" on="1"/>
        <pt x="54" y="1613" on="1"/>
        <pt x="54" y="-339" on="1"/>
      </contour>
    </TTGlyph>
    <TTGlyph name="uni200D" xMin="-299" yMin="-338" xMax="299" yMax="1613">
      <contour>
        <pt x="74" y="1323" on="1"/>
        <pt x="299" y="1103" on="1"/>
        <pt x="224" y="1030" on="1"/>
        <pt x="54" y="1199" on="1"/>
        <pt x="54" y="-338" on="1"/>
        <pt x="-54" y="-338" on="1"/>
        <pt x="-54" y="1199" on="1"/>
        <pt x="-224" y="1030" on="1"/>
        <pt x="-299" y="1103" on="1"/>
        <pt x="-74" y="1323" on="1"/>
        <pt x="-299" y="1540" on="1"/>
        <pt x="-224" y="1613" on="1"/>
        <pt x="0" y="1393" on="1"/>
        <pt x="224" y="1613" on="1"/>
        <pt x="299" y="1539" on="1"/>
      </contour>
    </TTGlyph>
    <TTGlyph name="uni25CC" xMin="102" yMin="82" xMax="1130" yMax="1110">
      <contour>
        <pt x="997" y="918" on="1"/>
        <pt x="997" y="860" on="0"/>
        <pt x="940" y="860" on="1"/>
        <pt x="881" y="860" on="0"/>
        <pt x="881" y="918" on="1"/>
        <pt x="881" y="977" on="0"/>
        <pt x="940" y="977" on="1"/>
        <pt x="997" y="977" on="0"/>
      </contour>
      <contour>
        <pt x="848" y="1016" on="1"/>
        <pt x="848" y="958" on="0"/>
        <pt x="793" y="958" on="1"/>
        <pt x="731" y="958" on="0"/>
        <pt x="731" y="1016" on="1"/>
        <pt x="731" y="1075" on="0"/>
        <pt x="793" y="1075" on="1"/>
        <pt x="848" y="1075" on="0"/>
      </contour>
      <contour>
        <pt x="1096" y="770" on="1"/>
        <pt x="1096" y="711" on="0"/>
        <pt x="1036" y="711" on="1"/>
        <pt x="979" y="711" on="0"/>
        <pt x="979" y="770" on="1"/>
        <pt x="979" y="827" on="0"/>
        <pt x="1038" y="827" on="1"/>
        <pt x="1096" y="827" on="0"/>
      </contour>
      <contour>
        <pt x="1130" y="596" on="1"/>
        <pt x="1130" y="539" on="0"/>
        <pt x="1075" y="539" on="1"/>
        <pt x="1016" y="539" on="0"/>
        <pt x="1016" y="596" on="1"/>
        <pt x="1016" y="653" on="0"/>
        <pt x="1075" y="653" on="1"/>
        <pt x="1130" y="653" on="0"/>
      </contour>
      <contour>
        <pt x="674" y="1053" on="1"/>
        <pt x="674" y="993" on="0"/>
        <pt x="616" y="993" on="1"/>
        <pt x="557" y="993" on="0"/>
        <pt x="557" y="1053" on="1"/>
        <pt x="557" y="1110" on="0"/>
        <pt x="616" y="1110" on="1"/>
        <pt x="674" y="1110" on="0"/>
      </contour>
      <contour>
        <pt x="502" y="1016" on="1"/>
        <pt x="502" y="958" on="0"/>
        <pt x="442" y="958" on="1"/>
        <pt x="385" y="958" on="0"/>
        <pt x="385" y="1016" on="1"/>
        <pt x="385" y="1075" on="0"/>
        <pt x="442" y="1075" on="1"/>
        <pt x="502" y="1075" on="0"/>
      </contour>
      <contour>
        <pt x="1096" y="422" on="1"/>
        <pt x="1096" y="365" on="0"/>
        <pt x="1036" y="365" on="1"/>
        <pt x="979" y="365" on="0"/>
        <pt x="979" y="422" on="1"/>
        <pt x="979" y="481" on="0"/>
        <pt x="1036" y="481" on="1"/>
        <pt x="1096" y="481" on="0"/>
      </contour>
      <contour>
        <pt x="354" y="918" on="1"/>
        <pt x="354" y="860" on="0"/>
        <pt x="295" y="860" on="1"/>
        <pt x="238" y="860" on="0"/>
        <pt x="238" y="915" on="1"/>
        <pt x="238" y="977" on="0"/>
        <pt x="295" y="977" on="1"/>
        <pt x="354" y="977" on="0"/>
      </contour>
      <contour>
        <pt x="997" y="272" on="1"/>
        <pt x="997" y="215" on="0"/>
        <pt x="940" y="215" on="1"/>
        <pt x="881" y="215" on="0"/>
        <pt x="881" y="272" on="1"/>
        <pt x="881" y="332" on="0"/>
        <pt x="940" y="332" on="1"/>
        <pt x="997" y="332" on="0"/>
      </contour>
      <contour>
        <pt x="848" y="174" on="1"/>
        <pt x="848" y="119" on="0"/>
        <pt x="793" y="119" on="1"/>
        <pt x="731" y="119" on="0"/>
        <pt x="731" y="174" on="1"/>
        <pt x="731" y="233" on="0"/>
        <pt x="793" y="233" on="1"/>
        <pt x="848" y="233" on="0"/>
      </contour>
      <contour>
        <pt x="254" y="770" on="1"/>
        <pt x="254" y="711" on="0"/>
        <pt x="199" y="711" on="1"/>
        <pt x="137" y="711" on="0"/>
        <pt x="137" y="770" on="1"/>
        <pt x="137" y="827" on="0"/>
        <pt x="197" y="827" on="1"/>
        <pt x="254" y="827" on="0"/>
      </contour>
      <contour>
        <pt x="219" y="596" on="1"/>
        <pt x="219" y="539" on="0"/>
        <pt x="162" y="539" on="1"/>
        <pt x="102" y="539" on="0"/>
        <pt x="102" y="596" on="1"/>
        <pt x="102" y="653" on="0"/>
        <pt x="162" y="653" on="1"/>
        <pt x="219" y="653" on="0"/>
      </contour>
      <contour>
        <pt x="674" y="141" on="1"/>
        <pt x="674" y="82" on="0"/>
        <pt x="616" y="82" on="1"/>
        <pt x="557" y="82" on="0"/>
        <pt x="557" y="141" on="1"/>
        <pt x="557" y="199" on="0"/>
        <pt x="616" y="199" on="1"/>
        <pt x="674" y="199" on="0"/>
      </contour>
      <contour>
        <pt x="254" y="422" on="1"/>
        <pt x="254" y="365" on="0"/>
        <pt x="197" y="365" on="1"/>
        <pt x="137" y="365" on="0"/>
        <pt x="137" y="422" on="1"/>
        <pt x="137" y="481" on="0"/>
        <pt x="197" y="481" on="1"/>
        <pt x="254" y="481" on="0"/>
      </contour>
      <contour>
        <pt x="502" y="178" on="1"/>
        <pt x="502" y="119" on="0"/>
        <pt x="442" y="119" on="1"/>
        <pt x="385" y="119" on="0"/>
        <pt x="385" y="174" on="1"/>
        <pt x="385" y="233" on="0"/>
        <pt x="442" y="233" on="1"/>
        <pt x="502" y="233" on="0"/>
      </contour>
      <contour>
        <pt x="354" y="272" on="1"/>
        <pt x="354" y="215" on="0"/>
        <pt x="295" y="215" on="1"/>
        <pt x="238" y="215" on="0"/>
        <pt x="238" y="272" on="1"/>
        <pt x="238" y="332" on="0"/>
        <pt x="295" y="332" on="1"/>
        <pt x="354" y="332" on="0"/>
      </contour>
    </TTGlyph>
</ttFont>
